<svg version="1.1" viewBox="0 0 3000 3000" xmlns="http://www.w3.org/2000/svg" xmlns:xlink="http://www.w3.org/1999/xlink"><linearGradient id="a" x1="2364.2" x2="2364.2" y1="2291.5" y2="2013.5" gradientUnits="userSpaceOnUse"><stop stop-color="#808080" offset="0"/><stop stop-color="#7d7d7d" offset=".27"/><stop stop-color="#747474" offset=".46"/><stop stop-color="#646464" offset=".64"/><stop stop-color="#4d4d4d" offset=".8"/><stop stop-color="#303030" offset=".95"/><stop stop-color="#242424" offset="1"/></linearGradient><linearGradient id="b"><stop stop-color="#fff" stop-opacity="0" offset="0"/><stop stop-color="#fff" offset=".72"/></linearGradient><linearGradient id="c" x1="2579.2" x2="2579.2" y1="1935.2" y2="1441.6" gradientUnits="userSpaceOnUse" xlink:href="#b"/><linearGradient id="d" x1="2583.8" x2="2583.8" y1="2124.8" y2="1726.7" xlink:href="#a"/><clipPath id="e"><path d="m2518.1 1775.9c67.6-29 132.5 39.9 146.6 73.7 48 115.1-49.4 194.9-49.4 194.9-36.6 34.8-88.5 67.7-157.3 88.8-175.3 53.8-339.2-38.4-422.2-99l-34.7-24.9-36.1 140.1 220.6 76.5a852.5 852.5 0 00229 11.7c98.1-8.4 186.9-29.1 266-104.6 93.6-89.2 148.9-239.5 82.8-373.6-44.5-90.3-152-191.5-273.6-171.9-89 14.4-190.9 94.4-182.7 186.5 5.8 64 64.6 132.1 133.1 133.9 48.3 1.2 112.1-30.2 112.1-73.4-.1-34.5-40.8-73.1-100.9-79.4"/></clipPath><clipPath id="f"><path d="m2200.5 2195.7c-43-29.4-132.4-61.7-179.8-75.5l-.8-.3a248.1 248.1 0 006.4-155.8l-174.8-568.6c14.6-15.2 23.3-25.6 23.3-25.6 42.4 27.2 109.7-3.5 137.1-18.2a3.1 3.1 0 00-1.5-5.9c-53.6 0-129.9-41.6-129.9-41.6 60.7 16.1 84-1.1 91.8-10.5a3.1 3.1 0 00-2.3-5.2c-19.6-.9-86-12.3-134.4-122.4-6.6-15.1-13.6-30-21.2-44.7-14.6-28.2-38.8-72.8-66.6-117.1l1.3-7.1 50-205.4c6.6-27.3-24.5-47.9-47-31.2l-131.2 97.4-2.1 2.6-4.9-3.1a240.6 240.6 0 00-54.9-21.5l-3.3-.8c10-28.5 40.9-44.3 40.9-44.3-35.9-33.7-100 19.4-100 19.4-37-35.7 17.4-102.7 17.4-102.7-64.8-29.4-112.8 85.4-112.8 85.4-4.7-56.4-86.1-64.9-86.1-64.9 27.1 29.7 13.6 82.9 13.6 82.9-38.1-37.3-110.7-2.4-110.7-2.4 29.7 2.9 48.9 15.7 60.8 28l-3 .8a240.6 240.6 0 00-79 39l-131-81.2c-23.3-14.4-52.1 7.3-44.7 33.7l57.5 202.6 4.2 14.9c-13.6 32.5-24.1 61.9-29.8 78.5q-5.3 15.7-12.1 30.8c-40.9 107.2-130.3 143.6-160.1 153.1a3.1 3.1 0 00.1 6c20.6 5.7 72.8 17.4 111-21 0 0-37.3 51.7-83.2 70.2a3.1 3.1 0 00.9 6.1c16.5 1.6 47.9.7 87.8-18.6 0 0-21.7 30.1-40.8 44.4a3.2 3.2 0 002.3 5.7c15.5-1.7 34.4-5.1 45.5-11.9l.5 12.2c.5 11.7 8.6 24.2 21.3 36.7l-107 561a248.9 248.9 0 0012.6 117.5l-.6.3c-38.1 9.1-130.4 43.4-184.5 78.3-26.5 17.1-10.1 55.9 23.2 55.3l266.9-5.2q6.8 4.1 13.8 7.9l.2 3.4c.4 23.3-6.7 42.4-29.9 43.6-15.6.8-28.2 9.9-30.6 21.1-4.7 21.5 5.8 38.9 27.2 40.4l84.3 5c26.4 1.6 51.9-11.3 65.3-34.1a71.4 71.4 0 008.8-23.9l5-26.6h533.6l3.5 20.7a71.6 71.6 0 0043.1 54.3 53.5 53.5 0 0022.3 4l91.8-3c22-2.2 30.1-15.7 27.9-36.9-.7-6.9-6.2-24.5-24.5-25.5-15.8-.9-25.2-8.6-28.1-21.9a246.8 246.8 0 0065.4-28.1l261.5 5.1c33.2.3 49.2-37.8 23.1-55.6z"/></clipPath><clipPath id="g"><path d="m2200.5 2195.7c-43-29.4-132.4-61.7-179.8-75.5l-.8-.3a248.1 248.1 0 006.4-155.8l-174.8-568.6c14.6-15.2 23.3-25.6 23.3-25.6 42.4 27.2 109.7-3.5 137.1-18.2a3.1 3.1 0 00-1.5-5.9c-53.6 0-129.9-41.6-129.9-41.6 60.7 16.1 84-1.1 91.8-10.5a3.1 3.1 0 00-2.3-5.2c-19.6-.9-86-12.3-134.4-122.4-6.6-15.1-13.6-30-21.2-44.7-14.6-28.2-38.8-72.8-66.6-117.1l1.3-7.1 50-205.4c6.6-27.3-24.5-47.9-47-31.2l-131.2 97.4-2.1 2.6-4.9-3.1a240.6 240.6 0 00-54.9-21.5l-3.3-.8c10-28.5 40.9-44.3 40.9-44.3-35.9-33.7-100 19.4-100 19.4-37-35.7 17.4-102.7 17.4-102.7-64.8-29.4-112.8 85.4-112.8 85.4-4.7-56.4-86.1-64.9-86.1-64.9 27.1 29.7 13.6 82.9 13.6 82.9-38.1-37.3-110.7-2.4-110.7-2.4 29.7 2.9 48.9 15.7 60.8 28l-3 .8a240.6 240.6 0 00-79 39l-131-81.2c-23.3-14.4-52.1 7.3-44.7 33.7l57.5 202.6 4.2 14.9c-13.6 32.5-24.1 61.9-29.8 78.5q-5.3 15.7-12.1 30.8c-40.9 107.2-130.3 143.6-160.1 153.1a3.1 3.1 0 00.1 6c20.6 5.7 72.8 17.4 111-21 0 0-37.3 51.7-83.2 70.2a3.1 3.1 0 00.9 6.1c16.5 1.6 47.9.7 87.8-18.6 0 0-21.7 30.1-40.8 44.4a3.2 3.2 0 002.3 5.7c15.5-1.7 34.4-5.1 45.5-11.9l.5 12.2c.5 11.7 8.6 24.2 21.3 36.7l-107 561a248.9 248.9 0 0012.6 117.5l-.6.3c-38.1 9.1-130.4 43.4-184.5 78.3-26.5 17.1-10.1 55.9 23.2 55.3l266.9-5.2q6.8 4.1 13.8 7.9l.2 3.4c.4 23.3-6.7 42.4-29.9 43.6-15.6.8-28.2 9.9-30.6 21.1-4.7 21.5 5.8 38.9 27.2 40.4l84.3 5c26.4 1.6 51.9-11.3 65.3-34.1a71.4 71.4 0 008.8-23.9l5-26.6h533.6l3.5 20.7a71.6 71.6 0 0043.1 54.3 53.5 53.5 0 0022.3 4l91.8-3c22-2.2 30.1-15.7 27.9-36.9-.7-6.9-6.2-24.5-24.5-25.5-15.8-.9-25.2-8.6-28.1-21.9a246.8 246.8 0 0065.4-28.1l261.5 5.1c33.2.3 49.2-37.8 23.1-55.6z"/></clipPath><linearGradient id="h" x1="1721.5" x2="1721.5" y1="787.6" y2="997.24" gradientUnits="userSpaceOnUse"><stop stop-color="#808080" offset="0"/><stop stop-color="#797979" offset=".14"/><stop stop-color="#646464" offset=".35"/><stop stop-color="#434343" offset=".6"/><stop stop-color="#141414" offset=".89"/><stop offset="1"/></linearGradient><linearGradient id="i" x1="1027.1" x2="1148.2" y1="934.24" y2="934.24" xlink:href="#h"/><clipPath id="j"><path d="m2200.5 2195.7c-43-29.4-132.4-61.7-179.8-75.5l-.8-.3a248.1 248.1 0 006.4-155.8l-174.8-568.6c14.6-15.2 23.3-25.6 23.3-25.6 42.4 27.2 109.7-3.5 137.1-18.2a3.1 3.1 0 00-1.5-5.9c-53.6 0-129.9-41.6-129.9-41.6 60.7 16.1 84-1.1 91.8-10.5a3.1 3.1 0 00-2.3-5.2c-19.6-.9-86-12.3-134.4-122.4-6.6-15.1-13.6-30-21.2-44.7-14.6-28.2-38.8-72.8-66.6-117.1l1.3-7.1 50-205.4c6.6-27.3-24.5-47.9-47-31.2l-131.2 97.4-2.1 2.6-4.9-3.1a240.6 240.6 0 00-54.9-21.5l-3.3-.8c10-28.5 40.9-44.3 40.9-44.3-35.9-33.7-100 19.4-100 19.4-37-35.7 17.4-102.7 17.4-102.7-64.8-29.4-112.8 85.4-112.8 85.4-4.7-56.4-86.1-64.9-86.1-64.9 27.1 29.7 13.6 82.9 13.6 82.9-38.1-37.3-110.7-2.4-110.7-2.4 29.7 2.9 48.9 15.7 60.8 28l-3 .8a240.6 240.6 0 00-79 39l-131-81.2c-23.3-14.4-52.1 7.3-44.7 33.7l57.5 202.6 4.2 14.9c-13.6 32.5-24.1 61.9-29.8 78.5q-5.3 15.7-12.1 30.8c-40.9 107.2-130.3 143.6-160.1 153.1a3.1 3.1 0 00.1 6c20.6 5.7 72.8 17.4 111-21 0 0-37.3 51.7-83.2 70.2a3.1 3.1 0 00.9 6.1c16.5 1.6 47.9.7 87.8-18.6 0 0-21.7 30.1-40.8 44.4a3.2 3.2 0 002.3 5.7c15.5-1.7 34.4-5.1 45.5-11.9l.5 12.2c.5 11.7 8.6 24.2 21.3 36.7l-107 561a248.9 248.9 0 0012.6 117.5l-.6.3c-38.1 9.1-130.4 43.4-184.5 78.3-26.5 17.1-10.1 55.9 23.2 55.3l266.9-5.2q6.8 4.1 13.8 7.9l.2 3.4c.4 23.3-6.7 42.4-29.9 43.6-15.6.8-28.2 9.9-30.6 21.1-4.7 21.5 5.8 38.9 27.2 40.4l84.3 5c26.4 1.6 51.9-11.3 65.3-34.1a71.4 71.4 0 008.8-23.9l5-26.6h533.6l3.5 20.7a71.6 71.6 0 0043.1 54.3 53.5 53.5 0 0022.3 4l91.8-3c22-2.2 30.1-15.7 27.9-36.9-.7-6.9-6.2-24.5-24.5-25.5-15.8-.9-25.2-8.6-28.1-21.9a246.8 246.8 0 0065.4-28.1l261.5 5.1c33.2.3 49.2-37.8 23.1-55.6z"/></clipPath><linearGradient id="k" x1="1982.2" x2="1982.2" y1="2256.4" y2="1369.8" gradientUnits="userSpaceOnUse" xlink:href="#b"/><linearGradient id="l" x1="2116.3" x2="2116.3" y1="2249" y2="2113.3" xlink:href="#k"/><linearGradient id="m" x1="1044.7" x2="1044.7" y1="2253.1" y2="2117.4" gradientTransform="matrix(-1 0 0 1 1878.8 0)" xlink:href="#k"/><linearGradient id="n" x1="1841.6" x2="2023.5" y1="1322.7" y2="1322.7" xlink:href="#k"/><linearGradient id="o" x1="1540.5" x2="1985.6" y1="1062" y2="1062" xlink:href="#k"/><linearGradient id="p" x1="916.62" x2="1050.7" y1="1844" y2="1844" xlink:href="#k"/><g clip-path="url(#e)"><path d="m1904 1577.4h939v668.54h-939z" fill="#afb4d5"/><path d="m2364.6 1747.7c4.6-4.4 10.9-10.7 18.7-18.6a22.4 22.4 0 0137.5 9.7c1.1 3.7 2.2 7.2 3.5 10.3.1.1 6.4 15.8 23.8 35.7 19.5 22.4 70.5 32.6 118.9 32.6-.3-22.1-12.4-39.4-45.4-44.4-79.7-9.7-82.9-34.8-90-69.3a19.3 19.3 0 00-31.8-10.6c-26.9 24.3-70.1 53.2-116.2 43.7-48.3-10-37.5 23.5-13.5 60.6 38.7-16.1 81.5-37.3 94.5-49.7z" fill="#ffd5c7"/><path d="m2564.7 1832.5c-24.3 0-47.3-2.5-67.8-7.5-27.5-6.6-48.9-17.4-60.1-30.4-19.2-22-26.1-39.3-26.4-40-1.4-3.6-2.7-7.5-3.9-11.7a7.4 7.4 0 00-5.4-5.2 7.2 7.2 0 00-7 2c-7.9 8-14.3 14.3-19 18.8-12.5 12-56 34-96.2 51.7 25 35.5 57.1 70.2 57.1 70.2l160.5 76.5s59.3-70.4 69.1-124.4h-.8z" fill="#585666"/><path d="m2598.9 2070.3c7.5-1.8 18-3.9 31.2-6.3a21.4 21.4 0 0124.6 25.7c-1.4 6.4-2.6 12.4-3.3 17.6 0 .1-2.4 16.9 2.6 42.8 1.6 8.5 6.1 17.4 12.5 26.3l49.3-16.6c-48.8-37-44.2-72.6-35.6-98a14.7 14.7 0 00-16.9-19.1c-27 5.7-66.6 8.2-93.3-15.7-38.2-34.2-72.2-.3-90.9 26.6 45.9 10.3 100.3 21.5 119.8 16.7z" fill="#ffd5c7"/><path d="m2639.3 2153c-5.5-28.7-2.8-47.1-2.7-47.9.8-5.6 2-11.8 3.5-18.6a6.4 6.4 0 00-7.4-7.7c-12.9 2.3-23.1 4.3-30.3 6.1-19 4.6-79.7-4-134.3-13.3-2.6 4.8-4.1 7.9-4.1 7.9a167 167 0 00-9 22c-6.9 21.2-21.2 64.7-.5 97.5 23.7 37.6 78.1 27.1 82.5 27l68.8-29.1 46.1-15.5c-6.5-10-10.9-19.6-12.6-28.4z" fill="#585666"/><circle cx="2597.5" cy="2120.2" r="11" fill="#afb4d5"/><circle cx="2552.6" cy="2143.9" r="12.2" fill="#afb4d5"/><circle cx="2493.5" cy="2169.1" r="19.9" fill="#afb4d5"/><path d="m2159.1 2236.9s13.5-23.9 47.1-33.5c7.6-2.2 13.4 6.7 8.5 13s-10.8 12.7-13.5 23.9c-19-3-42.1-3.4-42.1-3.4zm196.1 9.6s18-31.9 63-44.8c10.1-2.9 17.9 9 11.4 17.3s-14.4 17-18 32c-25.5-4-56.4-4.5-56.4-4.5zm-68.3-134.2s-3.8 30 19.6 60.7c5.3 6.9 16.3 2.9 16.1-5.8s-1.1-18.4 3.8-30c-18.9-10-39.5-24.9-39.5-24.9zm-39.2-13.4s-17.2 36.9-6 80.4c2.4 9.5-9.6 15.9-16.2 8.7-31.6-34.8-66-89.4-32.6-138.6zm-21 141.8s6.3-39.8 69.2-58.6a8.2 8.2 0 019.7 11.4c-7.1 14.9-14.1 36.3-2.2 46.4zm120.3-131.1s28.3 37.4-1.6 95.1a8.4 8.4 0 0010.6 11.6c25.8-10.8 64.4-37.1 55.8-96.7z" fill="#ffd5c7"/><path d="m2046.5 2268.7s174.4-86.2 90.5-149.7c-48.8-37-44.2-72.6-35.6-98a14.7 14.7 0 00-16.9-19.1c-27 5.7-66.6 8.2-93.3-15.7-57.8-51.7-106 52.3-106 52.3l-6 39c-2.7 5.7-25.5 56.8 2.3 109.6 26 49.3 75.5 61.2 82.6 62.7z" fill="#585666"/><g fill="#ffd5c7"><circle transform="matrix(.67816 -.73491 .73491 .67816 -429.6 2334.1)" cx="2452.2" cy="1657.9" r="16.3"/><circle transform="matrix(.89337 -.44932 .44932 .89337 -474.6 1312)" cx="2532.3" cy="1657.8" r="15.2"/><circle transform="matrix(.99337 -.11494 .11494 .99337 -176.3 310.1)" cx="2600.4" cy="1683.6" r="14.1"/><circle transform="matrix(.18224 -.98325 .98325 .18224 472.7 4025.5)" cx="2655.2" cy="1728.7" r="12.9"/><circle transform="matrix(.41945 -.90778 .90778 .41945 -57.1 3484.2)" cx="2695.8" cy="1786.8" r="11.8"/><circle transform="matrix(.61704 -.78694 .78694 .61704 -414 2853)" cx="2721.1" cy="1851.4" r="10.7"/><circle transform="matrix(.79335 -.60876 .60876 .79335 -602.2 2058.1)" cx="2729.9" cy="1916" r="9.6"/><circle transform="matrix(.94721 -.32061 .32061 .94721 -489.2 976.3)" cx="2721.3" cy="1974.2" r="8.4"/><circle transform="matrix(.13572 -.99075 .99075 .13572 327.4 4414.3)" cx="2694.1" cy="2019.5" r="7.3"/><circle transform="matrix(.72417 -.68962 .68962 .72417 -518.5 2257.7)" cx="2566.6" cy="1777.8" r="4.8"/></g><path d="m2307.1 1774.1s77.1-188.9 277.1-114.6 203.7 275.7 203.7 275.7l134.3-263.7-234-212.5-344-17.4-108 123.9z" fill="url(#c)" opacity=".35"/><path d="m2135.9 2084.1c107 52 71.6 104 199.2 113.8 208.3 32.6 329.5-41.9 390.8-121l100.2-44.4-96 259-828-9.1 54-268.9s122.5 42.7 179.8 70.6z" fill="url(#a)" opacity=".25"/><path d="m2519.6 1734.3c8.4-2.3 109.1-43.4 164.5 92.2 57.5 140.6-26.3 224.4-201.1 298.4l96.1-317.4s-20.1-11.2-61-31.6-52.7-18.9-52.7-18.9 20.5-10.4 54.2-22.7z" fill="url(#d)" opacity=".25"/></g><path d="m2515.9 1770 5.8-2.2 3.2-1 3.3-1 3.3-.8 3.2-.7 3.3-.6 3.3-.5a92.5 92.5 0 0126.4.8 110 110 0 0125 7.6 138.2 138.2 0 0122.6 12.5 169 169 0 0120 16 181.2 181.2 0 0117.5 18.7 139.6 139.6 0 0114.5 21.4l1.5 3 1.4 3.1.3.8v.9l.6 1.4 3.3 8.7 3 9.3c.3 1 .7 2.1.9 3.1l1.5 6.2.8 3.1.6 3.2 1.1 6.3c.4 2.1.5 4.2.8 6.4l.6 4.8v1.6l.3 6.4v6.4a154.3 154.3 0 01-2.3 25.6l-1.2 6.3c-.5 2.1-1 4.2-1.5 6.2s-.5 2.1-.8 3.1l-1.8 6.2-1 3-2.1 6-2.4 5.9c-.8 2-1.7 3.9-2.6 5.8l-1.3 2.9-1.4 2.9a193.8 193.8 0 01-12.9 22 213.5 213.5 0 01-15.5 20.2c-2.8 3.2-5.6 6.3-8.6 9.4l-4.6 4.5-2.4 2.2-2.6 2.2.3-.3a366.6 366.6 0 01-68.8 51 404.9 404.9 0 01-38.1 19.4q-19.5 8.7-39.8 15.6l-10.2 3.3-2.5.8h-.8l-.6.2-1.3.4-15.3 4.2-10.5 2.5-5.3 1.2-5.3 1-10.5 2-10.6 1.5-5.3.7-5.3.6-10.7 1-10.7.6c-7.1.5-14.3.4-21.4.5l-10.7-.3-5.4-.2-5.3-.3-10.7-.7-10.6-1.1-5.3-.6-5.3-.7-10.6-1.5c-7-1.3-14.1-2.4-21-4-14-2.8-27.7-6.5-41.4-10.6l-10.2-3.2-10.1-3.4c-3.4-1.1-6.7-2.4-10-3.6s-6.7-2.4-10-3.8l-9.9-4-9.8-4.2-9.7-4.4-9.7-4.5c-12.8-6.1-25.4-12.7-37.8-19.6s-24.5-14.3-36.5-21.9-23.6-15.7-35-24l-34.2-24.6 9.7-3.5-35.8 140.3-4-7.5 220.6 76.5-.9-.2a866.3 866.3 0 00126.3 14q31.8 1.1 63.6-.1c21.2-.8 42.3-2.5 63.4-4.9a628.3 628.3 0 0062.5-10 412.3 412.3 0 0060.4-18 344.9 344.9 0 0056.3-27.9 331.7 331.7 0 0050.1-37.9l5.8-5.3.7-.7.4-.3 4.5-4.5c3.9-3.7 7.4-7.5 11-11.3l1.3-1.4 1.3-1.5 2.6-2.9c1.7-2 3.5-3.9 5.2-5.9 3.3-4.1 6.8-8 9.9-12.2l4.8-6.2 6.9-9.6 2.2-3.3 4.4-6.5c5.6-8.9 11.1-17.8 16-27.1 2.5-4.6 4.8-9.3 7.1-14 1.2-2.3 2.2-4.8 3.3-7.1s2.2-4.8 3.2-7.2l3-7.3 1.5-3.6 1.4-3.7 2.7-7.4 2.4-7.5c1.7-5 3-10 4.5-15.1.4-1.3.7-2.5 1-3.8l.9-3.8c.6-2.5 1.3-5.1 1.8-7.6l1.6-7.7c.2-1.3.6-2.6.7-3.9l.6-3.9 1.2-7.7.9-7.8a282.3 282.3 0 00.3-62.5l-.4-3.9c-.1-1.3-.4-2.6-.5-3.9l-1.1-7.7-.3-1.9-1.2-5.7c-.5-2.6-.9-5.1-1.5-7.7l-1.9-7.6-.9-3.8-1.1-3.8-2.2-7.5c-.3-1.3-.8-2.5-1.2-3.7l-1.3-3.7c-13.7-39.4-36.7-75.5-64.5-106.9-7-7.8-14.4-15.3-22-22.5s-15.7-13.9-23.9-20.4-16.9-12.3-25.8-17.8l-6.7-4-3.4-2-3.5-1.8c-2.3-1.2-4.6-2.5-6.9-3.6l-7-3.4-3.6-1.6-7.2-3-3.6-1.4-7.3-2.7-7.4-2.4c-2.5-.8-5-1.4-7.5-2.1s-5-1.4-7.5-1.9l-7.6-1.6-7.7-1.2a183.9 183.9 0 00-30.9-1.9h-3.9l-3.9.3-7.7.6-7.7 1-1.9.3h-.8l-1 .2-7.8 1.4-3.7.9-3.7.8-3.8 1c-2.5.7-5 1.3-7.5 2.1s-5 1.5-7.4 2.4a238.4 238.4 0 00-28.8 12 265.3 265.3 0 00-27.2 15.4l-6.5 4.3-6.4 4.5-6.2 4.8c-2.1 1.6-4 3.3-6 5a224.5 224.5 0 00-22.3 21.7 177.5 177.5 0 00-18.6 24.7c-10.9 17.4-18.4 36.9-20.4 57.1-.2 2.5-.6 5-.5 7.6v7.6l.2 3.8v3.7l.5 4c.2 1.3.4 2.5.6 3.7s1 4.9 1.5 7.4.6 2.5.9 3.7.6 2.5 1 3.7 1.5 4.9 2.4 7.3l1.3 3.6 1.5 3.6a154.6 154.6 0 0014.6 27 157 157 0 0019.6 23.7c3.6 3.7 7.4 7 11.4 10.3a147.3 147.3 0 0012.4 9 140.1 140.1 0 0013.2 7.6 124 124 0 0014 5.9 116.7 116.7 0 0014.5 4 105 105 0 0014.9 1.9h11.3l3.8-.3a138.1 138.1 0 0015.1-2.2 144.7 144.7 0 0014.8-3.8 136.8 136.8 0 0014.4-5.3 118.7 118.7 0 0026.2-15.3c7.9-6.1 14.7-13.6 19-22.1a42.5 42.5 0 004.2-13.3v-7.1a7.8 7.8 0 00-.1-.9v-.8c-.1-.6-.1-1.1-.2-1.7s-.3-2.3-.6-3.5a55 55 0 00-5.1-13.6 71.7 71.7 0 00-8.3-12.4 102 102 0 00-22.9-20.1 132.7 132.7 0 00-27.8-13.7q-7.4-2.6-15-4.5c-5.1-1.2-10.2-2.2-15.4-3a2.5 2.5 0 01.6-5c21.6 1.5 43.2 7.6 62.3 18.9a106.8 106.8 0 0125.9 21 81.9 81.9 0 0110 13.8 65.5 65.5 0 016.5 16.1c.4 1.4.6 2.9.9 4.3s.4 3.2.6 4.6v8.8a52.1 52.1 0 01-4.9 17.2 68.6 68.6 0 01-9.6 14.7 89.8 89.8 0 01-12.3 11.9 128.7 128.7 0 01-28.7 17.4 154.4 154.4 0 01-31.7 10.3 151.2 151.2 0 01-16.6 2.5l-4.2.3-4.3.2h-8.4a118.3 118.3 0 01-16.8-2.1 124 124 0 01-16.3-4.6 137.3 137.3 0 01-15.5-6.6 147.7 147.7 0 01-14.5-8.4 160.3 160.3 0 01-13.4-9.9c-4.2-3.6-8.4-7.3-12.3-11.3a171.7 171.7 0 01-21-25.7 167.3 167.3 0 01-15.7-29.3l-1.6-3.9-1.4-3.9c-1-2.6-1.7-5.3-2.6-7.9s-.7-2.7-1.1-4-.7-2.7-1-4.1-1.2-5.4-1.6-8.3-.5-2.9-.7-4.2l-.5-4v-4.5l-.2-4.2v-8.4c0-2.8.3-5.6.6-8.4a135 135 0 017.6-32.6 161.5 161.5 0 0114.7-29.9 190 190 0 0119.9-26.4 236.9 236.9 0 0123.6-22.9c2.1-1.7 4.2-3.5 6.3-5.2l6.5-5 6.7-4.8 6.8-4.6a277.8 277.8 0 0128.5-16.2 250.9 250.9 0 0130.3-12.6c2.6-1 5.2-1.7 7.8-2.5s5.3-1.5 7.9-2.3l4-1.1 8.2-1.8 4-.7 3.9-.7 1-.2h1.2l2-.3 8.2-1.1 12.3-.9h4.1a196.3 196.3 0 0132.9 2l8.2 1.3 8.1 1.7c2.7.5 5.3 1.3 8 2s5.3 1.3 7.9 2.2l7.8 2.5 7.7 2.8 3.8 1.5 7.6 3.2 3.7 1.7 7.4 3.5c2.5 1.2 4.8 2.5 7.3 3.8l3.6 1.9 3.5 2.1 7.1 4.1c9.3 5.7 18.2 12 26.9 18.6s16.9 13.7 24.8 21.2 15.5 15.2 22.7 23.3 14.1 16.5 20.6 25.2 12.6 17.7 18.3 27c2.8 4.7 5.6 9.3 8.2 14.2l2 3.6 3.6 7.2.5.9.3.5.2.5.9 1.9 3.4 7.4c.6 1.2 1.2 2.5 1.7 3.7l1.5 3.8 3.1 7.6c1 2.5 1.8 5.1 2.7 7.7l1.4 3.9c.5 1.3.9 2.6 1.3 3.9l2.3 7.8 1.2 3.9 1 4 1.9 8c.6 2.7 1.1 5.4 1.6 8l1.2 6 .3 2 1.2 8.1c.2 1.4.4 2.7.6 4.1l.4 4.1a294.8 294.8 0 01-.3 65.3l-1 8.1-1.3 8.1-.6 4c-.2 1.3-.5 2.7-.8 4l-1.6 8c-.5 2.7-1.3 5.3-1.9 7.9l-1 4c-.3 1.3-.6 2.6-1 3.9-1.5 5.2-2.9 10.5-4.6 15.6l-2.5 7.7-2.8 7.7-1.4 3.8-1.5 3.8-3.1 7.5c-1.1 2.5-2.2 5-3.3 7.4s-2.2 5-3.4 7.4c-2.4 4.9-4.7 9.8-7.4 14.5-5 9.6-10.7 18.9-16.5 28.1l-4.5 6.8-2.3 3.4-7.2 9.9-5 6.5c-3.3 4.3-6.8 8.5-10.2 12.7-1.7 2.1-3.6 4.1-5.4 6.1l-2.7 3-2.8 3c-3.8 4-7.5 8-11.3 11.7l-4.6 4.6-.4.3-.8.7-6 5.5a344.1 344.1 0 01-51.9 39.3 357.4 357.4 0 01-58.3 28.9 424.8 424.8 0 01-62.2 18.6 640.4 640.4 0 01-63.9 10.3c-21.3 2.4-42.8 4.1-64.3 5s-43 .9-64.5.1a878.7 878.7 0 01-128.1-14.2h-.5l-.4-.2-220.6-76.5-5.4-1.9 1.4-5.6 36.2-140.2 2.3-8.8 7.4 5.3 34.2 24.6c11.3 8.3 22.8 16.1 34.5 23.7s23.7 14.7 35.8 21.5 24.5 13.3 37 19.3l9.5 4.4 9.5 4.3 9.6 4.1 9.7 3.9c3.2 1.3 6.5 2.5 9.7 3.7s6.5 2.5 9.8 3.5l9.9 3.4 9.9 3.1c13.3 4 26.7 7.6 40.3 10.4 6.8 1.5 13.6 2.6 20.4 3.9l10.3 1.5 5.1.7 5.2.5 10.3 1.1 10.4.7 5.2.3 5.2.2 10.4.3c6.9-.1 13.8 0 20.7-.5l10.4-.6 10.3-1 5.2-.5 5.1-.7 10.3-1.5 10.2-1.9 5.1-.9 5-1.2 10-2.3 10.1-2.8 5.1-1.4 1.3-.4.6-.2h.5l2.5-.8 9.9-3.2q19.7-6.7 38.7-15.2a392.4 392.4 0 0037-18.8 354.1 354.1 0 0065.7-49.9h.1l.2-.2 2.1-1.8 2.2-2 4.2-4.2c2.8-2.8 5.5-5.8 8.1-8.8a201 201 0 0014.5-19 181.3 181.3 0 0012.1-20.6l1.3-2.7 1.2-2.7c.8-1.8 1.7-3.6 2.4-5.5l2.2-5.5 2.5-7 .4-1.4 1.8-5.6c.3-.9.5-1.9.7-2.9s1-3.8 1.4-5.8l1.1-5.8a141.8 141.8 0 002.1-23.6v-6l-.3-5.9v-1.5l-.2-1.5-.3-2.9c-.2-2-.4-3.9-.7-5.9l-1.5-8.7-2.1-8.7c-.2-1-.5-1.9-.8-2.8l-.9-2.8-1.7-5.6-3.3-8.7-.6-1.4v-.7l-.3-.6-1.2-2.6-1.3-2.5a127.3 127.3 0 00-13.2-19.4 164.1 164.1 0 00-34.8-32.2c-13-8.8-27.6-15.5-42.7-18.1a79.9 79.9 0 00-22.8-.7l-2.8.4-2.8.5-2.8.6-2.7.7-3.9 1.2-1.4.5-5.8 2.2a6.3 6.3 0 01-4.8-11.8z" fill="#31323d"/><g clip-path="url(#f)"><path d="m724.1 562.8h1509.4v1824.1h-1509.4z" fill="#afb4d5"/><path d="m946.2 1414.7c57.4-9 132.7 12.2 149.6 68.4 14.8 49.5-25.3 77-16.4 161.7 5.6 54.3 23.6 57.5 23.4 102.2-.5 81-59.9 139-63.7 142.6-67.2 63.7-186.8 81.7-242.8 35.4-117.7-97.2 2.5-487.3 149.9-510.3z" fill="#585666"/><g fill="#ffd5c7"><path d="m1206.2 869.8s19.1 27.4 38.7 34.5c10.7 3.9 11.3 9.7 8.3 12.7s-17.4-3.7-17.4-3.7-34.5-16.1-39.7-34.5zm414-10.8s-12.9 29.6-32.8 41.2c-10.9 6.4-10.4 12.8-6.5 15.5s18.2-7.5 18.2-7.5 31.9-20.4 33.9-41.4zm-326 76.5c9.4-10.9 49.4-.3 65.3 26 2.8 4.7 9.3 15.4 5.3 21.3-7.8 11.4-54.9 4.1-68.6-24-.9-1.7-8.1-16.4-2-23.3zm246.7 3.6c-8-9.3-42-.3-55.6 22.1-2.4 4-7.9 13.1-4.5 18.1 6.6 9.8 46.7 3.6 58.4-20.4.7-1.4 6.9-13.9 1.7-19.8z"/><circle cx="1272" cy="924.7" r="6.6"/><circle cx="1560.7" cy="925.3" r="7.2"/><circle cx="1558.3" cy="949.2" r="4.8"/><circle cx="1279.6" cy="949.2" r="4.8"/><path d="m1195.6 1582.2a16 16 0 00-26.7 2.6 55.5 55.5 0 00-6.6 30.1c1.2 16.7 10.7 37.4 20.6 37.4 12.1-.1 28.5-31.3 20-56.7a42.9 42.9 0 00-7.3-13.4z"/><circle cx="1193.2" cy="1548.5" r="9.3"/></g><path d="m1943.2 1376.6c-58-4.5-155.6 20.7-168 78-11 50.5 31.2 74.8 28.9 160-1.5 54.5-19.2 59.1-15.5 103.6 6.8 80.8 70.4 134 74.6 137.3 71.9 58.3 192.6 67 244.8 16.5 85-82.1 55.6-355.4-44.8-474.5-29.3-34.7-86.5-18.3-120-20.9z" fill="#585666"/><path d="m1685 1554.5a16.1 16.1 0 0126.9.5 56 56 0 018.9 29.6c.1 16.7-7.8 38.1-17.7 38.8-12.1.9-30.8-28.9-24.3-54.9a43.8 43.8 0 016.2-14z" fill="#ffd5c7"/><circle cx="1684.8" cy="1520.7" r="9.3" fill="#ffd5c7"/><path d="m1059.6 2281.4a83 83 0 0030.6-31.6 8.2 8.2 0 00-10.8-11.2 70.4 70.4 0 01-22 6.4 8.3 8.3 0 00-7.3 7.6 193.9 193.9 0 01-2.7 20.2 8.2 8.2 0 0012.2 8.6zm117.7-28.6c-10.9 1.5-36.5 7.1-58.5 26.9-6.3 5.7-16.1-1-13.1-9 13-35.2 38.1-79.2 82.3-80.6a8.2 8.2 0 018.1 10.3l-12.1 46.3a8.3 8.3 0 01-6.7 6.1zm-138.3-155.2s42.9 13.8 64.4 86.5c2.4 8.1-7.5 14.2-13.6 8.2-11.7-11.5-25.9-23-35.7-22.5a8.3 8.3 0 01-8.7-7.4zm166.8 20c-12.2 2.1-44.2 10.2-74.3 39.7-6.5 6.4-16.9-1-13.1-9.3 19.2-41.7 51.7-92.4 98.6-100a8.2 8.2 0 019.3 10.2l-14 53.4a8.2 8.2 0 01-6.5 6zm125.8-386.3c17.1 2.4 26.6 10.5 35.9 18.4 7.3 6.1 14.8 12.5 28.2 17.8 40 15.9 81.4 2.2 89.2-.8 18-6.6 27.3-15 36.2-23.2s20.7-18.7 39.8-22.1c23.1-4.1 48.1 3.1 74.7 21.4a70.7 70.7 0 00-54.8-47.1l-52.1-9.1a60.1 60.1 0 01-38-23.5c-23.9-32.5-72.6-32.5-96.5.1l-7.5 10.2a59.8 59.8 0 01-33 22.5l-29.3 7.7a71 71 0 00-47.1 41.2c18.6-11.5 36.8-16 54.3-13.5z" fill="#ffd5c7"/><path d="m1680.8 2082.8h.3l-35-268.9a67.6 67.6 0 00-29-47.4c-19-13-36.1-18.2-51-15.6-10.6 1.9-15.9 6.8-24.8 14.8s-22.5 20.5-45.9 29.2a176.6 176.6 0 01-58.3 10.2 142.4 142.4 0 01-52.5-9.7c-17.9-7.1-28.2-15.8-36.5-22.8s-12.2-10.4-20.7-11.6-15.7.2-24.2 3.9c-21.1 9.1-35.7 28.7-39.4 51.4l-44.4 274.3-62.5 314.9 578.4-21.8zm-352.3-228.2a31.3 31.3 0 1131.3-31.3 31.3 31.3 0 01-31.3 31.3zm163.2 205.4c-.8 14-14.6 24.9-31.3 24.8-15.6-.1-28.7-9.9-30.6-22.8l-4.5-30.1a97.8 97.8 0 0033 5.7h3.9a96.7 96.7 0 0031-6.3zm3.4-63.5a62.9 62.9 0 01-34.1 11h-2.7c-14.8 0-28.4-4.7-38.5-12.3l-8-53.4a95.1 95.1 0 0041.1 9.1h4a93.1 93.1 0 0041.3-11.1zm5.3-96.7-2.3 2.8c-10 11-25.5 17.7-42.4 18.3h-2.8c-19.8 0-37.5-8.4-47.4-21.1l-10.6-70s56.1 34 109.3-.1zm68.9-55.8a31.3 31.3 0 1131.3-31.3 31.3 31.3 0 01-31.3 31.3z" fill="#585666"/><path d="m1994.9 1965.7a251 251 0 01-41.3-3.4c-59.2-9.6-114.5-40.5-155.7-86.9h-.1a261.8 261.8 0 01-35.9-53.2c-20.1-39.4-28.6-79.6-25.2-119.4a342 342 0 016.8-44.4c3.1-15 5.8-27.9 5.7-52.8-.2-36.6-9.9-63.1-18.4-86.6-7.1-19.2-13.7-37.4-13.6-57.5 0-34.9 15.4-70.1 44.4-101.6 23.5-25.6 47-39.3 47.2-39.4 107.1-60.1 232.9-.8 234.1-.2l-14.1 26.5h.2c-1.1-.5-113.4-51.9-205.5-.2-.2 0-20.3 12.2-40.3 34-23.9 26.1-36 53.4-36 80.9-.1 14.7 5.4 29.7 11.8 47.2 8.9 24.4 20 54.8 20.2 96.7.1 28-3 43-6.3 59a293.4 293.4 0 00-6.3 40.8c-6.6 78 43.5 138.8 53.7 150.2h.1c36.6 41.3 85.6 68.7 138 77.2 54.4 8.9 109.4-2.2 159-32.1 27.1-16.3 44-38.4 54.3-53.6l24.9 16.9c-12 17.5-31.5 43.1-63.7 62.4-43.3 26.2-90.4 39.5-138 39.5zm-1097.3 40.1c-44.8 0-89.3-11.8-130.9-35-32.8-18.2-53.2-43.1-65.7-60.3l24.3-17.6c10.8 14.8 28.4 36.3 56 51.7 50.6 28.3 106 37.6 160 27 52.1-10.3 100.2-39.3 135.5-81.7h.1c9.7-11.7 57.8-74.1 48.7-151.8a310.1 310.1 0 00-7.6-40.7c-3.8-15.8-7.4-30.7-8.2-58.7-1.1-41.8 9-72.6 17.1-97.3 5.8-17.7 10.8-32.9 10.3-47.6-1-27.6-14.2-54.5-39.2-80-18.8-19.1-37.4-31.8-41.5-32.7-45-9.5-74.3-26.2-117.7-17.9-34.4 6.6-58.1 20-58.3 20.1l-14.9-26c4.3-2.5 106.7-59.7 206-2.2a239.7 239.7 0 0147.8 37.7c30 30.5 46.5 65.1 47.7 100 .7 20-5.3 38.4-11.7 57.9-7.8 23.7-16.6 50.5-15.6 87.2.7 24.8 3.8 37.6 7.4 52.5a333.3 333.3 0 018.2 44.2c4.7 39.7-2.5 80.1-21.3 120.1a260.7 260.7 0 01-34.2 54.4h-.1c-39.6 47.7-93.8 80.3-152.7 91.9a259.4 259.4 0 01-49.5 4.8z" fill="#ffd5c7"/><path d="m1548.5 832.3a133 133 0 01-9.4 17.4l-.9 1.5c-13.9 21.3-64.2 31.7-131.3 31.7s-91.8-8.6-115.2-22.4c-9.5-12.3-22.9-24.1-28-40-1.3-4-43-3.9-59.5-6.6 5.2 44 27.3 87.5 92 94.6 60.2 6.6 93.8 46.2 111.1 76.9a19.3 19.3 0 0033.5.3c18.1-31.3 50.4-72.1 97.2-77.2 57.1-6.2 71.7-63.1 73.6-111.5-18.5 11.8-58.9 26-63.1 35.3z" fill="#585666"/><path d="m1840.4 2281.3a82.6 82.6 0 01-30.6-31.7c-3.7-6.9 3.7-14.5 10.8-11.1a70.4 70.4 0 0022 6.4 8.2 8.2 0 017.3 7.5 190.3 190.3 0 002.7 20.2 8.2 8.2 0 01-12.2 8.7zm-121.7-29.6c10.9 1.5 36.5 7.1 58.5 26.9 6.3 5.6 16.1-1 13.1-9-13-35.3-38.1-79.3-82.3-80.6a8.1 8.1 0 00-8.1 10.2l12.1 46.4a8.3 8.3 0 006.7 6.1zm158.5-153.2s-47.4 5.8-81.7 73.4c-3.8 7.6 4.9 15.3 11.9 10.6 13.6-9.3 29.7-18.1 39.2-15.8 4.3 1 11.6-3.1 12.8-7.4zm-183 15.9c12.2 2.1 44.2 10.3 74.3 39.8 6.5 6.3 17-1.1 13.1-9.3-19.2-41.7-51.7-92.4-98.6-100a8.2 8.2 0 00-9.3 10.1l14 53.4a8 8 0 006.5 6z" fill="#ffd5c7"/></g><g clip-path="url(#g)"><path d="m1020.9 1433.2c-5.4 0 42.7 35.7 61.5 45.6-25.2 6.1-37.3 68.9-37.4 69.2-20.1 133.2-33.5 328-39.9 378.8a910.2 910.2 0 00-6.8 98.4v3.4c23.5 26 47.6 88.8 52.6 176.8l1.3 49s-31.3-.8-81-.8c-62 0-110.8-111.7-79.2-278.2m67.5-579.9a100.4 100.4 0 0047.6-29 3.4 3.4 0 015.7 3.2 191.6 191.6 0 01-19.6 45.2 5.2 5.2 0 01-2 2.2 1.8 1.8 0 01-2.5-.7m-78.5-49.3c17.1-4.7 33.2-12.3 49.2-19.9s33.3-16 46.5-27.9a3.4 3.4 0 015.3 4 132.6 132.6 0 01-43.9 49.6m-82.4-60.2c27.6-3.1 55-9.4 80.3-20.8 19.8-8.9 36-22.6 52-37.5a1.7 1.7 0 012.5 2.2q-13.6 18.2-28.5 35.4c-11.2 12.9-23.9 26.1-40.6 29.7" fill="#7f7f7f" opacity=".2"/><path d="m1796.7 801.2s-17.5-43.2-81.6 24.2c-33.7 40.5-68.9 54-68.9 54l102.8 117.8z" fill="url(#h)" opacity=".4"/><path d="m1027.9 853.3s-9.4-38.9 34.7-20.8c18.5 7.6 50.7 40.6 63.5 56l22 35-65.3 117.3z" fill="url(#i)" opacity=".4"/><g fill="#7f7f7f"><path d="m1226.5 2040.4c-24.3 147.7 54.3 178.3 68.5 181.6 86.5 15.5 223.8 8.8 268.5-7 41.8-14.8 129.9-58.5 108-189.5l43 256.8h-533.6z" opacity=".15"/><path d="m1854.3 2157.4s29.9-91.4 66.3-124.9c-39.4 75 14.1 92.7 28.1 87.7 53.7-19.2 75-66.7 79.2-150l65.3 116.3s-55 256-204 214l-38.7-18.1zm-573.4-1310a118.7 118.7 0 0128.6 36.3 4.6 4.6 0 008.8-2.3c-.9-15.5-3.8-30.6-11.8-43.7-15.6-25.4-48.4-36.7-78-32.8-7.6 1-15.8 2.8-22.5-.9m119-1.7a285.5 285.5 0 0118.7 59.9 4.6 4.6 0 008.9.8c7.8-20.8 11.4-43.1 8.7-65.1-3.3-27.2-16.8-53.6-38.7-70.1-4.8-3.6-10.7-6.9-16.5-5.3m95 53a178.8 178.8 0 00.2 34.4 4.6 4.6 0 009 1.1c8.4-22.4 22.3-42.7 39.3-59.6 21.8-21.6 48.6-37.7 76.8-49.6-21.7-13.9-51.2-14.2-73.2-.8-7.4 4.5-14.1 10.8-16.8 19m66 59.4a359.3 359.3 0 00-10.2 53.5 4.6 4.6 0 008 3.7c25.1-27 62-42.9 98.9-41.9 2.1.1 4.5.1 5.6-2.8a6.8 6.8 0 00.3-3.4c-1.5-9.9-9.3-17.6-18-22.3a56.2 56.2 0 00-45.6-3.3" opacity=".2"/><path d="m1087.2 1037.5s44.1-157.9 191.6-200.7l17 25.4c-81.5 23.6-167.5 135.3-182.2 181.3s-55.7 135.7-124.7 198.5" opacity=".2"/></g></g><g clip-path="url(#j)" opacity=".3"><path d="m1822.2 1426.8c65.5 192.8 120.8 423.9 147.8 543.6 46.1 204.7-81.2 286-81.2 286l61.1-35.5s63-74.8 72.5-107.6c20.8-71.9 139-33 117.2-147.7-31.7-166.5-264.8-595.8-264.8-595.8s-53.8 53.6-52.6 57z" fill="url(#k)"/><path d="m1999.2 2162.4s113.2 21.1 98.4 83.6l92.6 3 43.3-6.5-4.3-68.5-206.8-60.7z" fill="url(#l)"/><path d="m951.2 2166.5s-113.2 21.1-98.4 83.6l-92.6 3-43.3-6.5 4.3-68.5 206.8-60.7z" fill="url(#m)" opacity=".7"/><path d="m1898.6 1313.5a235 235 0 01-53.2-24.9 2.4 2.4 0 00-3.2 3.6c27.3 32 63 57.8 104.3 63.6 19.5 2.7 39.3.9 58.9-1.1 6.3-.6 12.9-1.4 18-5.2" fill="url(#n)"/><path d="m1985.6 1289.8a142.1 142.1 0 01-45.5 1c-43.6-6.1-82.5-32.5-111.3-65.8s-43.7-73.3-61.6-113.5a1039.6 1039.6 0 00-62.4-118.9 385.5 385.5 0 00-119.4-121.9c-8-5.1-39.4-16.4-45-24 0 0-.7-5 4.8-12.7s38.4 6.5 46.3 11c96 55 89.3 67 132.5 130 37.1 54.2 90.1 146.5 126.3 221.4" fill="url(#o)"/><path d="m1041.7 1452-93.6 502.5s-53.5 175 102.2 279l.3 20.2s-124.5-57.2-133.5-215.2 100-604 100-604z" fill="url(#p)"/></g><path d="m2200.5 2195.7c-43-29.4-132.4-61.7-179.8-75.5l-.8-.3a248.1 248.1 0 006.4-155.8l-174.8-568.6c14.6-15.2 23.3-25.6 23.3-25.6 42.4 27.2 109.7-3.5 137.1-18.2a3.1 3.1 0 00-1.5-5.9c-53.6 0-129.9-41.6-129.9-41.6 60.7 16.1 84-1.1 91.8-10.5a3.1 3.1 0 00-2.3-5.2c-19.6-.9-86-12.3-134.4-122.4-6.6-15.1-13.6-30-21.2-44.7-14.6-28.2-38.8-72.8-66.6-117.1l1.3-7.1 50-205.4c6.6-27.3-24.5-47.9-47-31.2l-131.2 97.4-2.1 2.6-4.9-3.1a240.6 240.6 0 00-54.9-21.5l-3.3-.8c10-28.5 40.9-44.3 40.9-44.3-35.9-33.7-100 19.4-100 19.4-37-35.7 17.4-102.7 17.4-102.7-64.8-29.4-112.8 85.4-112.8 85.4-4.7-56.4-86.1-64.9-86.1-64.9 27.1 29.7 13.6 82.9 13.6 82.9-38.1-37.3-110.7-2.4-110.7-2.4 29.7 2.9 48.9 15.7 60.8 28l-3 .8a240.6 240.6 0 00-79 39l-131-81.2c-23.3-14.4-52.1 7.3-44.7 33.7l57.5 202.6 4.2 14.9c-13.6 32.5-24.1 61.9-29.8 78.5q-5.3 15.7-12.1 30.8c-40.9 107.2-130.3 143.6-160.1 153.1a3.1 3.1 0 00.1 6c20.6 5.7 72.8 17.4 111-21 0 0-37.3 51.7-83.2 70.2a3.1 3.1 0 00.9 6.1c16.5 1.6 47.9.7 87.8-18.6 0 0-21.7 30.1-40.8 44.4a3.2 3.2 0 002.3 5.7c15.5-1.7 34.4-5.1 45.5-11.9l.5 12.2c.5 11.7 8.6 24.2 21.3 36.7l-107 561a248.9 248.9 0 0012.6 117.5l-.6.3c-38.1 9.1-130.4 43.4-184.5 78.3-26.5 17.1-10.1 55.9 23.2 55.3l266.9-5.2q6.8 4.1 13.8 7.9l.2 3.4c.4 23.3-6.7 42.4-29.9 43.6-15.6.8-28.2 9.9-30.6 21.1-4.7 21.5 5.8 38.9 27.2 40.4l84.3 5c26.4 1.6 51.9-11.3 65.3-34.1a71.4 71.4 0 008.8-23.9l5-26.6h533.6l3.5 20.7a71.6 71.6 0 0043.1 54.3 53.5 53.5 0 0022.3 4l91.8-3c22-2.2 30.1-15.7 27.9-36.9-.7-6.9-6.2-24.5-24.5-25.5-15.8-.9-25.2-8.6-28.1-21.9a246.8 246.8 0 0065.4-28.1l261.5 5.1c33.2.3 49.2-37.8 23.1-55.6z" fill="none"/><path d="m1620.8 858.1 131.2-97.4c22.5-16.7 53.7 3.9 47 31.2l-50 205.4-1.3 7.1m-550.9-127.9-131-81.2c-23.3-14.4-52.1 7.3-44.7 33.7l57.5 202.6 4.2 14.9" fill="none" stroke="#31323d" stroke-linecap="round" stroke-miterlimit="10" stroke-width="12.5"/><path d="m1714.5 2282.4h-533.6" fill="#fff" stroke="#31323d" stroke-linecap="round" stroke-miterlimit="10" stroke-width="12.5"/><path d="m1851.5 1395.4 174.8 568.6c39 137.9-45.2 275-175.8 309.9m-799.8-20.2c-89.2-47.1-145.7-146.2-131.5-254.1l106.3-558.8" fill="none" stroke="#31323d" stroke-linecap="round" stroke-miterlimit="10" stroke-width="12.5"/><path d="m1228.6 2040.8c-1.7 15.3-3.8 30.4-6 45.6l-3.5 22.7-3.8 22.6c-2.6 15.1-5.4 30.1-8.1 45.2l-8.3 45.1-16.6 90.3a76.3 76.3 0 01-3.5 12.1 77.5 77.5 0 01-5.4 11.4 75.5 75.5 0 01-16 19.4 78.7 78.7 0 01-45.9 18.8l-6.3.2h-6.1l-11.5-.7-22.9-1.3-45.8-2.8h-4.7l-1.8-.3a44.1 44.1 0 01-6.7-1.7 35.7 35.7 0 01-12.3-7.3 34.7 34.7 0 01-8.3-11.7 40.4 40.4 0 01-3.1-13.5 50.7 50.7 0 011-13.2l.2-.8v-1.7l.3-1.1a26.9 26.9 0 011.5-3.6 30.2 30.2 0 014.1-6.2 37.9 37.9 0 0111-8.8 45.9 45.9 0 0112.7-4.5 49 49 0 016.6-.9l2.7-.2 2.1-.3a22 22 0 004.3-1.2 18.5 18.5 0 003.8-1.9c4.6-3 7.7-8.4 9.4-14.8a70.5 70.5 0 001.8-20.8l-.9-22.9-1.9-45.9c-.6-15.3-1.3-30.6-1.8-45.9v.5c-.6-5-1.3-9.9-2-14.9-.4-2.5-.8-4.9-1.2-7.4s-.9-4.9-1.4-7.3-1-4.9-1.6-7.3l-1.8-7.2q-1.9-7.2-4.4-14.2c-.8-2.3-1.7-4.6-2.6-6.9s-1.8-4.6-2.9-6.8l-1.5-3.4-1.6-3.3-1.7-3.3-1.8-3.3-1.8-3.2-1.9-3.2-4-6.3c-1.4-2.1-2.8-4.1-4.3-6.2l-2.2-3-2.3-3a2.2 2.2 0 013.4-2.9l5.4 5.6q2.6 2.9 5.1 5.9c1.7 2 3.3 4 4.8 6.1l2.3 3.2 2.2 3.2c1.5 2.2 2.9 4.3 4.2 6.6l2 3.4 1.9 3.4q1.9 3.4 3.5 7c1.1 2.4 2.2 4.7 3.2 7.2q3 7.2 5.4 14.7c1.6 5 3 10 4.2 15q.9 3.8 1.7 7.6c.5 2.5 1.1 5.1 1.5 7.6.9 5.1 1.7 10.2 2.4 15.3v.5c.9 15.3 1.6 30.6 2.4 45.8l2.3 45.8 1.1 22.9a94.4 94.4 0 01-.1 12.3 71.8 71.8 0 01-1.9 12.5 54.5 54.5 0 01-2 6.3 42.8 42.8 0 01-3.1 6.2 33.3 33.3 0 01-9.8 10.4 35.1 35.1 0 01-13.2 5.3l-3.5.5-3 .2a35 35 0 00-4.7.6 31.9 31.9 0 00-8.8 3.2 23.9 23.9 0 00-6.9 5.5 16.1 16.1 0 00-2.2 3.3 13 13 0 00-1.2 3.7 36.6 36.6 0 00-.7 9.6 26.2 26.2 0 002 8.7 20.4 20.4 0 004.9 6.9 21.4 21.4 0 007.3 4.3 30.1 30.1 0 004.4 1.1l1 .2h3.9l45.8 2.7 22.9 1.4 11.5.7h10.5a64.5 64.5 0 0037.6-15.2 61.4 61.4 0 0013.1-15.7 65 65 0 007.4-19.2l17.4-90.1 8.7-45.1c2.9-15 5.8-30 8.8-45l4.7-22.5 5-22.4c3.4-14.9 7-29.8 11-44.6a2.2 2.2 0 014.9.6z" fill="#31323d"/><path d="m1095.2 2319.6h-.5l-1.7.2a18.6 18.6 0 00-5.8 2 22.5 22.5 0 00-6.7 5.5 30.2 30.2 0 00-2.9 4 38.9 38.9 0 00-2.4 4.6l-1.5 3.6-.4 1.3c-.5 1.7-.9 3.4-1.3 5l-.5 2.4c-.2.8-.3 1.6-.4 2.4s-.4 3-.6 4.4-.2 2.6-.3 3.7-.1 2.1-.2 2.9v2.7a6.3 6.3 0 11-12.5-.6 6.9 6.9 0 01.1-.8l.5-2.7c.2-.9.3-1.9.6-3.1s.5-2.6.9-4.1.8-3.1 1.3-4.8l.8-2.6.9-2.7c.7-1.8 1.4-3.7 2.3-5.5l.6-1.4 1.4-2.8.8-1.4a46.9 46.9 0 013.6-5.2 37.5 37.5 0 014.2-4.5 28.8 28.8 0 019.4-5.8 23.9 23.9 0 017.7-1.5h3.1a2.2 2.2 0 11-.5 4.8zm-42.5-4.7h-.6l-1.6.4-2.5.9-.7.3-.8.4-1.6.9-1.7 1.1-1.7 1.3-.9.7-.8.8-1.6 1.7-1.5 2-.7 1-.6 1.1-1.3 2.2-1.1 2.4c-.3.8-.7 1.6-1 2.4l-.8 2.5-.8 2.4-.6 2.5a42.3 42.3 0 00-1 4.7l-.6 4.3a35.4 35.4 0 00-.3 3.7l-.2 2.8-.2 2.5v.4a6.3 6.3 0 11-12.5-.8 6.9 6.9 0 01.1-.8l.5-2.7.6-3.1c.3-1.2.4-2.5.9-4l1.3-4.7a51.3 51.3 0 011.8-5.2l1-2.7 2.6-5.4c.5-.9 1.1-1.8 1.6-2.7l1.7-2.6 1.9-2.4.9-1.2 3.2-3.2 3.3-2.7 1.2-.7 2.2-1.4 2.2-1.1 2.1-.8 1-.4 1-.3a26.5 26.5 0 013.2-.7l2.2-.2h.8a2.2 2.2 0 11.4 4.4zm621-289.7 2.2 9.4c1.4 6.1 3.4 15.1 5.8 26.6 1.2 5.7 2.5 12.1 3.9 19l4.4 22.5 4.8 25.6 5 28.4 23.3 135.3c1.1 6.1 2 12.8 3.6 17.8a63.3 63.3 0 007.2 15.7 65.1 65.1 0 0025.9 23.4l4.1 1.9 1.1.4 1 .4 2 .7a45.4 45.4 0 008.4 1.7l4.3.3h4.6l10-.3 40.1-1.4 39.4-1.2 2.5-.3 1.2-.2.9-.2 1.9-.4 1.9-.6a21.7 21.7 0 006.5-3.5 17 17 0 004.3-5.4c.2-.6.6-1.1.7-1.7l.6-1.8a30.4 30.4 0 00.8-3.9 37.8 37.8 0 00.4-4.1v-2.1s0-1.4-.1-2.2l-.2-2.2v-.3a.3.3 0 110-.1v-1.6l-.2-.8-.2-.9c-.1-.6-.4-1.3-.6-1.9-1.7-5-4.7-9.3-8.4-11.7a17.3 17.3 0 00-6.4-2.3l-1.8-.2-2.6-.2h-1.2l-1.5-.2-2.9-.5a39.5 39.5 0 01-10.9-4.2 30.1 30.1 0 01-9.1-8 34 34 0 01-5.3-10.4 47.2 47.2 0 01-1.9-10.7c-.1-.9-.1-1.7-.1-2.6v-7.2l.2-9.1.8-35.4.2-8.6v-4.6l.6-8.4c.1-1.4.2-2.7.4-4.2l1-8.4a250.4 250.4 0 016.4-31.5 277 277 0 019.1-28l2.7-6.4c.9-2.1 1.7-4.2 2.7-6.2l2.8-5.9c.9-1.9 1.8-3.9 2.8-5.7l2.9-5.4 1.4-2.6 1.5-2.5 2.9-4.9c.9-1.6 1.8-3.2 2.8-4.7l5.6-8.7 5.4-7.7 2.6-3.5 2.5-3.2c1.6-2.1 3.1-4.1 4.6-5.8l4.1-4.9 3.5-4 6.6-7.1a2.2 2.2 0 013.4 2.8l-5.6 7.8c-3.6 5.1-8.8 12.6-14.9 22.5l-4.7 7.8-4.8 8.8c-.9 1.5-1.7 3.1-2.5 4.7l-2.5 4.9-1.3 2.5-1.2 2.6-2.5 5.4a290.9 290.9 0 00-17.7 50.6l-.9 3.6-.8 3.6-1.5 7.4-.4 1.9-.9 5.7-.6 3.9-.3 1.9-.2 1.9-.9 7.8c-.2 1.3-.2 2.7-.3 4.1l-.6 8.4v12.5l-.5 35.4v15.8s0 1.4.1 2a33.7 33.7 0 001.4 7.5 20.3 20.3 0 003.2 6.2c2.7 3.6 6.9 5.8 12 6.9l1.8.3.9.2h1.2l2.2.2 3 .3a31.3 31.3 0 0111.7 4.2 31.8 31.8 0 019 8.5 40.3 40.3 0 015.4 10.5c.3.9.6 1.8.8 2.8l.4 1.4.3 1.6v2.9l.2 2.7c.1.9.1 1.8.1 2.8s.1 1.8 0 2.8a52 52 0 01-.5 5.7 44.4 44.4 0 01-1.2 5.8l-1 2.9c-.3 1-.8 1.9-1.3 2.9a31.3 31.3 0 01-7.9 10.1 35.8 35.8 0 01-10.9 6l-2.8.9-3 .7-1.5.3-1.3.2-2.5.3h-5.7l-15 .6-20.1.7-40.1 1.3-10 .3h-5.4l-5.6-.4a59.7 59.7 0 01-11-2.3l-2.7-.9-1.4-.5-1.2-.5-4.9-2.3a79.2 79.2 0 01-31.4-28.6 77.2 77.2 0 01-8.7-19.2l-.7-2.6-.3-1.3c-.1-.4-.2-.9-.3-1.3l-.5-2.3-.2-1.2v-1.4l-1.5-9.3-22-135.6-4.5-28.5-3.8-25.7-3.2-22.7c-1-7-1.8-13.4-2.5-19.3-1.5-11.6-2.5-20.8-3.2-27.1l-1-9.6a2.2 2.2 0 013.8-.6z" fill="#31323d"/><path d="m1783.2 2307.4h3.2a34.8 34.8 0 018 1.7 33.5 33.5 0 015.1 2.1 34.2 34.2 0 015.3 3.3 37.9 37.9 0 015 4.5c.7.9 1.5 1.7 2.2 2.7l1 1.4 1 1.5a46.8 46.8 0 013.3 6.1 56.5 56.5 0 012.4 6.2c.4 1 .6 2 .9 3s.5 2 .7 2.9l.6 2.8.4 2.6c.3 1.7.4 3.2.6 4.6s.3 2.5.3 3.5l.2 3.1a6.3 6.3 0 01-12.5.8 6.4 6.4 0 010-.7v-.3l.2-2.7c.1-.9.1-1.9.1-3.1s.1-2.6 0-4v-2.3l-.2-2.4c-.1-.8-.2-1.7-.3-2.5s-.2-1.8-.4-2.6a47.1 47.1 0 00-1.3-5.3 38.1 38.1 0 00-2.1-5.2l-.6-1.3-.7-1.2c-.4-.8-1-1.6-1.5-2.3a30.5 30.5 0 00-3.5-4.1 29.3 29.3 0 00-8-5.5 29.5 29.5 0 00-6.6-2.2l-1.9-.3h-.7a2.2 2.2 0 01-.2-4.8zm50.6-3.2h3.2a34.8 34.8 0 018 1.7 33.5 33.5 0 015.1 2.1 34.2 34.2 0 015.3 3.3 37.9 37.9 0 015 4.5c.7.9 1.5 1.7 2.2 2.7l1 1.4 1 1.5a46.8 46.8 0 013.3 6.1 56.6 56.6 0 012.4 6.2c.4 1 .6 2 .9 3s.5 2 .7 2.9l.6 2.8.4 2.6c.3 1.7.4 3.2.6 4.6s.3 2.5.3 3.5l.2 3.1a6.3 6.3 0 11-12.5.1v-.3l.2-2.7c.1-.9.1-1.9.1-3.1s.1-2.6 0-4v-2.3l-.2-2.4c-.1-.8-.2-1.7-.3-2.5s-.2-1.8-.4-2.6a47.1 47.1 0 00-1.3-5.3 38 38 0 00-2.1-5.2l-.6-1.3-.7-1.2c-.4-.8-1-1.6-1.5-2.3a30.5 30.5 0 00-3.5-4.1 29.3 29.3 0 00-8-5.5 29.5 29.5 0 00-6.6-2.2l-1.9-.3h-.7a2.2 2.2 0 01-.2-4.8z" fill="#31323d"/><path d="m931.3 2117.4c-38.1 9.1-130.4 43.4-184.5 78.3-26.5 17.1-10.1 55.9 23.2 55.3l280.4-5.5" fill="none" stroke="#31323d" stroke-linecap="round" stroke-miterlimit="10" stroke-width="12.5"/><path d="m840.5 2200.1-.7.2-2 .6-3.1 1-4 1.5-4.5 2.1a49.4 49.4 0 00-4.7 2.8 36 36 0 00-4.4 3.5 26.3 26.3 0 00-3.7 4.2l-.8 1.1-.7 1.2a21.4 21.4 0 00-1.1 2.4c-.2.4-.3.8-.4 1.2a8.9 8.9 0 00-.3 1.2 18.1 18.1 0 00-.4 2.4v3.6c0 .4.1.8.1 1.2a15.6 15.6 0 00.3 2.2c.2.7.3 1.4.5 2.1a36.6 36.6 0 001.2 3.6 29.8 29.8 0 001.2 2.8l1.2 2.4.2.3a6.3 6.3 0 01-11.3 5.5l-.3-.7-1.1-3.1c-.4-1-.7-2.2-1.1-3.7a48 48 0 01-1-4.9c-.1-.9-.2-1.9-.3-2.9a24.9 24.9 0 01-.1-3.2v-1.7l.2-1.7c.1-.6.1-1.2.2-1.7l.4-1.8a27.7 27.7 0 011-3.5 16.1 16.1 0 01.7-1.7l.8-1.7a30.5 30.5 0 012-3.2l1.1-1.5 1.2-1.4a34.5 34.5 0 015.4-4.9 43.4 43.4 0 015.8-3.6 56.1 56.1 0 015.7-2.6l5.2-1.8 4.4-1.2 3.5-.7 2.3-.3h.8a2.2 2.2 0 01.8 4.4h-.1zm-47.5 2h-.6l-1.7.5a38.1 38.1 0 00-5.9 2.5 32.6 32.6 0 00-3.6 2.2 29.2 29.2 0 00-3.5 2.9 23.5 23.5 0 00-2.9 3.7 18.7 18.7 0 00-2 4.2 21.2 21.2 0 00-.6 2.2c-.1.8-.3 1.5-.3 2.3a24.7 24.7 0 00.1 4.6 34.5 34.5 0 00.8 4.3c.4 1.4.7 2.7 1.2 3.9l.6 1.7.7 1.5.6 1.3.6 1.1 1.1 2.1v.2a6.3 6.3 0 01-11.2 5.6l-.3-.8-.9-2.7-.5-1.4-.5-1.7-.5-1.9c-.2-.7-.3-1.4-.5-2.2s-.6-3.3-.8-5.1a44.7 44.7 0 01-.2-5.9 34.2 34.2 0 01.8-6.3c.2-1.1.6-2.1.9-3.2a29.7 29.7 0 011.3-3.1 26.9 26.9 0 013.6-5.6 31 31 0 014.5-4.3 35.8 35.8 0 014.8-3 38.6 38.6 0 014.6-2 43.3 43.3 0 017.1-2l2-.3h.8a2.2 2.2 0 01.8 4.4h-.4z" fill="#31323d"/><path d="m2020.7 2120.2c47.5 13.8 136.8 46.1 179.8 75.5 26.1 17.8 10.1 55.9-23.2 55.3l-261.6-5.1" fill="none" stroke="#31323d" stroke-linecap="round" stroke-miterlimit="10" stroke-width="12.5"/><path d="m2107.6 2193.7h.8l2.3.4 3.5.8 4.5 1.4 5.2 2a58.4 58.4 0 015.6 2.8 45.8 45.8 0 015.7 3.8 36.7 36.7 0 015.3 5.1l1.2 1.5 1.1 1.6a31 31 0 011.9 3.3c.3.6.5 1.2.8 1.7s.5 1.2.7 1.8l.9 2.7.2.9a26.4 26.4 0 01.6 3.5 25.1 25.1 0 01.2 3.4 42.1 42.1 0 01-.4 6.2 50.3 50.3 0 01-1 5c-.4 1.5-.7 2.8-1.1 3.7l-1.1 3.2a6.3 6.3 0 01-11.8-4.1l.3-.7.2-.3 1.2-2.4c.4-.8.7-1.7 1.2-2.8s.8-2.3 1.2-3.7a31.5 31.5 0 00.8-4.4 15.7 15.7 0 00.1-2.4 16.7 16.7 0 00-.1-2.5v-1.2l-.2-1.3c-.1-.4-.2-.8-.4-1.3a12.8 12.8 0 00-.4-1.3 21.8 21.8 0 00-1.1-2.5l-.7-1.2-.8-1.2a28.5 28.5 0 00-3.7-4.4 38.4 38.4 0 00-4.4-3.8 51.5 51.5 0 00-4.7-3l-4.5-2.3a66.6 66.6 0 00-7.1-2.9l-2-.6-.7-.2h-.1a2.2 2.2 0 01.8-4.3zm47.5 2h.8l2.1.4a44.7 44.7 0 017.1 2.4 40.4 40.4 0 014.5 2.3 38.2 38.2 0 014.7 3.3 33.1 33.1 0 014.4 4.5 30 30 0 014.8 8.8c.4 1.1.6 2.2.9 3.2s.4 2.2.6 3.3.3 2.2.2 3.2.1 2.1 0 3.1l-.2 2.9c-.3 1.8-.5 3.6-.8 5.2l-.5 2.3-.6 2-.5 1.8-.5 1.4-.9 2.7a6.3 6.3 0 01-11.8-4.1l.3-.7v-.3l1.7-3.4.6-1.4.7-1.6.6-1.7c.5-1.2.8-2.6 1.2-4l.4-2.2c.2-.7.2-1.5.3-2.3s.1-1.5.1-2.3-.1-1.6-.1-2.4-.2-1.6-.3-2.4a20.2 20.2 0 00-.6-2.3 20.6 20.6 0 00-2-4.4 25.7 25.7 0 00-2.9-3.9 31.5 31.5 0 00-3.5-3.2 34.4 34.4 0 00-3.6-2.4 39.4 39.4 0 00-5.9-2.9l-1.7-.6-.6-.2h-.1a2.2 2.2 0 011.1-4.1zm-864.3-1331.1a52.1 52.1 0 00-2.3-5.3c-.9-1.8-1.8-3.5-2.9-5.2a80.7 80.7 0 00-6.9-9.6 79.4 79.4 0 00-17.5-15.6 81.2 81.2 0 00-21-9.8 90 90 0 00-11.3-2.7l-5.8-.8-5.8-.5h-.1a6.2 6.2 0 01-2-11.8l3.6-1.6 3.5-1.5 7.1-2.7q7.1-2.5 14.5-4.5a152.8 152.8 0 0130.1-5 94.5 94.5 0 0131.1 3 69.1 69.1 0 017.6 2.6 63.5 63.5 0 0114.1 8 68.6 68.6 0 016.2 5.3l-10.4 2.9.5-2.4.5-2.5c.3-1.7.6-3.4.8-5.1.5-3.4.8-6.9 1.1-10.4a117.4 117.4 0 00-.4-20.6 78.3 78.3 0 00-4.6-19.6 52.4 52.4 0 00-10-16.5l-.2-.3a6.2 6.2 0 015.5-10.2l3.9.6 3.7.7 7.4 1.6q7.3 1.8 14.5 4.2a129.1 129.1 0 0127.5 12.9c8.6 5.5 16.6 12.5 22.6 21.2a64.3 64.3 0 014 6.8 59.9 59.9 0 013.1 7.3 59.1 59.1 0 012.1 7.6 65.8 65.8 0 011 7.8l-8.6-1.4c1.3-3.2 2.7-6.2 4.1-9.2s2.9-6 4.5-8.9q4.6-8.8 9.9-17.4c3.5-5.7 7.3-11.2 11.3-16.6a166.5 166.5 0 0113.1-15.5c2.3-2.5 4.8-4.8 7.4-7.1a99.5 99.5 0 018.1-6.5 87 87 0 018.9-5.6 67.5 67.5 0 019.7-4.4 60.2 60.2 0 0110.5-2.7 53.1 53.1 0 0111-.6 55.9 55.9 0 0110.9 1.5 67.3 67.3 0 0110.3 3.5 6.1 6.1 0 012.4 9.5v.2l-2 2.6-2 2.8-3.9 5.7q-3.8 5.7-7.1 11.7a128.7 128.7 0 00-10.7 24.8c-2.6 8.5-3.8 17.2-2.8 25.4a36.4 36.4 0 003.5 11.6 35.4 35.4 0 003.1 5.1 41.8 41.8 0 004 4.6l-8.3-.3 2.9-2.3 2.9-2.1 5.8-4.1q5.9-4 12.1-7.5a141.4 141.4 0 0126.3-11.8 90 90 0 0114.4-3.4 64.6 64.6 0 0115.3-.5 49 49 0 0115.3 3.9 46.2 46.2 0 017 3.8 51.8 51.8 0 016.2 4.9 6.2 6.2 0 01-1.7 10.2h-.4l-2.4 1-2.5 1.1-5 2.4q-5 2.5-9.7 5.5a116.9 116.9 0 00-17.8 13.2 68.7 68.7 0 00-13.8 16.9 42.5 42.5 0 00-5.7 20.7 2.5 2.5 0 01-5 .2 49.6 49.6 0 01-.1-6.1 48 48 0 012.3-12.1 52.5 52.5 0 012.2-5.7 76.4 76.4 0 0113.8-20 126.5 126.5 0 0118.1-15.9q4.8-3.5 10-6.7l5.2-3.1 2.7-1.5 2.8-1.4-1.8 10.3a39.4 39.4 0 00-4.6-3.6 33.7 33.7 0 00-5.1-2.8 36.5 36.5 0 00-11.4-2.9c-8-.7-16.5.7-24.7 3.4a129.1 129.1 0 00-24 10.8q-5.8 3.3-11.3 7l-5.5 3.8-2.7 2-2.5 2h-.1a6.2 6.2 0 01-8.3-.4 54.1 54.1 0 01-5.4-6.1 47.9 47.9 0 01-4.3-7 48.9 48.9 0 01-4.7-15.5 63.6 63.6 0 010-15.7 88.7 88.7 0 013.2-14.9 141 141 0 0111.8-27.3q3.6-6.4 7.6-12.6l4.1-6.1 2.2-3 2.3-3 2.3 9.6a55.1 55.1 0 00-8.2-3 43.7 43.7 0 00-8.5-1.4 41.1 41.1 0 00-8.6.3 48.4 48.4 0 00-8.5 2 56 56 0 00-8.2 3.5 75.8 75.8 0 00-7.8 4.7 88.6 88.6 0 00-7.3 5.6c-2.4 2-4.7 4.1-6.9 6.3a156 156 0 00-12.6 14.2c-3.9 5-7.6 10.2-11.1 15.6s-6.8 10.9-9.9 16.5q-2.3 4.2-4.5 8.5c-1.4 2.8-2.9 5.8-4.1 8.6a4.5 4.5 0 01-8.6-1.4 56.8 56.8 0 00-1.1-6.6 49.8 49.8 0 00-1.9-6.4 50.4 50.4 0 00-2.8-6 54.6 54.6 0 00-3.6-5.6 67.5 67.5 0 00-20.2-17.7 118 118 0 00-25.5-11c-4.5-1.4-9-2.5-13.6-3.5l-6.9-1.3-3.4-.5-3.3-.4 5.3-10.4a64.9 64.9 0 0112.5 20.5 90.7 90.7 0 015.4 22.7 129.8 129.8 0 01.4 22.9q-.4 5.7-1.2 11.3-.4 2.8-.9 5.6l-.5 2.8c-.2 1-.4 1.8-.7 2.9a6.2 6.2 0 01-10.3 3h-.1a56.2 56.2 0 00-4.9-4.2 51 51 0 00-11.1-6.4 56.7 56.7 0 00-6.3-2.1 82.2 82.2 0 00-27-2.5 140.3 140.3 0 00-27.6 4.6q-6.8 1.8-13.5 4.2l-6.6 2.5-3.2 1.3-3.1 1.4-2.1-11.9 6.4 1 6.4 1.4a101.1 101.1 0 0112.4 3.9 90.9 90.9 0 0122.6 12.7 87.2 87.2 0 0124.4 29.5q1.4 2.9 2.7 5.8a56.2 56.2 0 012.2 6.1 2.5 2.5 0 01-4.8 1.5z" fill="#31323d"/><path d="m1784.2 1453.3 5.7-5.2 2.9-2.6 8.4-7.8 5.5-5.3 2.8-2.6 2.8-2.7 5.5-5.4 10.8-10.8 10.6-11 5.3-5.6 5.2-5.6 5.2-5.7 5.1-5.7 5-5.7 4.9-5.7a6.3 6.3 0 018.1-1.3 58.8 58.8 0 0014.9 6.7 75.6 75.6 0 0016.5 2.8c11.3.7 22.9-.6 34.2-3.1a217.4 217.4 0 0033.6-10.5q8.2-3.3 16.3-7.1l8-3.9 3.9-2 3-1.5h.2l-.2.2-.3.2a3.7 3.7 0 00-1.2 2.4 3.4 3.4 0 00.6 2.2 3.7 3.7 0 002.1 1.5h-5.6l-4.9-.3a179.9 179.9 0 01-18.6-2.7c-6.1-1.2-12.2-2.7-18.1-4.3s-11.9-3.4-17.7-5.4c-11.7-3.9-23.1-8.4-34.3-13.3q-8.4-3.7-16.7-7.6c-5.6-2.7-11-5.3-16.5-8.3a6.9 6.9 0 015-12.8h.1c13.3 3.5 26.9 6 40.3 6.3a91 91 0 0019.6-1.6 51.3 51.3 0 0017.3-6.6 32.7 32.7 0 006.7-5.6l.7-.8-.3.3-.3.7v.4a3.9 3.9 0 00.4 3.2 4 4 0 002.8 1.8h-2l-5.8-.6-5.6-.9c-3.7-.7-7.4-1.7-11-2.8a136.4 136.4 0 01-39.8-20.1 185.9 185.9 0 01-32.2-30.1 252.5 252.5 0 01-25.2-35.7c-3.7-6.3-7.1-12.6-10.4-19.1-1.6-3.2-3.3-6.5-4.7-9.8l-2.2-4.9-1.1-2.5-1.1-2.4c-5.7-12.8-11.6-25.6-18-38s-13.1-25-19.8-37.4-13.6-24.7-20.7-36.9c-14.1-24.4-28.8-48.5-44.3-71.9q-11.7-17.6-24.1-34.5c-8.4-11.2-17.1-22.3-26.2-32.7a235.8 235.8 0 00-30-28.4q-8.1-6.4-16.7-12.1l-17.7-11.6.4.3-7.5-3.9-7.6-3.7-7.8-3.4-3.9-1.6-4-1.5-8-2.8-8.1-2.5-4.1-1.1-2-.6-.7-.2-.5-.2-1-.3-8.3-2.5a6.3 6.3 0 013.5-12l8.4 2.4 1.9.5 2.2.6 4.3 1.2 8.6 2.6 8.5 2.9 8.4 3.2 8.2 3.5 8.1 3.8 8 4.1.4.2h.1l17.9 11.5q9.1 6 17.7 12.7a249.2 249.2 0 0131.8 29.8c9.6 10.8 18.5 22 27.1 33.4s16.8 23.1 24.7 35 15.6 23.8 23.1 36 14.7 24.4 21.9 36.7 14.1 24.7 20.9 37.2 13.5 25 20 37.7 12.6 25.7 18.4 38.8c2.9 6.5 5.7 12.7 8.9 18.9s6.4 12.3 9.9 18.2a238.3 238.3 0 0023.8 33.6 171.7 171.7 0 0029.7 27.8 136.2 136.2 0 0017.2 10.6 116.6 116.6 0 0018.5 7.6c3.2 1 6.4 1.8 9.6 2.4l4.8.8 4.7.5h3.3a10.1 10.1 0 014 1.6 10.3 10.3 0 013 3.1 10.5 10.5 0 011.5 4 10.4 10.4 0 01-.3 4.3l-.4 1-.6 1.3-.4.6h-1.1l-.4.5-1.1 1.2a46.7 46.7 0 01-9.6 8 65.2 65.2 0 01-22.1 8.5 104.9 104.9 0 01-22.7 1.8c-15-.4-29.5-3.1-43.5-6.8l5.1-12.8c5.1 2.7 10.5 5.4 15.9 8s10.8 5.1 16.3 7.4c10.9 4.8 22 9.2 33.2 13q8.4 2.9 16.9 5.3c5.7 1.6 11.4 3 17.1 4.2a166.6 166.6 0 0017.2 2.6l4.2.3h6.4l1.7.2a9.7 9.7 0 015.8 4 9.9 9.9 0 011.7 6.5 9.6 9.6 0 01-3.2 6.3l-.7.6-.5.3-.3.2-.5.3h-.3l-1 .5-2.1 1.1-4.1 2.1-8.3 4q-8.4 3.9-17 7.3a230.3 230.3 0 01-35.6 10.9c-12.2 2.6-24.9 4.1-37.8 3.2a88.2 88.2 0 01-19.2-3.4 70.9 70.9 0 01-18-8.2l8.2-1.3-5.2 5.9-5.2 5.8c-3.5 3.8-7.1 7.6-10.7 11.3l-5.5 5.5-5.6 5.5-5.6 5.4-5.7 5.3c-3.8 3.5-7.7 6.9-11.6 10.3l-6 5-6 4.9-6.1 4.8-6.2 4.7-3.1 2.3-9.6 6.6a2.5 2.5 0 01-3.4-3.4zm-703.1 27.7-6.9-3.8-6.8-3.9q-6.8-4-13.5-8.2a247.5 247.5 0 01-25.7-18.7 143.5 143.5 0 01-11.8-11 87 87 0 01-10.3-13 47.5 47.5 0 01-6.8-16.3c-.1-.8-.3-1.5-.4-2.3s-.1-.8-.1-1.2v-1.1l-.9-11.7 9.5 5a57 57 0 01-7.3 3.7q-3.7 1.6-7.4 2.7c-2.5.8-4.9 1.4-7.4 2.1l-7.3 1.7c-4.9.9-9.8 1.7-14.8 2.3l-3.7.4h-2.2a9.3 9.3 0 01-2.7-.7 9.4 9.4 0 01-4.1-3.4 9.5 9.5 0 01-1.6-4.9 9.3 9.3 0 011.4-5.3 9.6 9.6 0 011.7-2l.5-.4h.2l.4-.3 1.4-1.1 5.1-4.4 5-4.8c3.3-3.3 6.5-6.8 9.6-10.3s6.2-7.2 9.2-10.9l4.4-5.6 4.2-5.6 7.8 9.3-6.1 2.8c-2 1-4.1 1.8-6.2 2.7l-3.1 1.3-6.4 2.4-3.2 1.1-6.4 2.1-6.5 1.8-6.6 1.6-6.6 1.4-3.3.6-3.4.5-6.8.8c-4.5.4-9.1.7-13.6.7h-6.9l-3.4-.2h-3.3l-.7-.2-.6-.2a9.3 9.3 0 01-4.1-2.8 9.5 9.5 0 01-1.8-9.1 9.3 9.3 0 012.7-4.1 9.7 9.7 0 012-1.3l.7-.3.4-.2 3-1.2.8-.3.7-.3c3.6-1.7 7.3-3.7 10.9-5.7s7.1-4.4 10.6-6.8 6.8-4.9 10.1-7.6 6.5-5.4 9.7-8.3c6.3-5.7 12.3-11.7 18.1-18q4.3-4.7 8.4-9.6l4-4.9 3.8-5 9.5 8.1a95.4 95.4 0 01-43.8 25.4c-16.5 4.4-33.7 4.5-50.1 2.2q-6.2-.9-12.2-2.2l-6-1.4-4.5-1.2h-1.1a9.3 9.3 0 01-2.2-1.1 9.4 9.4 0 011.8-16.4l1.1-.4 1.4-.5 2.7-.9q5.5-1.9 10.9-4.1a254.8 254.8 0 0078.4-50.1 244.7 244.7 0 0030.8-35.1 251.2 251.2 0 0023.7-40.3c1.6-3.5 3.2-7.1 4.7-10.7l2.2-5.4.5-1.4.3-.7.2-.5v-.2l.2-.3 1.2-2.7q4.7-10.8 8.7-21.9l1.9-5.6 6-17.1q4.1-11.3 8.3-22.6 8.5-22.5 18-44.7c6.3-14.8 12.9-29.5 20-43.9s14.7-28.8 23-42.7 17.4-27.5 28.2-40l4.1-4.6 4.2-4.5 8.3-8.6 1-1.1.3-.3h.1l.8-.8 4.4-4.2 2.3-2.1 4.7-4.1 4.7-3.9a248.4 248.4 0 0186.7-45.2 6.2 6.2 0 013.5 12 235.9 235.9 0 00-82.3 42.9l-4.5 3.7-6.6 5.7-4.4 4.2-.8.8-1 1.1-8.3 8.6-4 4.2-3.8 4.3c-10 11.8-18.8 24.8-26.9 38.3s-15.5 27.5-22.5 41.7-13.5 28.7-19.8 43.3-12.1 29.4-17.8 44.3q-4.2 11.2-8.3 22.4l-4 11.3-1.9 5.6-2 5.7q-4.1 11.5-9 22.7l-1.2 2.8-.2.3v.2h.1l-.9 2.1-2.3 5.7c-1.6 3.8-3.2 7.5-5 11.2a263.6 263.6 0 01-24.8 42.3 257.2 257.2 0 01-32.4 36.9 267.3 267.3 0 01-82.3 52.6q-5.7 2.3-11.5 4.3l-2.9 1-1.4.5a1 1 0 11.3-.3 3.3 3.3 0 001-1.2 3 3 0 000-2.7 3.2 3.2 0 00-1.1-1.2l-.8-.4h.3l1.4.4 2.8.7 5.6 1.3q5.7 1.2 11.3 2.1c15.2 2.2 30.6 2 45.1-1.9a82.9 82.9 0 0038.2-22.1 6.2 6.2 0 019.5 8.1l-4.2 5.4-4.2 5.2q-4.3 5.1-8.8 10.1c-6 6.6-12.3 12.9-19 18.9q-5 4.5-10.2 8.7c-3.5 2.8-7.1 5.5-10.8 8.1s-7.5 5-11.4 7.4-7.9 4.4-12.2 6.4l-.8.4-.8.3-3 1.2-.4.2.6-.4a3.2 3.2 0 001-1.4 3 3 0 00.1-1.5 3.1 3.1 0 00-.7-1.4 3.3 3.3 0 00-1.4-1h1.7l3.1.2h6.2c4.2 0 8.3-.3 12.5-.7l6.2-.8 3.1-.5 3.1-.6 6.2-1.3 6.1-1.5 6.1-1.7 6-1.9 3-1 6-2.2 2.9-1.2c1.9-.8 3.9-1.6 5.8-2.5l5.8-2.7h.1a6.2 6.2 0 017.7 9.3l-4.5 6-4.6 5.8q-4.6 5.7-9.5 11.3c-3.3 3.7-6.6 7.3-10.2 10.9l-5.5 5.2c-1.9 1.7-3.8 3.3-5.9 5l-1.4 1.1-.4.3.6-.7a3.3 3.3 0 00.5-1.8 3 3 0 00-.5-1.5 3.1 3.1 0 00-1.4-1.1l-.9-.2h-.4l3.5-.4c4.7-.6 9.3-1.3 13.9-2.2l6.8-1.5 6.6-1.8c2.2-.7 4.2-1.4 6.3-2.3a44.8 44.8 0 005.6-2.8h.1a6.2 6.2 0 018.6 2.2 6.3 6.3 0 01.9 2.9v13.4s.1 1 .1 1.6a36.5 36.5 0 004.5 12.7 77 77 0 008.4 12 134.5 134.5 0 0010.4 11 239.8 239.8 0 0023.8 19.5q6.3 4.6 12.7 8.8l6.5 4.2 6.6 4.1a2.5 2.5 0 01-2.5 4.3z" fill="#31323d"/><circle transform="matrix(.99144 -.13053 .13053 .99144 -137.7 163)" cx="1168.9" cy="1127.6" r="129.7" fill="#fff" stroke="#31323d" stroke-linecap="round" stroke-miterlimit="10" stroke-width="10"/><circle transform="matrix(1 -.13 .13 1 -141 167)" cx="1197.6" cy="1154.6" r="72.4" fill="#b8bdff"/><circle transform="matrix(.99144 -.13053 .13053 .99144 -141.1 167.4)" cx="1200.6" cy="1155.6" r="53.4" fill="#31323d"/><circle transform="matrix(.99 -.14107 .14107 .99 -147.5 182.81)" cx="1218.8" cy="1109.9" r="29" fill="#fff"/><circle transform="matrix(.13053 -.99144 .99144 .13053 381.9 2638.3)" cx="1696" cy="1101.3" r="129.7" fill="#fff" stroke="#31323d" stroke-linecap="round" stroke-miterlimit="10" stroke-width="10"/><circle transform="matrix(.99144 -.13053 .13053 .99144 -134.4 229.1)" cx="1673.3" cy="1135.2" r="72.4" fill="#b8bdff"/><circle transform="matrix(.99144 -.13053 .13053 .99144 -134.5 229.5)" cx="1676.3" cy="1136.3" r="53.4" fill="#31323d"/><circle transform="matrix(.99144 -.13053 .13053 .99144 -128.3 231.5)" cx="1694.5" cy="1090.5" r="29" fill="#fff"/><path d="m1067.9 970c16.5-34 39.8-60 79.5-62 52.2-2.6 80.3 23.1 99.6 55.1m325.6 56.9a533.1 533.1 0 01197.7-52.5" fill="none" stroke="#31323d" stroke-linecap="round" stroke-miterlimit="10" stroke-width="30"/><path d="m1567.2 1358.5s-10.1 108-77.1 141c0 0 38.1-71 28.1-134" fill="#fff"/><path d="m1570.6 1358.8c-.3 3.6-.8 7.1-1.4 10.6s-1.2 6.9-1.9 10.4c-1.3 6.9-2.9 13.7-4.8 20.5a254.8 254.8 0 01-14.5 39.7 163.4 163.4 0 01-22.8 36 107.6 107.6 0 01-33.6 26.6 3.5 3.5 0 01-4.7-1.6 3.6 3.6 0 01.1-3.2c2.6-4.9 5-10.2 7.3-15.4s4.3-10.6 6.3-16a287.9 287.9 0 009.9-32.8 215 215 0 005.4-33.7 147.5 147.5 0 00-1.2-33.9 3.5 3.5 0 016.9-1.1 150.8 150.8 0 011.2 35.5 215.5 215.5 0 01-5.5 34.8 282.1 282.1 0 01-10.1 33.6c-2 5.5-4.2 11-6.5 16.3s-4.8 10.7-7.5 16l-4.7-4.8a98.4 98.4 0 0031.4-24.9 151.4 151.4 0 0021.7-34.4 227.4 227.4 0 0014.1-38.5c1.9-6.7 3.4-13.4 4.8-20.1.6-3.4 1.3-6.8 1.8-10.1s1-6.9 1.4-10.2a3.5 3.5 0 016.9.7z" fill="#31323d"/><path d="m1314.9 1352.2s11.3 114.3 78.3 147.3c0 0-38-73.7-28-136.7" fill="#fff"/><path d="m1318.4 1351.8c.8 7 1.9 14.1 3.3 21.1s3 13.9 4.9 20.8a265.8 265.8 0 0014.1 40.2 167.2 167.2 0 0021.9 36.1c8.9 10.9 19.7 20.2 32.1 26.3l-4.7 4.8c-2.7-5.5-5.1-10.9-7.4-16.4s-4.4-11-6.4-16.6a320.8 320.8 0 01-10.2-34.3 236.1 236.1 0 01-5.5-35.5 155.1 155.1 0 011.2-36 3.5 3.5 0 116.9 1.1 146.5 146.5 0 00-1.1 34.4 210.5 210.5 0 005.4 34.4 285.2 285.2 0 009.9 33.5c1.9 5.5 4 10.9 6.3 16.3s4.6 10.8 7.2 15.9a3.5 3.5 0 01-1.6 4.7 3.4 3.4 0 01-3.1 0c-13.5-6.6-25-16.7-34.4-28.1a169.2 169.2 0 01-22.8-37.7 263.1 263.1 0 01-14.6-41.3c-1.9-7-3.5-14.1-5-21.3s-2.6-14.3-3.4-21.7a3.6 3.6 0 013.1-3.9 3.6 3.6 0 013.9 3.1z" fill="#31323d"/><path d="m1398.5 1377s5.7 44.5 49.3 40.9 44.2-45.5 44.2-45.5a57.8 57.8 0 01-41.3 21c-27.4 1.6-52.2-16.4-52.2-16.4z" fill="#595959" opacity=".2"/><g fill="#31323d"><path d="m1371.7 1236.7a14.8 14.8 0 012.3-16.1c8.2-9.5 26.4-23.8 61.9-26.8s53.2 8 61.9 16.1a14.7 14.7 0 013.8 15.9 20.9 20.9 0 01-17.2 13.7c-10 1.1-23.6 5.1-31.4 18.3a12.4 12.4 0 01-1.7 2.3l-.3.3a17.6 17.6 0 01-25.3.6s-8.2-11.9-35.2-11.9a20.8 20.8 0 01-18.7-12.1z"/><path d="m1447.7 1265.2a8.9 8.9 0 00.2 1.5l.2 1.6c.1 1.1.3 2.1.5 3.2s.7 4.3 1.2 6.5c.9 4.3 2 8.5 3.2 12.7a140 140 0 009.6 24.5 101.7 101.7 0 0014.4 21.6 71.7 71.7 0 0020 15.9 72.6 72.6 0 0011.9 4.9 77.3 77.3 0 0012.7 2.6c2.2.3 4.4.4 6.6.5h6.6c2.2 0 4.4-.3 6.6-.5l3.3-.4 3.3-.5c17.7-2.9 34.7-9.6 50.9-17.8h.1a1.7 1.7 0 012.3.7 1.7 1.7 0 01-.7 2.3c-16 9.2-33 17-51.4 21.1l-3.4.7-3.5.6c-2.4.3-4.7.7-7.1.9l-7.1.4c-2.4-.1-4.8 0-7.2-.2a77.5 77.5 0 01-14.2-2.2 75.5 75.5 0 01-13.8-4.9 80.5 80.5 0 01-23.7-16.8 114.2 114.2 0 01-17.3-23.1 149.2 149.2 0 01-11.8-26.1c-1.6-4.5-3-9-4.2-13.6-.6-2.4-1.2-4.7-1.7-7s-.5-2.4-.7-3.6l-.4-1.8c-.1-.6-.2-1.1-.3-1.9a7.5 7.5 0 0114.9-2.1z"/><path d="m1300 1343.8c4.2 1.8 8.5 3.4 12.7 4.9s8.7 2.9 13.1 4.1a161 161 0 0026.5 5.1 105.8 105.8 0 0026.4-.4 62.5 62.5 0 0023.8-8.7 52.3 52.3 0 009.5-8 56.6 56.6 0 007.6-9.9 83.5 83.5 0 009.2-23.8 139.1 139.1 0 003.5-26c.2-4.4.3-8.8.2-13.3a29.3 29.3 0 01.4-6.6 21.5 21.5 0 011.8-6.8v-.3a5.5 5.5 0 017.3-2.7 4.9 4.9 0 012.6 2.5 29.1 29.1 0 012.8 14c-.2 4.8-.4 9.5-.8 14.3a154.1 154.1 0 01-5 28.3 98.5 98.5 0 01-4.9 13.8 79.4 79.4 0 01-7.1 13.1 75.1 75.1 0 01-9.6 11.5 58.7 58.7 0 01-12.2 8.9 69.4 69.4 0 01-28.1 8.5 108.5 108.5 0 01-28.5-1.4 163.3 163.3 0 01-27-7.5 181.3 181.3 0 01-25.4-11.5 1.4 1.4 0 01-.4-1.7 1.2 1.2 0 011.5-.5z"/><path d="m1494.5 1370.8a32.3 32.3 0 01-6.3 14 37.6 37.6 0 01-2.5 3.1 35.7 35.7 0 01-2.8 2.7 39.7 39.7 0 01-6.3 4.7 56.9 56.9 0 01-29.4 8.4 65.3 65.3 0 01-29.6-6.4 56.1 56.1 0 01-12.6-8.3 41.7 41.7 0 01-9.4-11.6 2.6 2.6 0 011-3.5 2.9 2.9 0 012.7.2h.1a80.7 80.7 0 0011.1 6.8 70.4 70.4 0 0011.8 4.6 75.8 75.8 0 0024.5 3.2 68.8 68.8 0 0023.7-5 45.5 45.5 0 0019.3-14.9h.1a2.6 2.6 0 013.6-.6 2.7 2.7 0 011 2.6z"/><path d="m1323.7 1408.6-2.8.2h-8.1a92.8 92.8 0 01-10.6-1.1 109.2 109.2 0 01-40-13.9 93.2 93.2 0 01-16.9-13.1l-1.9-1.8-1.8-2-1.8-1.9-.8-1-.9-1.1-3.2-4.1c-1.1-1.5-2-3-3-4.4a42.1 42.1 0 01-2.8-4.5l-1.3-2.3a17.1 17.1 0 01-1.3-2.3l-2.3-4.7-.6-1.2-.5-1.2-1-2.5a148.6 148.6 0 01-9.9-40.3 2.5 2.5 0 012.2-2.8 2.5 2.5 0 012.7 2.2 145 145 0 0010.8 38.5l1 2.3.5 1.1.6 1.1 2.3 4.4 1.2 2.1 1.3 2.1a37.1 37.1 0 002.8 4.1c.9 1.4 1.9 2.7 2.9 4l3.1 3.8.8.9.9.9 1.7 1.8 1.7 1.7 1.8 1.7a87.1 87.1 0 0033.7 19.1 97.9 97.9 0 0019.2 4c3.2.4 6.5.6 9.8.7h7.2l2.3-.2a5 5 0 111.2 9.9z"/><path d="m1560.8 1398.7 2.4.2h7.6a88.9 88.9 0 0010.3-.6 115.6 115.6 0 0020.2-3.6 99.5 99.5 0 0036.5-18.2 86.5 86.5 0 0014.4-14.6l1.5-2a10.1 10.1 0 001.5-2.1l2.9-4.3a15.9 15.9 0 001.3-2.2l1.3-2.3 1.3-2.2c.4-.8.7-1.6 1.1-2.3a138 138 0 0011.8-39.9 2.5 2.5 0 012.8-2.2 2.6 2.6 0 012.2 2.8 142.9 142.9 0 01-11.2 41.9 18.9 18.9 0 01-1.1 2.5l-1.3 2.5-1.2 2.4-1.4 2.4-2.9 4.7-1.5 2.3-1.7 2.2a92.2 92.2 0 01-15 16.2 109.3 109.3 0 01-38.9 20.8 131.5 131.5 0 01-21.6 4.5c-3.6.5-7.3.8-11 1h-8.3l-3-.2a5 5 0 01-4.6-5.3 4.9 4.9 0 015.4-4.6h.2z"/><path d="m1542.7 1287.1c15-3.1 30-5.5 45.1-7.2s30.3-2.9 45.5-3.4c30.3-.9 60.8.5 90.8 5.5a351.5 351.5 0 0144.3 10.3 280.5 280.5 0 0142.3 16.9 221.1 221.1 0 0138.2 24.4 201.8 201.8 0 0131.9 32.1 200.5 200.5 0 00-32.7-31.1 225 225 0 00-38.5-23.2 277.2 277.2 0 00-42.2-15.5 331.2 331.2 0 00-44.1-8.9 455.9 455.9 0 00-89.7-3c-14.9.9-29.8 2.5-44.7 4.6s-29.5 4.8-44 8.2a4.9 4.9 0 01-6-3.7 5 5 0 013.7-6z"/><path d="m1715.6 1237.8c-12.9.4-25.7 1.3-38.5 2.6s-25.6 3.2-38.2 5.5-25.2 5.1-37.6 8.4-24.6 6.9-36.7 11.1a5 5 0 11-3.3-9.5h.3c12.6-3.4 25.3-6.4 38.1-8.9s25.6-4.4 38.5-5.9 25.8-2.6 38.7-3.1 25.8-.6 38.7-.2z"/><path d="m1556.4 1310.3 5.9-.9a14.5 14.5 0 012.9-.4l3-.3 2.9-.2 3-.2h8.8l3 .2 2.9.2a25.8 25.8 0 012.9.3l5.8.8 5.8 1.2a139.4 139.4 0 0122.2 6.9 166.3 166.3 0 0120.7 10.3 219.1 219.1 0 0136.7 27.4c5.6 5.1 11 10.5 16.1 16.1a220.6 220.6 0 0114.5 17.5c-4.8-5.8-10.1-11.3-15.4-16.6a219.5 219.5 0 00-16.9-15.1 206.2 206.2 0 00-37.4-24.9 160.1 160.1 0 00-20.5-8.8 134.5 134.5 0 00-21.4-5.5l-5.5-.7-5.4-.5-2.8-.2h-8.2l-5.4.4-5.4.6-2.7.4-2.6.5-5.4 1.1h-.3a4.9 4.9 0 01-5.9-3.9 4.9 4.9 0 013.8-5.9z"/><path d="m1345.9 1312.2c-15-2.9-29.9-5.9-44.9-8.5s-29.9-5-45-6.7c-30.1-3.5-60.5-5.1-90.8-3.1a324.3 324.3 0 00-45 6 236.8 236.8 0 00-43.4 13.4 180.9 180.9 0 00-39.4 22.5 169.3 169.3 0 00-32.2 32.2 167.1 167.1 0 0131.4-33.1 186.9 186.9 0 0139.2-23.9 238.3 238.3 0 0143.6-14.8 330.2 330.2 0 0145.4-7.3c30.6-2.9 61.4-2.1 92 .6 15.2 1.4 30.5 3.3 45.6 5.5s30.3 4.9 45.3 7.4a5 5 0 01-1.6 9.8z"/><path d="m1171.2 1253.5a267.9 267.9 0 0179.5-2.4 278 278 0 0177.5 21.3 5 5 0 11-4 9.1h-.3a263.6 263.6 0 00-73.9-25.3 263.5 263.5 0 00-78.8-2.7z"/><path d="m1333 1335.9a97.3 97.3 0 00-21.4-3.3 106.6 106.6 0 00-21.8 2 135.1 135.1 0 00-41.2 16.8 192 192 0 00-18.6 12.8c-6 4.6-11.8 9.5-17.4 14.6s-10.9 10.6-16.1 16.2a221.8 221.8 0 00-14.6 17.5 223.5 223.5 0 0113.7-18.3c4.9-5.9 9.9-11.7 15.3-17.2s10.9-10.7 16.7-15.7a169.1 169.1 0 0118.4-14.1 138.1 138.1 0 0142.1-19.9 108.4 108.4 0 0123.5-3.5 107.2 107.2 0 0123.9 2.5 5 5 0 01-2.1 9.7h-.4z"/><path d="m1321.1 1344.7a29.8 29.8 0 00-3.4-.6l-3.5-.4a40.9 40.9 0 00-7 0 34.5 34.5 0 00-13.3 4.2 28.7 28.7 0 00-5.5 4.4 25.5 25.5 0 00-4.3 5.5 43.4 43.4 0 00-5.4 13.4.9.9 0 01-1.2.7 1 1 0 01-.8-1.1 46.5 46.5 0 015-14.4 31.5 31.5 0 0110.4-11.4 36 36 0 0114.6-5.5 50.3 50.3 0 017.8-.5c1.3.1 2.6.1 3.9.3l3.9.6a2.5 2.5 0 01-1 4.9h-.2z"/><path d="m1575 1337.8a28.5 28.5 0 013.9-.6c1.3-.2 2.6-.2 3.9-.3a51.1 51.1 0 017.8.5 36.5 36.5 0 0114.6 5.5 32.4 32.4 0 0110.4 11.4 49.3 49.3 0 015 14.4 1 1 0 01-.8 1.1 1 1 0 01-1.2-.7 44.9 44.9 0 00-5.4-13.4 33.3 33.3 0 00-4.3-5.6 29.7 29.7 0 00-5.6-4.3 32 32 0 00-13.2-4.2 42.1 42.1 0 00-7.1 0 22.1 22.1 0 00-3.5.4 32.3 32.3 0 00-3.3.6 2.4 2.4 0 01-3.1-1.7 2.5 2.5 0 011.7-3.1z"/></g><path d="m0 0h3e3v3e3h-3e3z" fill="none"/><path d="m1345.9 371.6c0 .8-.1 1.6-.1 2.3a31.9 31.9 0 01-19.2 32.7 4.1 4.1 0 00-2 2.6c-3.8 15.8-5.2 31.8-5.8 48a519.9 519.9 0 005.2 89.9c3 21 6.9 41.8 10.4 62.7.9 5-2.4 8.4-7.4 7.5-26.7-5-53.3-4-79.9.9a229.9 229.9 0 00-58.3 18.9c-24.7 11.8-46.7 27.2-64.6 48.1-1.2 1.5-2.3 3-3.5 4.4-3.1 3.9-8.1 3.4-10.4-1-3.7-7.1-7.3-14.2-11.2-21.2-22-39.9-46.1-78.4-76.4-112.7a224.5 224.5 0 00-30.3-29 4.7 4.7 0 00-3.2-.8 31.6 31.6 0 1122.2-23.2c-.3 1.3-.6 2.2.7 3.2 18.6 14.8 38.1 28.1 60 37.6 7.6 3.2 15.3 4.6 23.4 2.3 13.4-3.7 22-12.4 25-26.1 3.4-15.7 3.5-31.7 2.7-47.7-1.1-21.9-4.4-43.6-8.8-65.1-1.3-6.4-2.7-12.7-4-19.2l-1.7-.3c-19.3-2-35.2-15.8-38.9-33.8-4-19.8 4.4-38.2 21.7-48a4.3 4.3 0 001-.9l10.6-3.7h1.1c18.2-3.3 36.4 4.9 45.5 20.4a43.2 43.2 0 01-3.6 49.9c-1 1.3-1.2 2.2-.4 3.6 4.6 9 9 18.1 13.7 27.1 10.5 19.6 22.1 38.6 35.9 56.2 7.5 9.5 15.5 18.7 25 26.3 11.1 9 23.4 10.4 36.4 4.6a32.5 32.5 0 0015.4-14.8c11.8-21.5 18.9-44.6 24.2-68.4.4-1.6-.6-2.1-1.5-2.8-10.3-8.8-14.4-19.8-11-32.9s12.5-21.3 26.1-23.3 23.5 3.2 31.1 14.2l1.7 2.2zm-92.8 207.6-.4.6c-2.7 4.1-5 8.4-8.1 12.2s-1.7 6.4-1.1 9.8l.6 1.8.5 1.3c.6.4 1.2 1.1 1.6 1.1l6.5-1.1a249.9 249.9 0 0161.1-1.9c4.4.5 6.5-2 5.7-6.3-1.6-9.1-3.3-18.2-4.6-27.3-1.6-11.1-3-22.2-4.4-33.3-.2-1.2-.5-2.1-2-1.8h-3.1c-5.9-.3-11.5.9-17.1 2.5-8.3 2.4-16.2 5.6-23.3 10.5a54.5 54.5 0 00-13.6 13.5l5.3 3.2c2.7 1.7 3.2 3.8 1.6 6.6l-4.9 7.9zm46.6-139.4c-.2.7-.5 1.5-.7 2.3l-.3.6-.7 2.4-.3.6c-.3.8-.5 1.6-.8 2.3l-.3.7c-.2.7-.5 1.5-.7 2.3l-.6 1.3-1.1 2.9-.6 1.3c-.4 1.2-.9 2.3-1.3 3.5l-1.5 3.2-6 12.5-1.5 3.1-1.5 1.8c-2.5 3.3-4.6 7-7.6 9.8a46.4 46.4 0 01-50.8 9.4c-9-4-15.9-10.9-22.6-17.9-3.7-3.7-7.1-7.5-10.7-11.3l-.3-.5c-.1-.3-.1-.7-.3-.9l-10.1-12.7-6.5-9.2-1.4-2.4-.7-.9-.4-.8-.7-.9-3.3-5.1c-4.9-8.4-9.7-16.8-14.6-25.1-.3-.5-1.2-.6-1.8-.8l-4.2 1.4-5 1.8v-.2c-3.1-8.7-6.1-17.3-9.1-25.9-1.9-5.4-1.9-5.3-7.2-3.5-2 .7-2.1 1.7-1.7 3.5 1.2 4.6 2.1 9.2 3.1 13.8s2.3 10.9 3.4 16.4c.1.5.3.9.4 1.4 1.3 9.3 2.6 18.6 3.7 28 2.8 22.4 3.6 44.9.2 67.4-1.1 7.6-3.1 14.9-7.5 21.5-8.1 12.2-19.5 19-33.9 20.9-10.2 1.3-19.6-1.5-28.6-5.7a219.6 219.6 0 01-31.7-17.8c-1.1-.8-2.3-1.3-3.1.6l-2.1 2.8c-1.7 1-1 2.2 0 3.2s2.7 2.8 4 4.3a492.7 492.7 0 0138.1 49.2c2.9 4.3 5.7 8.8 8.5 13.3 0 2 .5 3.6 2.9 3.7l3.4 5.6c10.1 17.1 20 34.2 30 51.4a6.7 6.7 0 002 2.1c2.6 1.6 4.1 1.1 7-1.5 5.7-5.3 11.4-10.7 17.4-15.6s11.3-8.3 17-12.4a10.9 10.9 0 002.5-.4c1.4-.6 2.3-1.5 1-3 4.4-2.4 8.7-5 13.2-7.2 8.3-4.1 16.7-8.3 25.3-11.8 6.4-2.6 13.3-4.2 20-6.1s11.9-3.2 17.9-4.8c3-.8 3.3-1.2 2.4-4.4s-.6-3.9-.7-5.8a4.9 4.9 0 00-2.4-4.2c-6.2-3.9-12.2-7.9-18.2-11.9l-3.5-2.2c1.8 8.1 3.5 15.6 5.3 23.1.5 2.2.3 4-1.3 5.6l-33.6 11.9c-4.5-1.8-3.7-6.4-5.2-9.9l-25.5 9.8c-2.3 1-4.4 1.1-6.4-.4-.4-1-.8-2.1-1.3-3.1-4.7-10.8-9.5-21.6-14.3-32.3l-6.9-15.4c-1.3-3-2.6-6-4-8.9s-1.7-4.4-.1-6.6l1.8-1.3 12.2-6.3 27.2-14.4c1.1-.6 1.7-1.2 1.3-2.7-1-4.4-1.8-8.9-2.7-13.4-.5-2.9.4-4.7 3.2-5.7l8.8-3.2 14.6-5c5.2-1.8 7.1-.7 7.9 4.9.5 3.5 1.2 7 1.8 10.4a1.9 1.9 0 00.9-1.1c1.6-4.6 3.2-9.2 4.9-13.8 1-2.9 3-3.8 6-2.8l4.4 1.5 17.3 6.5 1.9.9 1.3 1.5c-.1 1.6.1 3.3-.4 4.7-1.9 5-4 9.8-6.1 14.7l-6.1 14.9 25.5 15c5.3-4.9 10.2-9.4 15-14a2.5 2.5 0 00.8-1.4c0-1.7 0-3.4-.1-5.1-.5-7.5-.1-14.9 2.3-22 1.6-4.9 3.8-9.5 5.8-14.3l3.6-4.4c1.4-1.3 2.8-2.6 4.3-3.8l4.2-2.8a16.7 16.7 0 0114.8.3l4 1.8.3.4 1.2.7.8.7 1.4 1.1 2 1.5c-.2-3.6-.2-6.8-.3-10a334.2 334.2 0 011.1-49 4.4 4.4 0 00-2.6-4.9l-1.6-1c-.7 0-1.8-.1-1.9.1a50.1 50.1 0 00-1.4 5.2l-.8 2.4zm-92.7 163.2 2.6-1.1.7-1.5v-.7l-6.3-27.2c-.6-2.4-1-4.7 1.4-6.4s4.2-.4 6.1.9l17.6 11.6 9.9 6.5c3.4-5.3 6.6-10.4 9.8-15.6l-1.2-.7-32.9-19.4c-3.2-1.9-3.8-3.6-2.4-7l4.2-9.9 7.9-19-14.7-5.5c-.4 1.1-.6 1.9-1 2.8-2.7 7.1-5.5 14.3-8.4 21.4a4.7 4.7 0 01-5.2 3.1c-2.6-.4-3.6-2.3-4-4.6s-1.3-7.1-2-10.6-1.1-6.5-1.7-9.9l-11.6 4.1-5.9 2.1c.6 3.1 1.2 6.1 1.9 9.4 2.7-1.3 5.2-2.7 7.7-.6.7 2.3 1.3 4.6 1.9 7v1.1c.9 7 1.7 13.9 2.6 20.9.5 3.6-.3 4.9-3.8 6.3l-1.4.7c.7 3.7 1.4 7.3 2.2 11.2l7.5-3.2c2.7-1 4.5-.3 6 2.1l2 3.4c3.1 6.2 6.1 12.5 9.3 18.7 1.2 2.2 1.3 4.1-.1 6.1l-3.3 1.6-12.6 4.7c-1.9.7-2.4 1.7-1.2 3.6zm-31.7-49.9c-.8-6-1.6-11.8-2.4-18.1l-42.8 22.8a2.2 2.2 0 00.1.9l22.3 50.4c.7 1.5 1.5 1.5 2.9 1 12.9-5.1 25.9-10 38.8-15l2.3-1.2-8-15.4c-7.7 3.2-15.3 6.2-22.8 9.4-3.1 1.3-4.7 1-6.8-1.7l-12.2-15.6c-3.1-3.9-2.2-6.7 2.5-8.3zm91.8-12.3c12.5-6.3 25.1-10.8 39-11 1.3 0 1.9-.6 1.7-2.1-.6-6.8-1.4-13.6-1.6-20.5a10.7 10.7 0 00-4.7-9c-9.3-7.2-16.9-6.6-24.3 2.6-9.5 11.6-11.4 25.2-10.1 40zm-144-219.6a8.7 8.7 0 00-5.4-5.8c-4.8-2-9.4-2.4-14.1.5a9.2 9.2 0 00-4.8 8.2c.1 3.7 1.5 6.9 5.1 8.2a31.8 31.8 0 0010 2c8-.1 11.8-5.6 9.2-13.1zm13.3 42.1c-4.5 1.4-8.8 2.8-13.3 3.9-9.7 2.5-19 1.5-27.5-4.2-5.2-3.4-9.7-7.4-11.5-13.7-1-3.1-2.2-6.2-3.1-8.8-2 9.6 4 23.5 15.8 30.1 14 7.7 30.9 3.8 39.6-7.3zm-154.5 125.8 2.1-.8c2.5-1.1 4.2-3 4.2-6a5.7 5.7 0 00-4.2-5.7 18 18 0 00-6.9-.6c-4.2.4-6.9 4.7-6 9.1s4.3 5.9 8.7 4.7zm343.2-114.3c4.2-1.4 5.7-4.5 4.2-8.7s-5.6-6.7-10.7-5c-3.6 1.1-5.8 5.7-4.5 9.3s6.3 6 11 4.4zm-327.2 128.6c-6.2 2.7-12.3 5-19 4.7s-12-3.9-17.4-8.3c2.9 9.1 10.2 13.9 17.8 14.4s16-4.7 18.6-10.8zm296.9-126c-1 7.4 6 17.5 15.7 19.3 7.1 1.4 16.9-2.1 18.9-7.2-18.9 5-29 1.6-34.6-12.1zm-138.5 191.6c2.4 3.1 4.5 5.7 6.4 8.5s2.4 1.7 4 .9 3.1-1.3 4.6-2.2 1.4-1.5 1.3-2.1a76.3 76.3 0 00-1.7-8.3c-.1-.5-1.2-1.4-1.5-1.2-4.3 1.3-8.5 2.8-13.1 4.4z" fill="#31323d"/><path d="m1226.1 703.5-8 1.7c-14.9 3.9-30 6.9-45.5 7.2-6.7.1-13.4-.3-19.7-2.8-9.9-3.9-13.1-12.6-7.9-21.9a27.8 27.8 0 015-6.8c5.4-4.7 10.7-9.6 16.6-13.6 20.2-13.4 42.5-22.5 65.5-29.8 19.2-6.1 38.6-10.8 58.9-11.3a92.4 92.4 0 0115.7 1.3 22.8 22.8 0 018 3c6.8 3.8 9.1 10.8 6 18s-6.9 10.4-11.7 14.5c-10.3 8.8-22 15.4-34.1 21.3-5.8 2.7-11.7 5.1-17.5 7.7a6 6 0 00-.8.8zm-64.9-4.3 5 .8h2.6l1.1.2 14.7-1h1.1l6.3-1.1h1.1l1.9-.5h1.1l1.8-.6h1.1l1.8-.6h1.6l2.3-.8 2-.2 2.3-.8 2.1-.2 3.2-1.1 2-.3 4.6-1.5 3.4-.8 10.2-3.5 7.8-2.7 9.7-3.5 3.1-1.5 4.6-1.7 1.7-1.1 3.2-1.2 1.8-1 2.7-1 1.3-1 2.2-.8.8-.7 2.3-.9 1.3-.9 1.8-.7a6 6 0 00.8-.8l1.8-.6.8-.8 1.4-.5.7-.8 1.4-.5.8-.7 3-1.7.8-.7.9-.4.8-.7 2.1-1.3.8-.8 5.4-4 .8-.8 1.2-.9.7-.8 3.1-3.1 1-1.4h.1c2.1-2 2.4-6.2.2-7.1s-4.9-.9-7.3-1.3h-.5c-1.3-2.1-3-2.1-5.8 0-1.3-2.2-2.7-.2-4.1-.2s-1.6-.9-2.4-.8c-16.2.9-32.1 4.4-47.6 9.2s-31.2 10.3-45.8 18.1c-8 4.3-15.9 9-23.8 13.6a21.3 21.3 0 00-3 3 29.8 29.8 0 00-11.2 11.1c-1.4 2.5.7 5.3 3.6 5.6z" fill="#31323d"/><path d="m1243.5 601.8c-.6-3.4-1.6-6.5 1.1-9.8s5.4-8.1 8.1-12.2l.5.2c.1.3.1.8.3.9a22.4 22.4 0 002.7 1.3c.4-.9 1.3-2 1-2.6s-1.6-1-2.5-1.3-.9.2-1.3.3l4.9-7.9c1.6-2.8 1.1-4.9-1.6-6.6l-5.3-3.2a54.5 54.5 0 0113.6-13.5c7.1-4.9 15-8.1 23.3-10.5 5.6-1.6 11.2-2.8 17.1-2.5.1.4.3.9.4 1.4.7 6.2 1.5 12.4 2.1 18.6.2 1.7.3 3.5.4 5.2-1.6.1-2.6.8-2.4 2.4s1.5 2.1 3.1 1.9c.4 2.2.9 4.4 1.3 6.6 1.3 8.1 2.7 16.3 4 24.4.4 2.8-.2 3.4-3 3.2a249 249 0 00-42.3.2c-8.5.9-17 2.3-25.5 3.5zm38.5-24.9c2.6-1.2 5.7-2.5 8.7-4.2 1.1-.7 2.4-2.5 2.2-3.6a5.4 5.4 0 00-3-3.3c-5.1-1.8-9.9-.1-14.8 1.2-3.4.8-4.2 3.8-5.8 6.2s-1.4 3.4-.1 4.7a5.6 5.6 0 004.1 1.2 74 74 0 008.7-2.2z" fill="#c9cad4"/><path d="m1121.1 553c-1.6 2.2-1 4.4.1 6.6s2.7 5.9 4 8.9c-2.6 2.3-5.2 4.6-7.9 6.8s-5.7 4.1-8.3 6.4c-.9.7-1.2 2.1-1.8 3.2 1.2.4 2.4 1.3 3.6 1.3l21.3-2.3c4.8 10.7 9.6 21.5 14.3 32.3.5 1 .9 2.1 1.3 3.1a17 17 0 01-2.2-1.5 56.7 56.7 0 00-20.6-12.8c-14.3-5-28.6-5.1-42.8.6-.8-1.4-1.5-2.9-2.4-4.2-4.8-7.1-9.7-14.2-14.6-21.2-.9-1.3-1.8-2.5-1.1-4.1 2.6-2.4 5.2-4.6 7.7-7.1s1.5-3.5-.8-4.9-4.6-2.4-6.8-3.7a15 15 0 013.7.4 52.3 52.3 0 0018.3 3.6 57.6 57.6 0 008.2-1.1l1.4-.5h1.5l2.3-.8 2-.2 5.6-2 1.7-1.1.9-.3 1.4-.5a6 6 0 01.8-.8l1.8-.6 1.2-1 1-.3zm-34.9 30a3.2 3.2 0 002-3.9 3.7 3.7 0 00-4.2-2.2 3.9 3.9 0 00-2.1 4.4c.5 1.5 2.6 2.3 4.3 1.7zm12.4-10.6.3 1c1 .4 2.3 1.3 3.1.9s1.2-1.8 1.7-2.7-2.1-1.6-3.1-1.6-1.3 1.5-2 2.4zm1.3 9.3c-1.8-.5-3.1-1.4-3.8-1a3.4 3.4 0 00-1.5 2.7 1.8 1.8 0 002.9 1.5c.8-.4 1.3-1.6 2.4-3.2z" fill="#9698a1"/><path d="m1205.7 599.5c1.4-2 1.3-3.9.1-6.1-3.2-6.2-6.2-12.5-9.3-18.7a15.7 15.7 0 00-.4-2.3c-4.4-12.8-8.9-25.6-13.4-38.3a8 8 0 00-1.3-1.9c-.6-2.4-1.2-4.7-1.9-7l-3.7-10.9 11.6-4.1c.6 3.4 1.2 6.6 1.7 9.9s1.3 7 2 10.6 1.4 4.2 4 4.6a4.7 4.7 0 005.2-3.1c2.9-7.1 5.7-14.3 8.4-21.4.4-.9.6-1.7 1-2.8l14.7 5.5-7.9 19-4.2 9.9c-1.4 3.4-.8 5.1 2.4 7l32.9 19.4 1.2.7c-3.2 5.2-6.4 10.3-9.8 15.6l-9.9-6.5-17.6-11.6c-1.9-1.3-3.8-2.4-6.1-.9s-2 4-1.4 6.4l6.3 27.2v.7l-.7 1.5-2.6 1.1z" fill="#d4d5dd"/><path d="m1175.3 553.1-26.1 9.2c-4.7 1.6-5.6 4.4-2.5 8.3l12.2 15.6c2.1 2.7 3.7 3 6.8 1.7 7.5-3.2 15.1-6.2 22.8-9.4l8 15.4-2.3 1.2c-12.9 5-25.9 9.9-38.8 15-1.4.5-2.2.5-2.9-1l-22.3-50.4a2.2 2.2 0 01-.1-.9l42.8-22.8c.8 6.3 1.6 12.1 2.4 18.1z" fill="#b9bac3"/><path d="m1172.9 506-8.8 3.2c-2.8 1-3.7 2.8-3.2 5.7.9 4.5 1.7 9 2.7 13.4.4 1.5-.2 2.1-1.3 2.7l-27.2 14.4-12.2 6.3a14.3 14.3 0 011.2-2.1c3.3-4.6 7.2-8.9 10-13.8 4.9-8.8 5.8-18.8 6.9-28.7 1.8-16.4 1-32.8 0-49.2a7.6 7.6 0 01.6-2.6c.6 5.1 1.1 10.2 1.8 15.3.3 2.7 2.6 4 5.2 2.9l11.2-4.7 1.5 4.3-10.5 4.4c-1.8.6-3.3 1.6-2.5 3.6s2.4 1.7 4.1 1l10.6-4.2c.4 1 .7 2.1 1.1 3.1-2.2 1-4.4 2-6.5 3.2s-2.5 1.7-1.6 3.5 2.2 1.4 3.6.8l6.2-2.7c2.3 6.7 4.7 13.5 7.1 20.2zm-25.5-6.6c-1.5.6-1.9 2.1-1.4 3.8s3 3.3 4.6 2.7a2.9 2.9 0 001.6-3.9c-.7-2.2-2.6-3.4-4.8-2.6zm19.7-4.2c-.4-1-1.5-1.6-3.1-1.1a3.3 3.3 0 00-1.7 4.1 2.5 2.5 0 003.4 1.6c1.5-.5 2.2-2.3 1.4-4.6z" fill="#9698a1"/><path d="m1270.6 501.5c-2 4.8-4.2 9.4-5.8 14.3-2.4 7.1-2.8 14.5-2.3 22 .1 1.7.1 3.4.1 5.1a2.5 2.5 0 01-.8 1.4c-4.8 4.6-9.7 9.1-15 14l-25.5-15 6.1-14.9c2.1-4.9 4.2-9.7 6.1-14.7.5-1.4.3-3.1.4-4.7h5.6a50.2 50.2 0 0025.8-5.6c1.6-.8 3.5-1.2 5.3-1.9zm-31.3 31.8c2.3-.9 3.2-2.7 2.4-5a2.9 2.9 0 00-4.1-1.9 4.4 4.4 0 00-2.7 5.3c.6 1.7 2.2 2.3 4.4 1.6zm17-11.5c-.8-.3-1.9-1.3-2.8-1.2a2.7 2.7 0 00-2 3.6c.4 1.6 1.5 2.9 3.4 2.4s1.6-2.5 1.4-4.8zm-3.6 11.6c-1.6-.5-2.7-1.2-3.5-.9s-.8 1.6-1.2 2.4 1.9 1.3 2.8 1.3 1.1-1.5 1.9-2.8z" fill="#acaeb7"/><path d="m1267.1 540.8c-1.3-14.8.6-28.4 10.1-40 7.4-9.2 15-9.8 24.3-2.6a10.7 10.7 0 014.7 9c.2 6.9 1 13.7 1.6 20.5.2 1.5-.4 2.1-1.7 2.1-13.9.2-26.5 4.7-39 11zm9.3-14.8c-.2-.4-.2-1-.5-1.3s-1.9-1.2-2.8-1.8a30.1 30.1 0 00-1.6 3.1c-.2.3.2.9.3 1.4s1.1 4.1 3.6 3.3 1.5-2.9 1-4.7zm12-3.3a16.1 16.1 0 003.1 1.9c.3.1 1.6-1.3 1.6-2a19.1 19.1 0 00-.7-4.7c-.3-.7-1.4-1.6-1.9-1.5a2.9 2.9 0 00-2 1.7c-.4 1.3-.1 2.7-.1 4.6z" fill="#a9abb4"/><path d="m1172.9 506c-2.4-6.7-4.8-13.5-7.1-20.2l3.5-1.8 3.7 10.5 3.2-4.4 11.4-15.8a153.5 153.5 0 0021.6 21.8c1.5 1.2 2.8 2.7 4.2 4l-4.4-1.5c-3-1-5-.1-6 2.8-1.7 4.6-3.3 9.2-4.9 13.8a1.9 1.9 0 01-.9 1.1c-.6-3.4-1.3-6.9-1.8-10.4-.8-5.6-2.7-6.7-7.9-4.9z" fill="#acaeb7"/><path d="m1026.6 537.7 2.1-2.8a7.6 7.6 0 011.6.6c5.8 3.4 11.5 7.1 17.5 10.2 7.7 4 15.4 8.2 23.5 11.1 13.9 5 27.6 3.8 40.3-3.9a45.6 45.6 0 0021.7-28.6c3.7-14.4 4.5-29.1 3.9-43.8s-2-28.5-3.4-42.8c-.7-6.5-2.1-13.1-3.2-19.6l1.8-.7a5.8 5.8 0 00.5 1.4c.2 1.7.5 3.3.7 5l.3.9c.2 1.5.4 3 .5 4.5l.4.9v1.6l.3.9v1.6l.4.9v1.5l.3.9v1.6l.4.9c-.2.5-.6 1-.5 1.5.2 2.7.5 5.4.8 8.2a272.7 272.7 0 011.7 49.5c-.1 2 .1 4 .1 6.1v1.5l-.4 1.7v1.5a13.6 13.6 0 00-.4 1.7l-.3 5.3c-.2 1-.4 1.9-.5 2.8s-1.1.7-1.2 1.1c-.9 3-1.8 6-2.6 9.1-.2.4.3.9.5 1.4l-.3.6c-1.1 2.1-2.3 4.2-3.4 6.4s-1.2 1.9-2 2.8c-2.7 3.1-4.8 7-9 8.8l-4.6 3.2-.9.3-1.1 1.4-.9.4-2.3.8-.9.3c-5.7 2.1-11.5 4.2-17.6 4.5l-8.7.6-5-.9-8.2-2.8-2.5-1.2-1.3-.6-13.7-6.6-1.9-.9-3.9-2.3-1.3-.6-2.6-1.6-1.3-.6-2.6-1.7-1.9-.9-.6-.3-4.4-3.3-.9.7a10 10 0 00.9 2.6c1.7 2.2 3.5 4.3 5.3 6.4a5.2 5.2 0 001.5.6l.5 1.3 1.2.7.7 1.8 2.1 1.4c1.9 2.7 3.7 5.5 5.9 8.1 4.3 5.2 8.7 10.2 13.1 15.3 0 .4-.3 1-.1 1.2 3.6 5.1 7.3 10.1 10.8 15.2s6 9.3 8.9 13.9l-1.4.6a3 3 0 00-.4-.8c-7.8-11.2-15.3-22.5-23.4-33.3-6.8-9.2-14.3-17.7-21.5-26.6-2.4-2.9-4.8-5.7-7.1-8.6z" fill="#6a6b75"/><path d="m1079 607 1.4-.6 1.7-.8c14.2-5.7 28.5-5.6 42.8-.6a56.7 56.7 0 0120.6 12.8 17 17 0 002.2 1.5 6.9 6.9 0 00.7 1.5l10.1 13.5c.7 1.1 1.3 2.2 1.9 3.3s.4 2.4-1 3a10.9 10.9 0 01-2.5.4l-.6-1.4-.8-1.2-1.1-1.7a27.2 27.2 0 00-1.1-2.5c-10.7-16.7-25.5-26.8-45.7-28.4-7.8-.6-15.4.3-22.6 3.7l-1.3.6-1.8.7-1.8.6c-2.4-.1-2.9-1.7-2.9-3.7z" fill="#2e2f39"/><path d="m1123.1 321.2c2.6 7.5-1.2 13-9.2 13.1a31.8 31.8 0 01-10-2c-3.6-1.3-5-4.5-5.1-8.2a9.2 9.2 0 014.8-8.2c4.7-2.9 9.3-2.5 14.1-.5a8.7 8.7 0 015.4 5.8z" fill="#d3d4dc"/><path d="m1158.5 634.3-10.1-13.5a6.9 6.9 0 01-.7-1.5c2 1.5 4.1 1.4 6.4.4l25.5-9.8c1.5 3.5.7 8.1 5.2 9.9-.9.6-1.7 1.4-2.6 1.9-3.3 1.8-6.7 3.3-9.9 5z" fill="#9698a1"/><path d="m1130.6 418.1c1.1 6.5 2.5 13.1 3.2 19.6 1.4 14.3 2.9 28.5 3.4 42.8s-.2 29.4-3.9 43.8a45.6 45.6 0 01-21.7 28.6c-12.7 7.7-26.4 8.9-40.3 3.9-8.1-2.9-15.8-7.1-23.5-11.1-6-3.1-11.7-6.8-17.5-10.2a7.6 7.6 0 00-1.6-.6c.8-1.9 2-1.4 3.1-.6a219.6 219.6 0 0031.7 17.8c9 4.2 18.4 7 28.6 5.7 14.4-1.9 25.8-8.7 33.9-20.9 4.4-6.6 6.4-13.9 7.5-21.5 3.4-22.5 2.6-45-.2-67.4-1.1-9.4-2.4-18.7-3.7-28-.1-.5-.3-.9-.4-1.4z" fill="#4d4e58"/><path d="m1218.4 607.9c1.6-1.6 1.8-3.4 1.3-5.6-1.8-7.5-3.5-15-5.3-23.1l3.5 2.2c6 4 12 8 18.2 11.9a4.9 4.9 0 012.4 4.2c.1 1.9.4 3.8.7 5.8l-16.5 4.2a31.3 31.3 0 01-4.3.4z" fill="#a9abb4"/><path d="m1130.6 418.1-1.4.5c-1.1-5.5-2.3-10.9-3.4-16.4s-1.9-9.2-3.1-13.8c-.4-1.8-.3-2.8 1.7-3.5 5.3-1.8 5.3-1.9 7.2 3.5 3 8.6 6 17.2 9.1 25.9l-6.4 2.5-1.9.6z" fill="#2a2b35"/><path d="m1136.4 363.3c-8.7 11.1-25.6 15-39.6 7.3-11.8-6.6-17.8-20.5-15.8-30.1.9 2.6 2.1 5.7 3.1 8.8 1.8 6.3 6.3 10.3 11.5 13.7 8.5 5.7 17.8 6.7 27.5 4.2 4.5-1.1 8.8-2.5 13.3-3.9z" fill="#515364"/><path d="m1218.4 607.9a31.3 31.3 0 004.3-.4l16.5-4.2c.9 3.2.6 3.6-2.4 4.4-6 1.6-12 3.1-17.9 4.8s-13.6 3.5-20 6.1c-8.6 3.5-17 7.7-25.3 11.8-4.5 2.2-8.8 4.8-13.2 7.2-.6-1.1-1.2-2.2-1.9-3.3l13.8-7.6c3.2-1.7 6.6-3.2 9.9-5 .9-.5 1.7-1.3 2.6-1.9z" fill="#767780"/><path d="m1301.5 492.6-4-1.8a16.7 16.7 0 00-14.8-.3c.2-.6.1-1.3.4-1.8 6.4-8.9 10.9-18.8 14.9-28.9a21.9 21.9 0 011.8-3.3c.6.6.9.8.9 1.1.3 11.7.5 23.3.8 35z" fill="#acaeb7"/><path d="m1308.3 559.6c-.1-1.7-.2-3.5-.4-5.2-.6-6.2-1.4-12.4-2.1-18.6-.1-.5-.3-1-.4-1.4h2l.2.5q4.2 29.9 8.6 59.7c.7 4.8-.4 5.7-5.3 5.6-11.1-.3-22.3-.9-33.4-.3s-22.3 2.5-33.4 3.8l-.6-1.8c8.5-1.2 17-2.6 25.5-3.5a249 249 0 0142.3-.2c2.8.2 3.4-.4 3-3.2-1.3-8.1-2.7-16.3-4-24.4-.4-2.2-.9-4.4-1.3-6.6 1.7-2.2 1.6-2.7-.7-4.4z" fill="#a0a1ab"/><path d="m1181.4 532.2a8 8 0 011.3 1.9c4.5 12.7 9 25.5 13.4 38.3a15.7 15.7 0 01.4 2.3l-2-3.4c-1.5-2.4-3.3-3.1-6-2.1l-7.5 3.2c-.8-3.9-1.5-7.5-2.2-11.2l1.4-.7c3.5-1.4 4.3-2.7 3.8-6.3-.9-7-1.7-13.9-2.6-20.9z" fill="#b9bac3"/><path d="m1134.3 416.8 6.4-2.5v.2c1.2 3.6 2.5 7.3 3.8 11l-3.7 1.1c-1.9.6-3 1.8-2.7 4s.3 1.9.4 2.9l3 21.8a7.6 7.6 0 00-.6 2.6c1 16.4 1.8 32.8 0 49.2-1.1 9.9-2 19.9-6.9 28.7-2.8 4.9-6.7 9.2-10 13.8a14.3 14.3 0 00-1.2 2.1l-1.8 1.3-5.2 2.2a5.5 5.5 0 011.2-1.4 43.4 43.4 0 0011.8-11.6c1.5-2 2.3-4.5 3.4-6.8l1.2-2.5c1-1.9 2.3-3.7 2.8-5.7 1-3.7 1.5-7.4 2.2-11.1l-.2-.5c.3-1.3.5-2.6.7-3.9v-1.5a8.4 8.4 0 00.9-2.3c.5-9.7.9-19.4 1.3-29.1a15.3 15.3 0 00-.7-2.9l-.3-.9c.2-.5.8-.9.7-1.4-.1-4.3-.4-8.6-.6-12.8 0-.3-.5-.5-.7-.7l-.3-.9v-1.1l-.3-.9v-1.1l-.3-.9.2-1.1-.4-.9.2-1.1-.3-1v-1l-.3-1v-1.1l-.3-.9c.1-1.2.1-2.5.2-3.7l-.3-.9-.5-1.4-.3-.9v-1.1l-.5-1.4v-1.6l-.3-.9v-1.5l-.4-1v-1.5l-.3-.9v-1.1l-.5-1.4v-1.6l-.3-.9v-1.5l-.5-1.4v-1.6l-.5-1.4.4-1.7z" fill="#93959f"/><path d="m1080.1 611.4 1.8-.6c3 4.7 6.1 9.4 8.9 14.2 5 8.4 9.9 16.8 14.8 25.2 3.2 5.5 6.2 11.2 9.4 16.7 1.6 2.7 4.4 2.7 6.5.4a16.6 16.6 0 011.8-1.9c6.9-6 13.7-12 20.8-17.7 3.8-3 8.1-5.4 12.2-8.1l.6 1.4c-5.7 4.1-11.6 7.9-17 12.4s-11.7 10.3-17.4 15.6c-2.9 2.6-4.4 3.1-7 1.5a6.7 6.7 0 01-2-2.1c-10-17.2-19.9-34.3-30-51.4z" fill="#565761"/><path d="m1308.5 534.3c1.5-.3 1.8.6 2 1.8 1.4 11.1 2.8 22.2 4.4 33.3 1.3 9.1 3 18.2 4.6 27.3.8 4.3-1.3 6.8-5.7 6.3a249.9 249.9 0 00-61.1 1.9l-6.5 1.1c-.4 0-1-.7-1.6-1.1 2.9-.6 5.7-1.3 8.6-1.7 19.1-2.6 38.2-3.8 57.4-1.9 6.7.6 7.9-1 6.8-7.6-2.4-14.7-4.6-29.5-6.9-44.2-.7-5-1.3-10.1-2-15.2z" fill="#5b5c67"/><path d="m1132.1 583.9-21.3 2.3c-1.2 0-2.4-.9-3.6-1.3.6-1.1.9-2.5 1.8-3.2 2.6-2.3 5.6-4.2 8.3-6.4s5.3-4.5 7.9-6.8z" fill="#2a2b35"/><path d="m981.9 489.1-2.1.7c-4.4 1.2-7.8-.7-8.7-4.7s1.8-8.7 6-9.1a18 18 0 016.9.6 5.7 5.7 0 014.2 5.7c0 3-1.7 4.9-4.2 6z" fill="#d3d4dc"/><path d="m1325.1 374.8c-4.7 1.6-9.5-.3-11-4.4s.9-8.2 4.5-9.3c5.1-1.7 9.1.2 10.7 5s0 7.3-4.2 8.7z" fill="#d3d4dc"/><path d="m997.9 503.4c-2.6 6.1-9.7 11.3-18.6 10.8s-14.9-5.3-17.8-14.4c5.4 4.4 10.6 8.1 17.4 8.3s12.8-2 19-4.7z" fill="#515364"/><path d="m1308.5 534.3c.7 5.1 1.3 10.2 2 15.2 2.3 14.7 4.5 29.5 6.9 44.2 1.1 6.6-.1 8.2-6.8 7.6-19.2-1.9-38.3-.7-57.4 1.9-2.9.4-5.7 1.1-8.6 1.7a11.2 11.2 0 00-.5-1.3c11.1-1.3 22.2-3.2 33.4-3.8s22.3 0 33.4.3c4.9.1 6-.8 5.3-5.6q-4.4-29.8-8.6-59.7l-.2-.5z" fill="#80818b"/><path d="m1190.1 470.6c3.6 3.8 7 7.6 10.7 11.3 6.7 7 13.6 13.9 22.6 17.9a46.4 46.4 0 0050.8-9.4c3-2.8 5.1-6.5 7.6-9.8l1.5-1.8.3.9c-.3 1-.7 2-1 3s-.1 1-.1 1.5l-.4.2-1.2.9-1.1 1.4-.7.8a17.1 17.1 0 01-1.1 1.4l-2.6 3-1.4.5-3.8 3.9-.9.4-2.5 1.8-.9.4-1.2.9-1.4.5c-1.2-.1-2.5-.3-2.6 1.4l-5.7 1.6-2.8.9-1.3.5h-1.6l-.9.3h-1.6l-.9.3-5.9-.5-1.4.4-5-.8h-1.1l-1.2-.6h-1.5l-1.8-.5-1.2-.5-1.7-.5-7.5-3.6-1.4-1.1-.7-.3-1.4-1-1.6-1.5-1.2-.6-2.2-1.9-.8-.7c-2.7-2.8-5.4-5.7-8.2-8.5-.2-.2-.7-.2-1.1-.2l-2.1-2.9-2-1.4-1.4-2.6-3-2.6-1.1-1.7z" fill="#51525d"/><path d="m1294.8 377.4c5.6 13.7 15.7 17.1 34.6 12.1-2 5.1-11.8 8.6-18.9 7.2-9.7-1.8-16.7-11.9-15.7-19.3z" fill="#515364"/><path d="m1156.3 569c4.6-1.6 8.8-3.1 13.1-4.4.3-.2 1.4.7 1.5 1.2a76.3 76.3 0 011.7 8.3c.1.6-.7 1.7-1.3 2.1s-3.1 1.4-4.6 2.2-2.8.7-4-.9-4-5.4-6.4-8.5z" fill="#2a2b35"/><path d="m1079 607-1.8.7c-2.8-4.5-5.6-9-8.5-13.3a492.7 492.7 0 00-38.1-49.2c-1.3-1.5-2.8-2.8-4-4.3s-1.7-2.2 0-3.2c2.3 2.9 4.7 5.7 7.1 8.6 7.2 8.9 14.7 17.4 21.5 26.6 8.1 10.8 15.6 22.1 23.4 33.3a3 3 0 01.4.8z" fill="#4d4e58"/><path d="m1301.5 492.6c-.3-11.7-.5-23.3-.8-35 0-.3-.3-.5-.9-1.1a21.9 21.9 0 00-1.8 3.3c-4 10.1-8.5 20-14.9 28.9-.3.5-.2 1.2-.4 1.8l-4.2 2.8v-1.4l.3-.7 1.9-2.1c1.5-1.6 3.6-2.7 3.3-5.4l1.8-2.2-.3-.9a23.3 23.3 0 011.7-2.6c2.5 0 2.1-2 2.4-3.5l.3-2.2 1.2-2.5 1.5-1.6c1.2-1.3 2.8-2.5 1.5-4.6.3-1 .7-2 1-3l.9-.3c.4-1 .7-2 1-3v-1.5l1-.4c1.1-.7 1.8-1.5.5-2.7l.6-1.3 2.8-1.4c.2 1.6.5 3 .6 4.5v3.5a7.8 7.8 0 00.5 1.4 7.3 7.3 0 00-.7 2.4c0 9.2.2 18.4.2 27.6a15.3 15.3 0 01-.7 3.6z" fill="#a0a1ab"/><path d="m1299.1 451.4-.6 1.3-.9 1.8-.6 1.3v1.5l-1.5 1.6-.4 1.7c-.3 1-.7 2-1 3l-2 3.3-1 2.9-1.2 2.5-1.7 2.7-1 3a23.3 23.3 0 00-1.7 2.6l-.9.3c-.2-.4-.3-.9-.5-1.3l2.1-4.4 2.2-3.9 1.2-2.5 1.7-4.2 2.4-5.1.4-1.6 1.5-3.2.2-1.1c.5-1 1-2.1 1.4-3.1a.6.6 0 00-.1-.4l1.2-2.6a.6.6 0 01-.1-.4 8 8 0 001.3-1.9c1.1-2.9 2-5.8 3.2-8.7.4-1 1.5-1.6 2.3-2.5l.7.5c.1 2.1.1 4.2.1 6.3-.3 11.9-.7 23.7-.9 35.6-.1 6.3.2 12.7.3 19.1l-1.4-1.1v-1.5l-.3-.9.3-6.4-.6-1.9a3.5 3.5 0 00.6-1.4c0-3.5-.1-7.1-.2-10.7-.2-.9-.3-1.9-.5-2.9s.7-.6.7-.9v-11.8l-.4-1.4c.2-.3.7-.6.7-.9l.3-12.6c-2.3.4-4.4 4.1-4.7 7.5z" fill="#767780"/><path d="m1305.2 495.5c-.1-6.4-.4-12.8-.3-19.1.2-11.9.6-23.7.9-35.6 0-2.1 0-4.2-.1-6.3l-.7-.5c-.8.9-1.9 1.5-2.3 2.5-1.2 2.9-2.1 5.8-3.2 8.7a8 8 0 01-1.3 1.9 7.8 7.8 0 01-.5-1.4l.3-.6a21.7 21.7 0 01.7-2.4l.3-.6c.2-.8.5-1.6.7-2.3l.8-2.4 1.6-2.5 1.7-2.8 1.6 1a4.4 4.4 0 012.6 4.9 334.2 334.2 0 00-1.1 49c.1 3.2.1 6.4.3 10z" fill="#5b5c67"/><path d="m1144.6 425.5c-1.3-3.7-2.6-7.4-3.8-11l5-1.8 12.6 21.6c1.3 2.2 3 4.2 4.5 6.3l-1.2.9-7.9-12.2c-3.3-5.2-3.3-5.2-9.2-3.8z" fill="#acaeb7"/><path d="m1213.4 500.1c-1.4-1.3-2.7-2.8-4.2-4a153.5 153.5 0 01-21.6-21.8v-.4l.7-.8.3-.2 16.8 17.6a5.2 5.2 0 001.8 1l3 2.6 4.2 3.2 2.1 1.3a13.8 13.8 0 009.3 4.5l3 1.1 3.3 1.9-1.4.5z" fill="#8e9099"/><path d="m1162.9 440.6c-1.5-2.1-3.2-4.1-4.5-6.3l-12.6-21.6 2.4-.8 7.7 13.9c2.6 4.5 5.4 9 8.1 13.5z" fill="#9698a1"/><path d="m1175.8 514.3 3.7 10.9c-2.5-2.1-5-.7-7.7.6-.7-3.3-1.3-6.3-1.9-9.4z" fill="#b0b1bc"/><path d="m1205.7 599.5 1.3 3.5-18.4 6.4c-1.2-1.9-.7-2.9 1.2-3.6l12.6-4.7z" fill="#b0b1bc"/><path d="m1164 439.3c-2.7-4.5-5.5-9-8.1-13.5l-7.7-13.9 1.8-.6 15.5 26.3a2.9 2.9 0 00-.2.9z" fill="#6a6b75"/><path d="m1270.6 501.5c-1.8.7-3.7 1.1-5.3 1.9a50.2 50.2 0 01-25.8 5.6h-5.6l-1.3-1.5.9-.4.9-.3 3.3.4h8.8l1-.3h1.5l.9-.3 2-.2 1.4-.5c1.7 1.3 2.8.1 3.9-.8l2.8-1c1.5 0 3.1.3 3.5-1.8l1.4-.4 1.7-1.2.9-.3a13.9 13.9 0 001.9-.6l4.8-2.7z" fill="#a0a1ab"/><path d="m1165.5 437.6-15.5-26.3c.6.2 1.5.3 1.8.8 4.9 8.3 9.7 16.7 14.6 25.1z" fill="#4d4e58"/><path d="m1190.1 470.6-.7 1.1a3 3 0 01-.8.8l-8.6-11.1-2.6-2.8.4-.9 1.3-.6 9.6 12.7c.2.2.7.2 1.1.3z" fill="#b9bac3"/><path d="m1303.5 492 .3.9-.8.8-1.2-.7a15.3 15.3 0 00.7-3.6c0-9.2-.2-18.4-.2-27.6a7.3 7.3 0 01.7-2.4c0 3.1.1 6.2.1 9.3.2 1 .3 2 .5 2.9s-.6 1-.6 1.4c0 3.6.1 7.2.2 10.7l.6 1.9z" fill="#93959f"/><path d="m1179.1 457.1-1.3.6-6.2-8.4v-.4l1.3-1.6 6.5 9.2z" fill="#6a6b75"/><path d="m1172.9 447.3-1.3 1.6-1.6-2.6c-1.6-2.6-3.2-5.2-4.7-7.8a2.9 2.9 0 01.2-.9l.9-.4 3.3 5.1.7.9a5.9 5.9 0 01.4.8l.7.9z" fill="#a0a1ab"/><path d="m1288.4 471.3-2.2 3.9-1.4.5 6-12.5c.2.4.3.9.5 1.4l-1.7 4.2z" fill="#51525d"/><path d="m1179.1 457.1.3-.6 10.1 12.7c.2.2.2.6.3.9s-.9-.1-1.1-.3z" fill="#80818b"/><path d="m1274.2 497.1-4.8 2.7a13.9 13.9 0 01-1.9.6l-.3-.9.9-.3.8-.8.9-.3a22.6 22.6 0 002.2-1.1l6.5-5.1v1.4c-1.5 1.2-2.9 2.5-4.3 3.8z" fill="#93959f"/><path d="m1291.3 464.6c-.2-.5-.3-1-.5-1.4l1.5-3.2 1.4-.5z" fill="#5b5c67"/><path d="m1284.8 475.7 1.4-.5-2.1 4.4h-.5l-.3-.9z" fill="#5b5c67"/><path d="m1303.8 432.1-1.7 2.8-1.6 2.5a50.1 50.1 0 011.4-5.2c.1-.2 1.2-.1 1.9-.1z" fill="#51525d"/><path d="m1293.7 459.5-1.4.5c.4-1.2.9-2.3 1.3-3.5a5.8 5.8 0 01.5 1.4c-.1.5-.3 1.1-.4 1.6z" fill="#51525d"/><path d="m1294.1 457.9a5.8 5.8 0 00-.5-1.4l.6-1.3 1.4-.5z" fill="#5b5c67"/><path d="m1297.2 450.5c-.4 1-.9 2.1-1.4 3.1a6.9 6.9 0 01-.5-1.3l.6-1.3z" fill="#5b5c67"/><path d="m1295.3 452.3a6.9 6.9 0 00.5 1.3c-.1.4-.1.8-.2 1.1l-1.4.5c.4-1 .7-2 1.1-2.9z" fill="#51525d"/><path d="m1298.3 447.5-1.2 2.6a5.8 5.8 0 00-.5-1.4l.3-.7z" fill="#5b5c67"/><path d="m1233.5 507.1-.9.4-1.9-.9 1.4-.5.9-.3a6.9 6.9 0 01.5 1.3z" fill="#93959f"/><path d="m1296.6 448.7a5.8 5.8 0 01.5 1.4.6.6 0 01.1.4l-1.3.5z" fill="#51525d"/><path d="m1298.3 447.5-1.4.5c.3-.7.5-1.5.8-2.3a7.8 7.8 0 00.5 1.4.6.6 0 00.1.4z" fill="#51525d"/><path d="m1300.5 437.4-.8 2.4z" fill="#51525d"/><path d="m1299.7 439.8c-.2.7-.5 1.5-.7 2.3.2-.8.5-1.6.7-2.3z" fill="#51525d"/><path d="m1298.7 442.7a21.7 21.7 0 00-.7 2.4 21.7 21.7 0 01.7-2.4z" fill="#51525d"/><path d="m1303 493.7.8-.8v1.5z" fill="#878892"/><path d="m1209.6 601.9.7-1.5z" fill="#b0b1bc"/><path d="m1170.4 443.2-.7-.9z" fill="#6a6b75"/><path d="m1171.5 444.9-.7-.9z" fill="#6a6b75"/><path d="m1252.7 579.8.4-.6v.8z" fill="#c9cad4"/><path d="m1253.1 579.2.3-.6z" fill="#c9cad4"/><path d="m1167.1 682.1a21.3 21.3 0 013-3c7.9-4.6 15.8-9.3 23.8-13.6 14.6-7.8 30.1-13.2 45.8-18.1s31.4-8.3 47.6-9.2c.8-.1 1.6.5 2.4.8l-1.7 1.5-1.2.9-1.6 1.3-2.6 1.8a180.3 180.3 0 01-52.8 28.6c-7.3 2.5-14.7 4.7-22.2 6.7a98.7 98.7 0 01-32.9 3.5l-2.9.3-1.7-.5-1.7-.3z" fill="#2a2b35"/><path d="m1200.8 696.7-1.8.6h-1.1l-1.8.6h-1.1l-1.9.6h-1.1l-6.3 1.1h-1.1l-14.7 1-1.1-.2h-2.6l-5-.8-1.7-.4c-3.6-4-3.6-5.7.2-8.3l.9 1.2a.2.2 0 01.2.2c-.7.6-1.9 1.3-1.8 1.8s.9 2.4 1.6 2.6a48.7 48.7 0 0010 1.7 125.9 125.9 0 0031.8-3.9c9.6-2.3 19.1-4.7 28.5-7.5a146.5 146.5 0 0016.7-6.3c7.9-3.3 15.8-6.7 23.6-10.3a125.7 125.7 0 0027.3-16.9 41.9 41.9 0 006.4-6.9c1.6-2 .4-3.8-2.1-4a47 47 0 01-5.1-1.2l1.9-1.8h.5a25.1 25.1 0 004.6 1.6c2.7.7 3.6 2.1 2.9 4.7a15.5 15.5 0 00-.4 2.1h-.1l-1 1.4-3.1 2.6-.7.8-1.2.9-.8.8-5.4 4-.8.8-2.1 1.3-.8.7-.9.4-.8.7-3 1.7-.8.7-1.4.5-.7.8-1.4.5-.8.8-1.8.6a6 6 0 01-.8.8l-1.8.7-1.3.9-2.3.9-.8.7-2.2.8-1.3 1-2.7 1-1.8 1-3.2 1.2-1.7 1.1-4.6 1.7c-1.4-.2-2.7-.2-3.1 1.5l-9.7 3.5-7.8 2.7-10.2 3.5c-1.4-1.1-2.4-.2-3.4.8l-4.6 1.5-2 .3-3.2 1.1-2.1.2-2.3.8-2 .2-2.3.8z" fill="#5b5c67"/><path d="m1299.6 639.2-1.9 1.8-2.9 2.5-12.8 9.9c-1.1.9-2.5 1.3-3.1 0s.2-2.3.9-3c2.3-2 4.8-3.8 7.1-5.8l2.5-1.8 2-1.7 2.4-1.9c2.8-2.1 4.5-2.1 5.8 0z" fill="#2e2f39"/><path d="m1159.7 690.5c-3.8 2.6-3.8 4.3-.2 8.3-2.9-.3-5-3.1-3.6-5.6a29.8 29.8 0 0111.2-11.1l1.3.7-5.8 5.6c-1.5-.1-2.8.2-2.9 2.1z" fill="#4d4e58"/><path d="m1307.2 647.5a15.5 15.5 0 01.4-2.1c.7-2.6-.2-4-2.9-4.7a25.1 25.1 0 01-4.6-1.6c2.4.4 5.1.4 7.3 1.3s1.9 5.1-.2 7.1z" fill="#4d4e58"/><path d="m1293.8 639.2-2.4 1.9-3.4-.6 1.7-1.5c1.4 0 2.8-2 4.1.2z" fill="#51525d"/><g fill="#4d4e58"><path d="m1234.5 687.5 7.8-2.7z"/><path d="m1161.2 699.2 5 .8z"/><path d="m1252 681.3c.4-1.7 1.7-1.7 3.1-1.5z"/><path d="m1220.9 691.8c1-1 2-1.9 3.4-.8z"/><path d="m1204.7 695.9 2-.2z"/><path d="m1259.7 678.1 1.7-1.1z"/><path d="m1214.3 693.6 2-.3z"/><path d="m1209 694.9 2.1-.2z"/><path d="m1264.6 675.8 1.8-1z"/><path d="m1275.7 670.4 1.3-.9z"/><path d="m1269.1 673.8 1.3-1z"/><path d="m1159.5 698.8 1.7.4z"/><path d="m1306.1 648.9 1-1.4z"/><path d="m1289.5 662.4.8-.7z"/><path d="m1285.7 664.8.8-.7z"/><path d="m1283.6 666.1.7-.8z"/><path d="m1281.4 667.4.8-.8z"/><path d="m1278.8 668.8a6 6 0 00.8-.8 6 6 0 01-.8.8z"/><path d="m1272.6 672 .8-.7z"/><path d="m1302.3 652.8.7-.8z"/><path d="m1168.8 700.1 1.1.2z"/><path d="m1300.3 654.5.8-.8z"/><path d="m1294.1 659.3.8-.8z"/><path d="m1291.2 661.3.8-.7z"/></g><path d="m1282 576.9a74 74 0 01-8.7 2.2 5.6 5.6 0 01-4.1-1.2c-1.3-1.3-1-3.1.1-4.7s2.4-5.4 5.8-6.2c4.9-1.3 9.7-3 14.8-1.2a5.4 5.4 0 013 3.3c.2 1.1-1.1 2.9-2.2 3.6-3 1.7-6.1 3-8.7 4.2z" fill="#343540"/><path d="m1253.1 579.2.3-.6c.4-.1.9-.4 1.3-.3s2.2.6 2.5 1.3-.6 1.7-1 2.6a22.4 22.4 0 01-2.7-1.3c-.2-.1-.2-.6-.3-.9s-.1-.5-.1-.8z" fill="#343540"/><path d="m1308.3 559.6c2.3 1.7 2.4 2.2.7 4.3-1.6.2-2.8-.2-3.1-1.9s.8-2.3 2.4-2.4z" fill="#343540"/><path d="m1060.8 576.1c-4.4-5.1-8.8-10.1-13.1-15.3-2.2-2.6-4-5.4-5.9-8.1a2.9 2.9 0 01.2-.9l.7-.9a11.7 11.7 0 013.8.5c5.9 2.9 11.7 6 17.6 9 2.2 1.3 4.5 2.4 6.8 3.7s2.7 3 .8 4.9-5.1 4.7-7.7 7.1z" fill="#2a2b35"/><path d="m1064.1 560.4c-5.9-3-11.7-6.1-17.6-9a11.7 11.7 0 00-3.8-.5 4.3 4.3 0 00-.4-.7c-.4-.9-.9-1.7-1.3-2.6l2.8.4h1l2.5 1.2 3.2 2 13.2 6.3 2.9 1.1 1.3.6a9.1 9.1 0 002.3 1.5 32.1 32.1 0 005.3 1.5c3.8.5 7.7.8 11.5 1.1h1.6l.4-.2.8-.7 2-.2c.3 1.2.9 1.4 1.7.4h.5l.3 1a57.6 57.6 0 01-8.2 1.1 52.3 52.3 0 01-18.3-3.6 15 15 0 00-3.7-.7z" fill="#93959f"/><path d="m1060.8 576.1h3.2c-.7 1.6.2 2.8 1.1 4.1 4.9 7 9.8 14.1 14.6 21.2.9 1.3 1.6 2.8 2.4 4.2l-1.7.8c-2.9-4.6-5.8-9.3-8.9-13.9s-7.2-10.1-10.8-15.2c-.2-.2.1-.8.1-1.2z" fill="#878892"/><path d="m1132.3 535.4c-1.1 2.3-1.9 4.8-3.4 6.8a43.4 43.4 0 01-11.8 11.6 5.5 5.5 0 00-1.2 1.4l-1 .3-.8-.7.3-.7c1.5-1.3 2.9-2.7 4.3-4.1 4.2-1.8 6.3-5.7 9-8.8.8-.9 1.3-1.9 2-2.8z" fill="#8e9099"/><path d="m1086.2 583c-1.7.6-3.8-.2-4.3-1.7a3.9 3.9 0 012.1-4.4 3.7 3.7 0 014.2 2.2 3.2 3.2 0 01-2 3.9z" fill="#2e2f39"/><path d="m1098.6 572.4c.7-.9 1.3-2.3 2-2.4s2.1 1 3.1 1.6-.9 2.5-1.7 2.7-2.1-.5-3.1-.9z" fill="#343540"/><path d="m1099.9 581.7c-1.1 1.6-1.6 2.8-2.4 3.2a1.8 1.8 0 01-2.9-1.5 3.4 3.4 0 011.5-2.7c.7-.4 2 .5 3.8 1z" fill="#2e2f39"/><path d="m1107.1 559.8-5.6 2-.3-1 5.6-1.9z" fill="#8e9099"/><path d="m1101.2 560.8.3 1-2 .2c0-.2-.1-.3-.1-.5l-.3-.9z" fill="#93959f"/><path d="m1111.2 555.3.9-.4 1-.3v.5l.5 1.4-1.8.6-.2-.5z" fill="#8e9099"/><path d="m1099.4 561.5c0 .2.1.3.1.5l-2.3.8a16.3 16.3 0 00-1.1-1.7l2-.2z" fill="#8e9099"/><path d="m1107.1 559.8-.3-.9 1.8-.7.2.5z" fill="#93959f"/><path d="m1096.1 561.1 1.1 1.7h-1.5l-.5-1.4z" fill="#93959f"/><path d="m1113.7 556.5-.5-1.4.9-.3.8.7z" fill="#93959f"/><path d="m1108.8 558.7-.2-.5-.6-1.8.9-.3.3.9.5 1.4z" fill="#878892"/><path d="m1109.7 558.4-.5-1.4h1.6l.3.9z" fill="#8e9099"/><path d="m1095.2 561.4.5 1.4-1.4.5-.3-1z" fill="#8e9099"/><path d="m1111.1 557.9-.3-.9.9-.4.2.5z" fill="#93959f"/><path d="m1144.6 425.5c5.9-1.4 5.9-1.4 9.2 3.8l7.9 12.2a6.9 6.9 0 01.2 1.3l-2.7 2.2h-1.2l-8.8-13.7c-.8-1.3-1.6-1.7-2.9-.9s-2.8 1.1-2.5 3.3c1 6.2 1.7 12.5 2.6 18.7s1.4 10.1 2 15.1l19.4-6.8-2.3-3.4v-.9l3.2-2.8c2.1 2.9 4.8 5.4 4.7 9.3l-3.9 1.8-9.6 4.1-11.2 4.7c-2.6 1.1-4.9-.2-5.2-2.9-.7-5.1-1.2-10.2-1.8-15.3l-3-21.8c-.1-1-.3-1.9-.4-2.9s.8-3.4 2.7-4z" fill="#2e2f39"/><path d="m1163 477.9-10.6 4.2c-1.7.7-3.4 1-4.1-1s.7-3 2.5-3.6l10.5-4.4 5.4-2.1c-.2 1.7-1.6 3.3-.2 5.1h.1z" fill="#2e2f39"/><path d="m1169.3 484-3.5 1.8-6.2 2.7c-1.4.6-2.8.8-3.6-.8s.2-2.8 1.6-3.5 4.3-2.2 6.5-3.2l3.6-1.7 1.5 4.5z" fill="#2e2f39"/><path d="m1166.7 471-5.4 2.1-1.5-4.3 9.6-4.1 3.9-1.8a15.1 15.1 0 01-.9 1.8l-3.8 5.5z" fill="#a7a9b2"/><path d="m1147.4 499.4c2.2-.8 4.1.4 4.8 2.6a2.9 2.9 0 01-1.6 3.9c-1.6.6-4-.8-4.6-2.7s-.1-3.2 1.4-3.8z" fill="#2e2f39"/><path d="m1167.1 495.2c.8 2.3.1 4.1-1.4 4.6a2.5 2.5 0 01-3.4-1.6 3.3 3.3 0 011.7-4.1c1.6-.5 2.7.1 3.1 1.1z" fill="#31323d"/><path d="m1167.7 479.3-3.6 1.7c-.4-1-.7-2.1-1.1-3.1l3.6-1.7z" fill="#a9abb4"/><path d="m1239.3 533.3c-2.2.7-3.8.1-4.4-1.6a4.4 4.4 0 012.7-5.3 2.9 2.9 0 014.1 1.9c.8 2.3-.1 4.1-2.4 5z" fill="#343540"/><path d="m1256.3 521.8c.2 2.3.7 4.2-1.4 4.8s-3-.8-3.4-2.4a2.7 2.7 0 012-3.6c.9-.1 2 .9 2.8 1.2z" fill="#343540"/><path d="m1252.7 533.4c-.8 1.3-1.3 2.7-1.9 2.8s-1.9-.8-2.8-1.3.6-2.2 1.2-2.4 1.9.4 3.5.9z" fill="#343540"/><path d="m1276.4 526c.5 1.8 1.5 4-1 4.7s-3-1.6-3.6-3.3-.5-1.1-.3-1.4a30.1 30.1 0 011.6-3.1c.9.6 1.9 1.1 2.8 1.8s.3.9.5 1.3z" fill="#343540"/><path d="m1288.4 522.7c0-1.9-.3-3.3.1-4.6a2.9 2.9 0 012-1.7c.5-.1 1.6.8 1.9 1.5a19.1 19.1 0 01.7 4.7c0 .7-1.3 2.1-1.6 2a16.1 16.1 0 01-3.1-1.9z" fill="#343540"/><path d="m1167.7 479.3-1.1-3.1h-.1a85.8 85.8 0 008.3-3.5c.7-.4 1-1.8 1.4-2.7s-2-1.3-3-1.2a15.5 15.5 0 00-4.6 1.5l3.8-5.5a15.1 15.1 0 00.9-1.8l3.4-3.7.7-.5 2.6 2.8 8.6 11.1v.4l-.3.2-.7.8v.4l-11.4 15.8-3.2 4.4-3.7-10.5h-.1a23.8 23.8 0 005-2.6c.7-.6.9-2.1 1.3-3.1-1.2-.3-2.4-1-3.4-.8a21.9 21.9 0 00-4.4 2z" fill="#e3e3e6"/><path d="m1138.3 505.3c0-2.1-.2-4.1-.1-6.1a272.7 272.7 0 00-1.7-49.5c-.3-2.8-.6-5.5-.8-8.2-.1-.5.3-1 .5-1.5l.6 4.3c.6 5.4 1.3 10.8 1.9 16.1s.7 9.1 1.1 13.7 0 7.6-.1 11.4a18 18 0 01.2 2.2c-.3 5.6-.6 11.2-.8 16.7z" fill="#767780"/><path d="m1138.7 460.4c-.6-5.3-1.3-10.7-1.9-16.1l-.6-4.3a3.6 3.6 0 01-.4-.9v-1.6l-.3-.9v-1.5l-.4-.9v-1.6l-.3-.9v-1.6a3.6 3.6 0 00-.4-.9c-.1-1.5-.3-3-.5-4.5l-.3-.9c-.2-1.7-.5-3.3-.7-5a5.8 5.8 0 01-.5-1.4l1.9-.6.3.9c-.1.6-.3 1.2-.4 1.7a5.8 5.8 0 00.5 1.4v1.6a12.1 12.1 0 00.5 1.4v1.5l.3.9v1.6a7.8 7.8 0 01.5 1.4v1.1l.3.9v1.5a4.2 4.2 0 01.4 1v1.5l.3.9v1.6a5.8 5.8 0 01.5 1.4v1.1l.3.9c.2.4.3.9.5 1.4l.3.9c-.1 1.2-.1 2.5-.2 3.7l.3.9v1.1l.3 1a3.4 3.4 0 00-.1 1l.3 1-.2 1.1.4.9c-.1.3-.1.7-.2 1.1l.3.9a4.1 4.1 0 01-.1 1.1l.3.9c0 .4-.1.7-.1 1.1l.3.9z" fill="#878892"/><path d="m1095.2 561.4-1.2.9h-.5l-1.7-.4-2 .2-.8.7-.4.2-1.9-.9-5-.8 8.7-.6c6.1-.3 11.9-2.4 17.6-4.5l.6 1.8-1.8.7-5.6 1.9-2.1-.2-1 .3-2 .2z" fill="#767780"/><path d="m1037.8 548.8c-.2-.4-.3-.9-.5-1.3l-3.3-4.2c-1.1-1.4-1-2.4.9-2.8l.6.3 1.9.9 2.6 1.7 1.3.6 2.6 1.6a3 3 0 01.4 1c-1.5-.6-2.9-1.3-4.4-1.8a25.6 25.6 0 00-2.7-.5l-.3.8 4.8 6-2 .2a13.4 13.4 0 00-.7-1.8z" fill="#878892"/><path d="m1063.7 557.4-13.2-6.3-.4-1.4.9-.3 13.7 6.6.3.9z" fill="#878892"/><path d="m1081.7 561.5 5 .8.3.9c-3.8-.3-7.7-.6-11.5-1.1a32.1 32.1 0 01-5.3-1.5 9.1 9.1 0 01-2.3-1.5l.9-.4 7.9 1.9z" fill="#8e9099"/><path d="m1138.5 516.1c-.7 3.7-1.2 7.4-2.2 11.1-.5 2-1.8 3.8-2.8 5.7l-.4-.9.3-.6 3.3-11.6c.1-.9.3-1.8.5-2.8z" fill="#8e9099"/><path d="m1034.9 540.5c-1.9.4-2 1.4-.9 2.8l3.3 4.2a5.2 5.2 0 01-1.5-.6c-1.8-2.1-3.6-4.2-5.3-6.4a10 10 0 01-.9-2.6l.9-.7z" fill="#767780"/><path d="m1136.7 519.8-3.3 11.6c-.2-.5-.7-1-.5-1.4.8-3.1 1.7-6.1 2.6-9.1.1-.4.8-.7 1.2-1.1z" fill="#767780"/><path d="m1076.7 560.6-7.9-1.9-.3-.9z" fill="#767780"/><path d="m1138.5 516.1-1.3.9.3-5.3a13.6 13.6 0 01.4-1.7v-1.5a6 6 0 01.8-.8l.3 2.5v1.5c-.2 1.3-.4 2.6-.7 3.9z" fill="#878892"/><path d="m1133.1 532 .4.9-1.2 2.5-2.6 3c1.1-2.2 2.3-4.3 3.4-6.4z" fill="#80818b"/><path d="m1047.3 549.1-2.5-1.2a6.9 6.9 0 01-.5-1.3l.9-.4 3.9 2.3.3.9z" fill="#878892"/><path d="m1118.7 550c-1.4 1.4-2.8 2.8-4.3 4.1l-.3-.9z" fill="#767780"/><path d="m1132.9 418.8c.2 1.7.5 3.3.7 5-.2-1.7-.5-3.3-.7-5z" fill="#767780"/><path d="m1068.5 557.8.3.9-.9.4-1.3-.6a12.1 12.1 0 00-1.6-1.6l1-.3z" fill="#878892"/><path d="m1133.9 424.7c.2 1.5.4 3 .5 4.5-.1-1.5-.3-3-.5-4.5z" fill="#767780"/><path d="m1111.7 556.6-.9.4h-1.6l-.3-.9 2.3-.8c.2.4.3.9.5 1.3z" fill="#767780"/><path d="m1039.7 551.3 2-.2.3.7a2.9 2.9 0 00-.2.9z" fill="#767780"/><path d="m1138.3 505.3.8-.9-.6 2.9-.2-.5z" fill="#878892"/><path d="m1049.4 549.4-.3-.9 1.9.9-.9.3z" fill="#767780"/><path d="m1037.4 541.7-1.9-.9z" fill="#767780"/><path d="m1114.1 553.2.3.9-.3.7-.9.3v-1.6z" fill="#80818b"/><path d="m1113.2 553.5v1.1l-1 .3a17.1 17.1 0 001-1.4z" fill="#767780"/><path d="m1137.9 510a13.6 13.6 0 00-.4 1.7 13.6 13.6 0 01.4-1.7z" fill="#767780"/><path d="m1138.3 506.8.2.5c.1.1.1.3.2.4a6 6 0 00-.8.8c.1-.6.3-1.1.4-1.7z" fill="#767780"/><path d="m1066 556.6-1 .3-.3-.9z" fill="#767780"/><path d="m1045.2 546.2-.9.4a3 3 0 00-.4-1z" fill="#767780"/><path d="m1037.8 548.8 1.2.7z" fill="#767780"/><path d="m1041.3 544-1.3-.6z" fill="#767780"/><path d="m1085 609.5c7.2-3.4 14.8-4.3 22.6-3.7 20.2 1.6 35 11.7 45.7 28.4a27.2 27.2 0 011.1 2.5 200.3 200.3 0 00-33.1 26.3c-2.6 2.5-3.6 2.4-5.3-.7-3.4-6.3-6.9-12.7-10.5-18.9zm26 22.8c2-.6 2.9-2.1 2.4-3.8a4.9 4.9 0 00-5.5-2.9 3.4 3.4 0 00-2 4.4c.6 2.1 2.7 3 5.1 2.3zm12.5-7.2a4.8 4.8 0 00-2.1 1.4 4.7 4.7 0 00-.4 3.3c.2.4 2 .8 2.9.4a9.4 9.4 0 003.7-2.5 2.3 2.3 0 00.3-2.3c-.2-.5-1.2-.8-2-.9a6.2 6.2 0 00-2.4.6zm7.9-2.2c.8-2 1.9-3.8 1.6-4.2a5.3 5.3 0 00-3.8-1.8c-1.6.1-2.1 1.9-1.3 3.2s1.9 1.5 3.5 2.8z" fill="#b0b1bc"/><path d="m1085 609.5 20.5 33.9c3.6 6.2 7.1 12.6 10.5 18.9 1.7 3.1 2.7 3.2 5.3.7a200.3 200.3 0 0133.1-26.3l1.1 1.7a19.1 19.1 0 00-2.8 1.5c-6.5 4.7-13 9.3-19.3 14.3a94.5 94.5 0 00-10.9 10.1c-3.5 3.7-5.1 3.7-7.6-.7l-.9-1.2q-11.6-20.1-23.2-40.2c-2.3-4.1-4.7-8.1-7.1-12.1z" fill="#9698a1"/><path d="m1083.7 610.1c2.4 4 4.8 8 7.1 12.1q11.7 20.1 23.2 40.2l.9 1.2c2.5 4.4 4.1 4.4 7.6.7a94.5 94.5 0 0110.9-10.1c6.3-5 12.8-9.6 19.3-14.3a19.1 19.1 0 012.8-1.5l.8 1.2c-4.1 2.7-8.4 5.1-12.2 8.1-7.1 5.7-13.9 11.7-20.8 17.7a16.6 16.6 0 00-1.8 1.9c-2.1 2.3-4.9 2.3-6.5-.4-3.2-5.5-6.2-11.2-9.4-16.7-4.9-8.4-9.8-16.8-14.8-25.2-2.8-4.8-5.9-9.5-8.9-14.2z" fill="#80818b"/><path d="m1138.7 507.7c-.1-.1-.1-.3-.2-.4l.6-2.9c.2-5.5.5-11.1.8-16.7a18 18 0 00-.2-2.2 20.2 20.2 0 00.7-2.3c.1-2.5.1-4.9.1-7.3a15.3 15.3 0 01.7 2.9c-.4 9.7-.8 19.4-1.3 29.1a8.4 8.4 0 01-.9 2.3z" fill="#8e9099"/><path d="m1138.7 460.4.9-.3c.2.2.7.4.7.7.2 4.2.5 8.5.6 12.8.1.5-.5.9-.7 1.4l-.4-.9c-.4-4.6-.7-9.1-1.1-13.7z" fill="#8e9099"/><path d="m1139.8 474.1.4.9.3.9c0 2.4 0 4.8-.1 7.3a20.2 20.2 0 01-.7 2.3c.1-3.8.1-7.6.1-11.4z" fill="#878892"/><path d="m1138.3 515.6c.3-1.3.5-2.6.7-3.9-.2 1.3-.4 2.6-.7 3.9z" fill="#8e9099"/><path d="m1138.2 447.1c.1-1.2.1-2.5.2-3.7-.1 1.2-.1 2.5-.2 3.7z" fill="#8e9099"/><path d="m1134.2 419.4c.1-.5.3-1.1.4-1.7s-.3 1.2-.4 1.7z" fill="#8e9099"/><path d="m1138.1 442.5c-.2-.5-.3-1-.5-1.4s.3.9.5 1.4z" fill="#8e9099"/><path d="m1138.9 455.2c.1-.4.1-.8.2-1.1s-.1.7-.2 1.1z" fill="#8e9099"/><path d="m1139.1 457.2a4.1 4.1 0 00.1-1.1z" fill="#8e9099"/><path d="m1139.3 459.2c0-.4.1-.7.1-1.1s-.1.7-.1 1.1z" fill="#8e9099"/><path d="m1135.9 430.3c0-.4.1-.8.1-1.1z" fill="#8e9099"/><path d="m1138.6 451.1a3.4 3.4 0 01.1-1 3.4 3.4 0 00-.1 1z" fill="#8e9099"/><path d="m1138.7 453.2c.1-.4.1-.8.2-1.1z" fill="#8e9099"/><path d="m1188.6 472.9v-.4a3 3 0 00.8-.8 16.3 16.3 0 011.1 1.7l3 2.6c.5.9 1 1.7 1.4 2.6l2 1.4 2.1 2.9 1.9 2.1 6.3 6.5a5.2 5.2 0 01-1.8-1z" fill="#767780"/><path d="m1245.9 505.4.9-.3h1.6l.9-.3h1.6l1.3-.5.2.5-.8.8-1.4.5h-1.5l-.9.3h-7.3a10.9 10.9 0 01-2.4-.7l.5-.3 1.4-.4z" fill="#767780"/><path d="m1225.8 503.1a13.8 13.8 0 01-9.3-4.5h1.1l7.5 3.6a6 6 0 00.8.8z" fill="#767780"/><path d="m1207.2 491.5-6.3-6.5-1.9-2.1c.4 0 .9 0 1.1.2 2.8 2.8 5.5 5.7 8.2 8.5z" fill="#6a6b75"/><path d="m1255 503.3 5.7-1.6 1.4-.4.3.9-2.7 1-2.8 1-2.8.9-.3-.9z" fill="#767780"/><path d="m1284 483.7c.3 2.7-1.8 3.8-3.3 5.4a3.4 3.4 0 01.1-1v-1.6c1-.3 2-.6 1.3-2l.4-.2z" fill="#93959f"/><path d="m1269.8 498.1-.9.3a6 6 0 00-.8.8l-.9.3h-1.1l-.2-.5.9-.4 2.5-1.8.9-.4 3-2c-1.2 1.1-2.3 2.4-3.4 3.7z" fill="#767780"/><path d="m1233 505.8-.9.3-3.3-1.9 1-.3h1.5l1.2.6h1.1l.8.8z" fill="#767780"/><path d="m1214.4 497.3-4.2-3.2 1.1.2 1.2.6 1.6 1.5z" fill="#767780"/><path d="m1273.2 494.3-3 2 3.8-3.9a7.8 7.8 0 01.5 1.4z" fill="#6a6b75"/><path d="m1234.4 505.3-.8-.8 5 .8-.5.3-1.3.4-1.8-.4z" fill="#6a6b75"/><path d="m1245.9 505.4-5.9-.5z" fill="#6a6b75"/><path d="m1280.8 486.4v1.6l-1.5 1.5-.3.6-.5.2-.5-1.4a17.1 17.1 0 001.1-1.4l.7-.8z" fill="#767780"/><path d="m1283.6 479.7h.5c.2.4.3.9.5 1.3l.3.9-1.4.6-.9.3c.3-1.1.7-2.1 1-3.1z" fill="#6a6b75"/><path d="m1278 488.9.5 1.4-2.6 1.5h-.5z" fill="#6a6b75"/><path d="m1207.2 491.5h1.1l.8.7c.4.6.7 1.2 1.1 1.7z" fill="#767780"/><path d="m1193.5 476-3-2.6z" fill="#6a6b75"/><path d="m1255 503.3-1.2.9-1.4.5-.2-.5z" fill="#6a6b75"/><path d="m1262.1 501.3-1.4.4c.1-1.7 1.4-1.5 2.6-1.4l.2.5z" fill="#6a6b75"/><path d="m1269.3 496.7-2.5 1.8z" fill="#6a6b75"/><path d="m1228.8 504.2-3-1.1h.1l.9-.3 1.2.5.8.8z" fill="#767780"/><path d="m1275.4 491.9h.5l-1.4 2a7.8 7.8 0 00-.5-1.4z" fill="#767780"/><path d="m1282.1 484.4c.7 1.4-.3 1.7-1.3 2a4.1 4.1 0 01.1-1.1z" fill="#767780"/><path d="m1282.6 482.7.9-.3c.2.4.3.9.5 1.3l-1.5.5c0-.5.1-1 .1-1.5z" fill="#767780"/><path d="m1210.2 494c-.4-.5-.7-1.1-1.1-1.7l2.2 1.9z" fill="#6a6b75"/><path d="m1216.5 498.6-2.1-1.3h1.1l.7.3z" fill="#767780"/><path d="m1196.9 480-2-1.4z" fill="#6a6b75"/><path d="m1263.5 500.8-.2-.5 1.4-.5h.5l.3.9-.9.3z" fill="#767780"/><path d="m1265.2 499.7h-.5l1.2-.9.2.5z" fill="#6a6b75"/><path d="m1279.1 487.5a17.1 17.1 0 01-1.1 1.4 17.1 17.1 0 001.1-1.4z" fill="#6a6b75"/><path d="m1280.9 485.3a4.1 4.1 0 00-.1 1.1l-1 .3a17.1 17.1 0 001.1-1.4z" fill="#6a6b75"/><path d="m1228.8 504.1-.8-.8 1.8.5z" fill="#6a6b75"/><path d="m1226.8 502.8-.9.3a6 6 0 01-.8-.8z" fill="#6a6b75"/><path d="m1215.5 497.3h-1.1l-.3-.9z" fill="#6a6b75"/><path d="m1216.5 498.6-.3-1 1.4 1.1z" fill="#6a6b75"/><path d="m1232.5 504.4-1.2-.6z" fill="#6a6b75"/><path d="m1212.5 494.8-1.2-.6z" fill="#6a6b75"/><path d="m1303.4 454.6c.1.5.3.9.4 1.4l-1.3 2v-3.5c-.1-1.5-.4-2.9-.6-4.5l-2.8 1.4.6-2.8 1.6-2.1 1.3-1.2a10.1 10.1 0 01.7 1.5c.1 2.6.1 5.2.1 7.8z" fill="#93959f"/><path d="m1274.5 493.8 1.4-2 2.6-1.5.5-.2c-.1.4-.1.8-.2 1.1l-.3.7-6.5 5.1a22.6 22.6 0 01-2.2 1.1c1.1-1.3 2.2-2.6 3.4-3.8z" fill="#878892"/><path d="m1302.5 458 1.3-2v11.8c0 .3-.4.6-.7.9 0-3.1-.1-6.2-.1-9.3a7.8 7.8 0 01-.5-1.4z" fill="#878892"/><path d="m1292.1 466.9 2-3.3c1.3 2.1-.3 3.3-1.5 4.6-.2-.4-.3-.9-.5-1.3z" fill="#93959f"/><path d="m1287.2 478c.3-1 .7-2 1-3l1.4-.5c-.3 1.5.1 3.5-2.4 3.5z" fill="#93959f"/><path d="m1295.5 458.9 1.5-1.6c-.3 1-.6 2-1 3a7.8 7.8 0 00-.5-1.4z" fill="#93959f"/><path d="m1297.6 454.5.9-1.8c1.3 1.2.6 2-.5 2.7z" fill="#93959f"/><path d="m1284 483.7c-.2-.4-.3-.9-.5-1.3l1.4-.6.9-.3z" fill="#93959f"/><path d="m1292.1 466.9c.2.4.3.9.5 1.3l-1.5 1.6c.3-1 .7-1.9 1-2.9z" fill="#878892"/><path d="m1289.6 474.5-1.4.5 1.7-2.7z" fill="#878892"/><path d="m1278.8 491.2c.1-.3.1-.7.2-1.1l.3-.6 1.4-.5z" fill="#93959f"/><path d="m1295.5 458.9a7.8 7.8 0 01.5 1.4l-.9.3a10.5 10.5 0 00.4-1.7z" fill="#878892"/><path d="m1285.8 481.5-.9.3-.3-.9.9-.3z" fill="#878892"/><path d="m1297.6 454.5.4.9-1 .4z" fill="#878892"/><path d="m1303.4 454.6c0-2.6 0-5.2-.1-7.8a10.1 10.1 0 00-.7-1.5l-1.3 1.2-1.6 2.1c.3-3.4 2.4-7.1 4.7-7.5l-.3 12.6c0 .3-.5.6-.7.9z" fill="#878892"/><path d="m1303.2 483.7c-.1-3.5-.2-7.1-.2-10.7 0-.4.4-.9.6-1.4.1 3.6.2 7.2.2 10.7a3.5 3.5 0 01-.6 1.4z" fill="#878892"/><path d="m1303.5 492 .3-6.4z" fill="#878892"/><path d="m1288.4 471.3 1.2-2.5z" fill="#5b5c67"/><path d="m1161.9 442.8a6.9 6.9 0 00-.2-1.3l1.2-.9 1.1-1.3 1.3-.8c1.5 2.6 3.1 5.2 4.7 7.8l1.6 2.6v.4l-.7.9-2.6 2.4z" fill="#d4d5dd"/><path d="m1187.6 473.9.7-.8z" fill="#acaeb7"/><path d="m1236.8 506 1.3-.4a10.9 10.9 0 002.4.7h7.3l-.3.7-1 .3h-8.8l-1.4-1z" fill="#878892"/><path d="m1259.7 503.2 2.7-1h1.1c-.4 2.1-2 1.8-3.5 1.8z" fill="#93959f"/><path d="m1254.1 505.1 2.8-.9.3.9c-1.1.9-2.2 2.1-3.9.8z" fill="#93959f"/><path d="m1236.3 506.2 1.4 1-3.3-.4 1.4-.5z" fill="#93959f"/><path d="m1235.8 506.3-1.4.5-.9.3a6.9 6.9 0 00-.5-1.3l1.4-.5.6.3z" fill="#878892"/><path d="m1263.5 502.3h-1.1l-.3-.9 1.4-.5h1.1l.3 1z" fill="#878892"/><path d="m1254.1 505.1-.8.8-1.4.5-.3-.9.8-.8 1.4-.5z" fill="#878892"/><path d="m1257.2 505.1-.3-.9 2.8-1 .3.9z" fill="#878892"/><path d="m1251.6 505.5.3.9-2 .2.3-.6z" fill="#93959f"/><path d="m1265.2 499.7.9-.3h1.1l.3.9-.9.3h-1.1z" fill="#878892"/><path d="m1265.5 500.6h1.1l-1.7 1.2-.3-1z" fill="#93959f"/><path d="m1247.5 507 .3-.7.9-.3.3.9z" fill="#93959f"/><path d="m1249 506.9-.3-.9h1.5l-.3.6z" fill="#878892"/><path d="m1170.9 450.2.7-.9 6.2 8.4-.4.9-.7.5z" fill="#80818b"/><path d="m1268.1 499.2a6 6 0 01.8-.8z" fill="#878892"/><path d="m1286.9 644.6c-2.3 2-4.8 3.8-7.1 5.8-.7.7-1.3 2.3-.9 3s2 .9 3.1 0l12.8-9.9 4.7 1.5-1.1 1.2c-8.8 6.6-17.7 12.9-27.6 17.7s-18.1 9-27.4 12.6c-12.3 4.7-24.8 8.6-37.3 12.6a113.4 113.4 0 01-12.5 3l-5.5 1.4.3.7 2.3-.6c10.8-2.4 21.8-4.2 32.4-7.5 12.3-3.8 24.4-8.6 36.3-13.6a193.5 193.5 0 0023.6-12c6.3-3.8 11.9-8.5 17.7-13 .7-.6.8-2.2 1.1-3.4s2-.3 1.6.8a6.7 6.7 0 01-1.7 3.1c-3.6 3.1-7.2 6.2-11 8.9-12.5 8.6-26.1 15.1-40.1 20.7-9.9 4-20.2 7.2-30.4 10.2s-18.4 4.8-27.7 6.6a88 88 0 01-27.6 1.6c-3.4-.4-3.8-.8-4.1-4.1a.2.2 0 00-.2-.2c5.2.7 10.3 1.6 15.5 2.1a57.8 57.8 0 009.3 0c.8-.1 1.6-1.1 2.3-1.7a11.6 11.6 0 00-2.4-1.4c-.6-.3-1.3 0-1.9-.1l-15.9-1.2 1.8-2.6 2.5-3.2 2.9-.3a98.7 98.7 0 0032.9-3.5c7.5-2 14.9-4.2 22.2-6.7a180.3 180.3 0 0052.8-28.6l2.6-1.8z" fill="#9698a1"/><path d="m1171.8 683.6-2.5 3.2-1.8 2.6-2.6-.4a27.8 27.8 0 012.1-2.7l3.1-3.2z" fill="#878892"/><path d="m1170.1 683.1-3.1 3.2a27.8 27.8 0 00-2.1 2.7l-2.3-.6 5.8-5.6z" fill="#6a6b75"/><path d="m1286.9 644.6-1.7-1.9 1.6-1.3 2.6 1.4z" fill="#878892"/><path d="m1289.4 642.8-2.6-1.4 1.2-.9 3.4.6z" fill="#6a6b75"/><path d="m1160.8 691.9c.3 3.3.7 3.7 4.1 4.1a88 88 0 0027.6-1.6c9.3-1.8 18.6-4 27.7-6.6s20.5-6.2 30.4-10.2c14-5.6 27.6-12.1 40.1-20.7 3.8-2.7 7.4-5.8 11-8.9a6.7 6.7 0 001.7-3.1c.4-1.1-.3-1.4-1.6-.8l-2.3.9-4.7-1.5 2.9-2.5a47 47 0 005.1 1.2c2.5.2 3.7 2 2.1 4a41.9 41.9 0 01-6.4 6.9 125.7 125.7 0 01-27.3 16.9c-7.8 3.6-15.7 7-23.6 10.3a146.5 146.5 0 01-16.7 6.3c-9.4 2.8-18.9 5.2-28.5 7.5a125.9 125.9 0 01-31.8 3.9 48.7 48.7 0 01-10-1.7c-.7-.2-1.4-1.7-1.6-2.6s1.1-1.2 1.8-1.8z" fill="#8c8d97"/><path d="m1162.6 688.4 2.3.6 2.6.4 15.9 1.2c.6.1 1.3-.2 1.9.1a11.6 11.6 0 012.4 1.4c-.7.6-1.5 1.6-2.3 1.7a57.8 57.8 0 01-9.3 0c-5.2-.5-10.3-1.4-15.5-2.1l-.9-1.2c.1-1.9 1.4-2.2 2.9-2.1z" fill="#2e2f39"/><path d="m1042 551.8-.3-.7-4.8-6 .3-.8a25.6 25.6 0 012.7.5c1.5.5 2.9 1.2 4.4 1.8a6.9 6.9 0 00.5 1.3h-1l-2.8-.4c.4.9.9 1.7 1.3 2.6a4.3 4.3 0 01.4.7z" fill="#8e9099"/><path d="m1049.4 549.4.7.3.4 1.4-3.2-2z" fill="#8e9099"/><path d="m1065 556.9a12.1 12.1 0 011.6 1.6l-2.9-1.1z" fill="#8e9099"/><path d="m1087 563.2-.3-.9 1.9.9z" fill="#878892"/><path d="m1091.8 562.1 1.7.4c-.8 1-1.4.8-1.7-.4z" fill="#8e9099"/><path d="m1089 563 .8-.7z" fill="#878892"/><path d="m1098.1 560.9 1-.3.3.9z" fill="#878892"/><path d="m1158.1 464-9.7 3.4c-.6-5-1.3-10.1-2-15.1s-1.6-12.5-2.6-18.7c-.3-2.2.3-3.2 2.5-3.3z" fill="#9698a1"/><path d="m1158.1 464-11.8-33.7c1.3-.8 2.1-.4 2.9.9l8.8 13.7a5.6 5.6 0 01.5.8l.4.7c-.6 1.1-1.8 2.3-1.6 3.1 1.1 4 2.6 7.9 4.1 12.2l4.1-4.5 2.3 3.4z" fill="#acaeb7"/><path d="m1158.9 446.4a2.5 2.5 0 01-.4-.7l.7-.7 2.7-2.2 6.4 9.8.3.9-3.2 2.8c-2.2-3.3-4.4-6.6-6.5-9.9z" fill="#515364"/><path d="m1158.9 446.4c2.1 3.3 4.3 6.6 6.5 9.9 0 .3.1.6.1.9l-4.1 4.5c-1.5-4.3-3-8.2-4.1-12.2-.2-.8 1-2 1.6-3.1z" fill="#e3e3e6"/><path d="m1168.6 453.5-.3-.9 2.6-2.4 5.8 8.9-3.4 3.7c.1-3.9-2.6-6.4-4.7-9.3z" fill="#a7a9b2"/><path d="m1159.2 445-.7.7a5.6 5.6 0 00-.5-.8z" fill="#343540"/><path d="m1168.6 470.2a15.5 15.5 0 014.6-1.5c1-.1 2 .8 3 1.2s-.7 2.3-1.4 2.7a85.8 85.8 0 01-8.3 3.5c-1.4-1.8 0-3.4.2-5.1z" fill="#5b5c67"/><path d="m1167.7 479.4a21.9 21.9 0 014.4-2c1-.2 2.2.5 3.4.8-.4 1-.6 2.5-1.3 3.1a23.8 23.8 0 01-5 2.6z" fill="#5b5c67"/><path d="m1111 632.3c-2.4.7-4.5-.2-5.1-2.3a3.4 3.4 0 012-4.4 4.9 4.9 0 015.5 2.9c.5 1.7-.4 3.2-2.4 3.8z" fill="#31323d"/><path d="m1123.5 625.1a6.2 6.2 0 012.4-.6c.8.1 1.8.4 2 .9a2.3 2.3 0 01-.3 2.3 9.4 9.4 0 01-3.7 2.5c-.9.4-2.7 0-2.9-.4a4.7 4.7 0 01.4-3.3 4.8 4.8 0 012.1-1.4z" fill="#2e2f39"/><path d="m1131.4 622.9c-1.6-1.3-2.9-1.8-3.5-2.8s-.3-3.1 1.3-3.2a5.3 5.3 0 013.8 1.8c.3.4-.8 2.2-1.6 4.2z" fill="#31323d"/><path d="m1280.7 489-1.4.5 1.5-1.5a3.4 3.4 0 00-.1 1z" fill="#878892"/><path d="m1235.8 506.3-.8-.7 1.8.4-.5.2z" fill="#767780"/><path d="m1299.5 645 2.3-.9c-.3 1.2-.4 2.8-1.1 3.4-5.8 4.5-11.4 9.2-17.7 13a193.5 193.5 0 01-23.6 12c-11.9 5-24 9.8-36.3 13.6-10.6 3.3-21.6 5.1-32.4 7.5l-2.3.6-.3-.7 5.5-1.4a113.4 113.4 0 0012.5-3c12.5-4 25-7.9 37.3-12.6 9.3-3.6 18.3-8.3 27.4-12.6s18.8-11.1 27.6-17.7z" fill="#a7a9b2"/></svg>
