<svg version="1.1" viewBox="0 0 3000 3000" xmlns="http://www.w3.org/2000/svg" xmlns:xlink="http://www.w3.org/1999/xlink"><clipPath id="a"><path d="m1059 1559.5c-49-6-141 48-172.7 95.9-30.7 46.3-57.9 101.2-89.4 111.4s-94.4-5.9-114-115.7 89.4-168.5 102.1-175.3l-10.5 5c-56.8 23.5-162.3 57.2-180.1-12.6-23.4-92.4 96.2-84.3 23-155.7s-77.7-194.7-77.7-194.7c2-142.3 206.4-8.9 311.3 76.7 145.5 118.6 214 227 214 227s57.4 58.4 54.4 88.4-32.7 49.4-46.5 49.5z"/></clipPath><linearGradient id="b"><stop stop-color="#fff" stop-opacity="0" offset="0"/><stop stop-color="#fff" offset=".72"/></linearGradient><linearGradient id="c" x1="730.03" x2="521.54" y1="1301.9" y2="1501.4" gradientUnits="userSpaceOnUse" xlink:href="#b"/><linearGradient id="d" x1="702.65" x2="1021.8" y1="1487.2" y2="1471.8" gradientUnits="userSpaceOnUse"><stop stop-color="#808080" stop-opacity="0" offset="0"/><stop stop-color="#636363" stop-opacity=".32" offset=".41"/><stop stop-color="#242424" offset="1"/></linearGradient><linearGradient id="e" x1="796.82" x2="616.28" y1="1388.7" y2="962.47" xlink:href="#c"/><linearGradient id="f" x1="687.57" x2="587.07" y1="1236.4" y2="1113.4" xlink:href="#c"/><linearGradient id="g" x1="762.61" x2="683.95" y1="1348.9" y2="1320.9" xlink:href="#c"/><linearGradient id="h" x1="921.09" x2="623.79" y1="1540.2" y2="1567" xlink:href="#c"/><linearGradient id="i" x1="740.26" x2="635.68" y1="1487.3" y2="1380" xlink:href="#c"/><linearGradient id="j" x1="875.53" x2="644.53" y1="1596.4" y2="1567.4" xlink:href="#c"/><clipPath id="k"><path d="m1800.7 1559.5c49-6 141 48 172.7 95.9 30.7 46.3 57.9 101.2 89.4 111.4s94.4-5.9 114-115.7-89.4-168.5-102.1-175.3l10.5 5c56.8 23.5 162.3 57.2 180.1-12.6 23.4-92.4-96.2-84.3-23-155.7s77.7-194.7 77.7-194.7c-2-142.3-206.3-8.9-311.3 76.7-145.5 118.6-214 227-214 227s-57.4 58.4-54.4 88.4 32.7 49.4 46.5 49.5z"/></clipPath><linearGradient id="l" x1="1237.5" x2="1029" y1="1301.9" y2="1501.4" gradientTransform="matrix(-1 0 0 1 3367.2 0)" xlink:href="#c"/><linearGradient id="m" x1="1210.2" x2="1529.3" y1="1487.2" y2="1471.8" gradientTransform="matrix(-1 0 0 1 3367.2 0)" xlink:href="#d"/><linearGradient id="n" x1="1304.3" x2="1123.8" y1="1388.7" y2="962.47" gradientTransform="matrix(-1 0 0 1 3367.2 0)" xlink:href="#c"/><linearGradient id="o" x1="1195.1" x2="1094.6" y1="1236.4" y2="1113.4" gradientTransform="matrix(-1 0 0 1 3367.2 0)" xlink:href="#c"/><linearGradient id="p" x1="1270.1" x2="1191.4" y1="1348.9" y2="1320.9" gradientTransform="matrix(-1 0 0 1 3367.2 0)" xlink:href="#c"/><linearGradient id="q" x1="1428.6" x2="1131.3" y1="1540.2" y2="1567" gradientTransform="matrix(-1 0 0 1 3367.2 0)" xlink:href="#c"/><linearGradient id="r" x1="1247.8" x2="1143.2" y1="1487.3" y2="1380" gradientTransform="matrix(-1 0 0 1 3367.2 0)" xlink:href="#c"/><linearGradient id="s" x1="1383" x2="1152" y1="1596.4" y2="1567.4" gradientTransform="matrix(-1 0 0 1 3367.2 0)" xlink:href="#c"/><clipPath id="t"><path d="m1206.4 868c-10.2-22.6-28.8-40.8-50.7-52.5s-46.7-17-71.5-17.6c-19.9-.5-40.6 2.3-57.7 12.7-26.3 16.1-39.6 48.4-38.9 79.2s13.5 60.1 29.8 86.3a336.3 336.3 0 0063.3 74.9v.2c-12.7 30.6-22.4 57.9-27.8 73.8a172.1 172.1 0 01-9.7 21.8 302 302 0 01-50.9 70.6 408.2 408.2 0 00-28.3 32.7c-24.8 32-46.5 66.1-63.3 103.3 21.2-15 43.8-22.6 64.2-36.7-14.1 25.9-20.2 55.2-26.1 84a465.4 465.4 0 0165.1-44.9c-8.4 27.2.5 57.8 18.6 79.8l2.4 2.8v5.5l-28.6 150.3-17 89.8-60 315.5a248.9 248.9 0 0012.6 117.5l-.6.3c-38.1 9.1-130.4 43.4-184.5 78.3-26.5 17.1-10.1 55.9 23.2 55.3l266.9-5.2q6.8 4.1 13.8 7.9l.2 3.4c.4 23.3-6.7 42.4-29.9 43.6-15.6.8-28.2 9.9-30.6 21.1-4.7 21.5 5.8 38.9 27.2 40.4l84.3 5c26.4 1.6 51.9-11.3 65.3-34.1a71.4 71.4 0 008.8-23.9l5-26.6h533.6l3.5 20.7a71.6 71.6 0 0043.1 54.3 53.5 53.5 0 0022.3 4l91.8-3c22-2.2 30.1-15.7 27.9-36.9-.7-6.9-6.2-24.5-24.5-25.5-15.8-.9-25.2-8.6-28.1-21.9a246.8 246.8 0 0065.4-28.1l261.5 5.1c33.3.6 49.2-37.5 23.2-55.3-43-29.4-132.4-61.7-179.8-75.5l-.8-.3a248.1 248.1 0 006.4-155.8l-88.4-287.5-29.7-96.5-50.6-164.7v-2.5c12.8-22.4 17.1-50.1 7.6-73.9a465.4 465.4 0 0168.5 39.5c-8.2-28.3-16.7-57-32.8-81.6 21.5 12.4 52.2 18.7 71.9 29.9-21.3-32.8-45.2-70.4-76.3-96.4-37-30.9-54.3-55-82.3-109-12-23.1-30.4-57.3-52-93.3l.4-.2a336.4 336.4 0 0060-86.4c13.4-27.7 23-58.3 20.5-88.9s-19.2-61.5-47-74.6c-18-8.5-38.9-9.1-58.7-6.5-24.6 3.2-48.7 11.1-69.2 25.1s-37.1 34-44.9 57.5l-3.1 7.7-6.3-4.1a240.6 240.6 0 00-54.9-21.5l-10.1-3-2.2-1.4c15.3-25.7 49.9-40.7 49.9-40.7-26.7-27.5-75 2-75 2 18.3-46.5 101.9-59.5 101.9-59.5-104.8-85-197.2 24-197.2 24-9-24 15.3-59 15.3-59-62.7 3-61.3 57-70 57-46.7-44-107.4-29-107.4-29 31.9 8 64.2 78 64.2 78-77.9-36-110.3 4.3-110.3 4.3 28.7 2.8 47 15.2 58.4 27.5l-2.1 1.7a240.5 240.5 0 00-67.8 31.7v-2z"/></clipPath><linearGradient id="u"><stop stop-color="#808080" offset="0"/><stop stop-color="#797979" offset=".14"/><stop stop-color="#646464" offset=".35"/><stop stop-color="#434343" offset=".6"/><stop stop-color="#141414" offset=".89"/><stop offset="1"/></linearGradient><linearGradient id="v" x1="1713.3" x2="1713.3" y1="794.55" y2="927.94" gradientUnits="userSpaceOnUse" xlink:href="#u"/><linearGradient id="w" x1="1041.2" x2="1175.2" y1="888.73" y2="888.73" xlink:href="#v"/><clipPath id="x"><path d="m1206.4 868c-10.2-22.6-28.8-40.8-50.7-52.5s-46.7-17-71.5-17.6c-19.9-.5-40.6 2.3-57.7 12.7-26.3 16.1-39.6 48.4-38.9 79.2s13.5 60.1 29.8 86.3a336.3 336.3 0 0063.3 74.9v.2c-12.7 30.6-22.4 57.9-27.8 73.8a172.1 172.1 0 01-9.7 21.8 302 302 0 01-50.9 70.6 408.2 408.2 0 00-28.3 32.7c-24.8 32-46.5 66.1-63.3 103.3 21.2-15 43.8-22.6 64.2-36.7-14.1 25.9-20.2 55.2-26.1 84a465.4 465.4 0 0165.1-44.9c-8.4 27.2.5 57.8 18.6 79.8l2.4 2.8v5.5l-28.6 150.3-17 89.8-60 315.5a248.9 248.9 0 0012.6 117.5l-.6.3c-38.1 9.1-130.4 43.4-184.5 78.3-26.5 17.1-10.1 55.9 23.2 55.3l266.9-5.2q6.8 4.1 13.8 7.9l.2 3.4c.4 23.3-6.7 42.4-29.9 43.6-15.6.8-28.2 9.9-30.6 21.1-4.7 21.5 5.8 38.9 27.2 40.4l84.3 5c26.4 1.6 51.9-11.3 65.3-34.1a71.4 71.4 0 008.8-23.9l5-26.6h533.6l3.5 20.7a71.6 71.6 0 0043.1 54.3 53.5 53.5 0 0022.3 4l91.8-3c22-2.2 30.1-15.7 27.9-36.9-.7-6.9-6.2-24.5-24.5-25.5-15.8-.9-25.2-8.6-28.1-21.9a246.8 246.8 0 0065.4-28.1l261.5 5.1c33.3.6 49.2-37.5 23.2-55.3-43-29.4-132.4-61.7-179.8-75.5l-.8-.3a248.1 248.1 0 006.4-155.8l-88.4-287.5-29.7-96.5-50.6-164.7v-2.5c12.8-22.4 17.1-50.1 7.6-73.9a465.4 465.4 0 0168.5 39.5c-8.2-28.3-16.7-57-32.8-81.6 21.5 12.4 52.2 18.7 71.9 29.9-21.3-32.8-45.2-70.4-76.3-96.4-37-30.9-54.3-55-82.3-109-12-23.1-30.4-57.3-52-93.3l.4-.2a336.4 336.4 0 0060-86.4c13.4-27.7 23-58.3 20.5-88.9s-19.2-61.5-47-74.6c-18-8.5-38.9-9.1-58.7-6.5-24.6 3.2-48.7 11.1-69.2 25.1s-37.1 34-44.9 57.5l-3.1 7.7-6.3-4.1a240.6 240.6 0 00-54.9-21.5l-10.1-3-2.2-1.4c15.3-25.7 49.9-40.7 49.9-40.7-26.7-27.5-75 2-75 2 18.3-46.5 101.9-59.5 101.9-59.5-104.8-85-197.2 24-197.2 24-9-24 15.3-59 15.3-59-62.7 3-61.3 57-70 57-46.7-44-107.4-29-107.4-29 31.9 8 64.2 78 64.2 78-77.9-36-110.3 4.3-110.3 4.3 28.7 2.8 47 15.2 58.4 27.5l-2.1 1.7a240.5 240.5 0 00-67.8 31.7v-2z"/></clipPath><linearGradient id="y" x1="1180.9" x2="1714.5" y1="2154" y2="2154" gradientUnits="userSpaceOnUse"><stop stop-color="#808080" offset="0"/><stop stop-color="#7d7d7d" offset=".27"/><stop stop-color="#747474" offset=".46"/><stop stop-color="#646464" offset=".64"/><stop stop-color="#4d4d4d" offset=".8"/><stop stop-color="#303030" offset=".95"/><stop stop-color="#242424" offset="1"/></linearGradient><linearGradient id="z" x1="1734.4" x2="1734.4" y1="814.46" y2="1014.8" gradientUnits="userSpaceOnUse" xlink:href="#u"/><linearGradient id="A" x1="990.36" x2="990.36" y1="1436.8" y2="2254.4" xlink:href="#y"/><linearGradient id="B" x1="1971.8" x2="1971.8" y1="1970.2" y2="2305.1" xlink:href="#y"/><linearGradient id="C" x1="1694.1" x2="1694.1" y1="767.31" y2="956.85" gradientTransform="matrix(-.98 .19 .19 .98 2599.6 -240.56)" xlink:href="#z"/><linearGradient id="D" x1="906.71" x2="1004.8" y1="1303" y2="1303" xlink:href="#y"/><linearGradient id="E" x1="941.39" x2="1103.3" y1="1384.4" y2="1384.4" xlink:href="#y"/><linearGradient id="F" x1="1067.9" x2="1293.2" y1="969.65" y2="969.65" xlink:href="#y"/><linearGradient id="G" x1="1268.4" x2="1368.7" y1="774.71" y2="774.71" xlink:href="#y"/><linearGradient id="H" x1="1367.3" x2="1439.6" y1="731.28" y2="731.28" xlink:href="#y"/><linearGradient id="I" x1="1425" x2="1626.4" y1="727.23" y2="727.23" xlink:href="#y"/><linearGradient id="J" x1="1506.5" x2="1602.8" y1="803.26" y2="803.26" xlink:href="#y"/><linearGradient id="K" x1="1219.1" x2="1296.2" y1="833.25" y2="833.25" xlink:href="#y"/><clipPath id="L"><path d="m1206.4 868c-10.2-22.6-28.8-40.8-50.7-52.5s-46.7-17-71.5-17.6c-19.9-.5-40.6 2.3-57.7 12.7-26.3 16.1-39.6 48.4-38.9 79.2s13.5 60.1 29.8 86.3a336.3 336.3 0 0063.3 74.9v.2c-12.7 30.6-22.4 57.9-27.8 73.8a172.1 172.1 0 01-9.7 21.8 302 302 0 01-50.9 70.6 408.2 408.2 0 00-28.3 32.7c-24.8 32-46.5 66.1-63.3 103.3 21.2-15 43.8-22.6 64.2-36.7-14.1 25.9-20.2 55.2-26.1 84a465.4 465.4 0 0165.1-44.9c-8.4 27.2.5 57.8 18.6 79.8l2.4 2.8v5.5l-28.6 150.3-17 89.8-60 315.5a248.9 248.9 0 0012.6 117.5l-.6.3c-38.1 9.1-130.4 43.4-184.5 78.3-26.5 17.1-10.1 55.9 23.2 55.3l266.9-5.2q6.8 4.1 13.8 7.9l.2 3.4c.4 23.3-6.7 42.4-29.9 43.6-15.6.8-28.2 9.9-30.6 21.1-4.7 21.5 5.8 38.9 27.2 40.4l84.3 5c26.4 1.6 51.9-11.3 65.3-34.1a71.4 71.4 0 008.8-23.9l5-26.6h533.6l3.5 20.7a71.6 71.6 0 0043.1 54.3 53.5 53.5 0 0022.3 4l91.8-3c22-2.2 30.1-15.7 27.9-36.9-.7-6.9-6.2-24.5-24.5-25.5-15.8-.9-25.2-8.6-28.1-21.9a246.8 246.8 0 0065.4-28.1l261.5 5.1c33.3.6 49.2-37.5 23.2-55.3-43-29.4-132.4-61.7-179.8-75.5l-.8-.3a248.1 248.1 0 006.4-155.8l-88.4-287.5-29.7-96.5-50.6-164.7v-2.5c12.8-22.4 17.1-50.1 7.6-73.9a465.4 465.4 0 0168.5 39.5c-8.2-28.3-16.7-57-32.8-81.6 21.5 12.4 52.2 18.7 71.9 29.9-21.3-32.8-45.2-70.4-76.3-96.4-37-30.9-54.3-55-82.3-109-12-23.1-30.4-57.3-52-93.3l.4-.2a336.4 336.4 0 0060-86.4c13.4-27.7 23-58.3 20.5-88.9s-19.2-61.5-47-74.6c-18-8.5-38.9-9.1-58.7-6.5-24.6 3.2-48.7 11.1-69.2 25.1s-37.1 34-44.9 57.5l-3.1 7.7-6.3-4.1a240.6 240.6 0 00-54.9-21.5l-10.1-3-2.2-1.4c15.3-25.7 49.9-40.7 49.9-40.7-26.7-27.5-75 2-75 2 18.3-46.5 101.9-59.5 101.9-59.5-104.8-85-197.2 24-197.2 24-9-24 15.3-59 15.3-59-62.7 3-61.3 57-70 57-46.7-44-107.4-29-107.4-29 31.9 8 64.2 78 64.2 78-77.9-36-110.3 4.3-110.3 4.3 28.7 2.8 47 15.2 58.4 27.5l-2.1 1.7a240.5 240.5 0 00-67.8 31.7v-2z"/></clipPath><linearGradient id="M" x1="1964.9" x2="1964.9" y1="2256.4" y2="1328.2" gradientUnits="userSpaceOnUse" xlink:href="#b"/><linearGradient id="N" x1="1773.6" x2="1773.6" y1="1349" y2="834.22" xlink:href="#M"/><linearGradient id="O" x1="909.45" x2="1050.7" y1="1840.3" y2="1840.3" xlink:href="#M"/><linearGradient id="P" x1="2116.3" x2="2116.3" y1="2249" y2="2113.3" xlink:href="#M"/><linearGradient id="Q" x1="1044.7" x2="1044.7" y1="2253.1" y2="2117.4" gradientTransform="matrix(-1 0 0 1 1878.8 0)" xlink:href="#M"/><linearGradient id="R" x1="1812.6" x2="1812.6" y1="1046.8" y2="742.81" xlink:href="#M"/><linearGradient id="S" x1="1042.4" x2="1042.4" y1="1071.5" y2="760.81" xlink:href="#M"/><linearGradient id="T" x1="1836.8" x2="1942.8" y1="1333.4" y2="1333.4" xlink:href="#M"/><linearGradient id="U" x1="1779.6" x2="1887.1" y1="1394.6" y2="1394.6" xlink:href="#M"/><clipPath id="V"><circle transform="matrix(.13053 -.99144 .99144 .13053 381.9 2638.3)" cx="1696" cy="1101.3" r="129.7"/></clipPath><clipPath id="W"><circle transform="matrix(.99144 -.13053 .13053 .99144 -137.7 163)" cx="1168.9" cy="1127" r="129.7"/></clipPath><clipPath id="X"><path d="m1353.5 1311.9s24.8 61 78.8 61 74-61.4 74-61.4-44.9-7.8-68.8-85.4c0 0-24 89.7-84 85.8z"/></clipPath><clipPath id="Y"><path d="m1506.3 1348.8s-48.8-13.2-69.9-12.3c0 0-44.6-1.9-63.4 18.9 0 0 12.2 33.6 61.9 33.6s65.4.8 71.4-40.2z"/></clipPath><path d="m1059 1559.5c-49-6-141 48-172.7 95.9-30.7 46.3-57.9 101.2-89.4 111.4s-94.4-5.9-114-115.7 89.4-168.5 102.1-175.3l-10.5 5c-56.8 23.5-162.3 57.2-180.1-12.6-23.4-92.4 96.2-84.3 23-155.7s-77.7-194.7-77.7-194.7c2-142.3 206.4-8.9 311.3 76.7 145.5 118.6 214 227 214 227s57.4 58.4 54.4 88.4-32.7 49.4-46.5 49.5z" fill="#f7bc56"/><g clip-path="url(#a)"><path d="m631.5 1246c-30.1-22.8-51.2-65-35.3-85.9s80.5-5.7 114.6 18.9 65.8 73.6 46.9 91.7c-11.2 10.7-96.1-1.8-126.2-24.7z" fill="#385877"/><g fill="#f4e65d"><path d="m741.5 1363.7c-27.7-4.3-44.4-11.3-40.9-27.4s31.3-18.8 56.9-13.8 65.9 22.7 65.3 30.8c-.8 9.6-55.6 14.4-81.3 10.4z"/><path d="m911 1541.4c-14.5 8-27.4 13.9-34.4 6.3s-4.4-21.1 9.7-29.6 51.7-17.6 71.6-8.8c5.3 2.4-31.3 23.5-46.9 32.1z"/><path d="m655.5 1407.5c-19.2 12.1-28.5 34.3-14.3 52.9s42.6 10.9 63.5 2.2 75.8-43.2 59.5-59.7c-20.2-20.4-81.3-12.6-108.7 4.6z"/></g><path d="m815.5 1626c-17.6 33.4-50.7 50.6-74 38.4s-27.8-49.2-10.2-82.7 70.4-51.3 91.4-35.5c12.3 9.2 10.3 46.3-7.2 79.8z" fill="#385877"/><path d="m875.7 1497c-24.2 10.4-56.4 29.9-64.8 19.5-10.4-12.9 15-33.7 48.5-42.3 26.2-6.7 76.3-13.7 133.8 3.7 6.4 1.9-60.5-5.4-117.5 19.1z" fill="#f4e65d"/><path d="m827.3 1412.7c-17.7 1.7-32.7-3.1-33.4-10.6s10.7-14.2 28.5-13.9c19.6.4 45.9 8.3 45.4 12.2s-22.8 10.7-40.5 12.3z" fill="#385877"/></g><g clip-path="url(#a)"><path d="m989.5 1452.2c-80.6-28-171.5 9.4-179.3 12.6s-192.2 97.6-216.2 3.4c-23.4-92.4 96.2-84.3 23-155.7s-77.7-194.6-77.7-194.6c.6-38.8 16.1-57.1 40.6-61.5l-1.1.4c-37 20.4 73.8 57.7 73.8 57.7 137 41 193.8 191.6 227 251 26.8 47.9 73.3 73.6 111.4 87.2" fill="url(#c)" opacity=".7"/><path d="m974 1311.9s-17.4 29.1-64.5-25.5c-103.5-120-288-221.5-324.3-189.9-4 3.4 38 1.4 34 4.2-94 66-4.3 183.1 20 208.8s21.5 59.5-19 82c0 0-82.7-123.1-87.2-130.6s-24-220.5-24-220.5 172.5-16.5 181.5-16.5 154.5 129 154.5 129z" fill="url(#e)" opacity=".6"/><path d="m618.5 1181.6c13.2-17.3 66.7-4.7 94.9 15.7 1.9 1.3 3.8 2.8 5.6 4.3a127 127 0 00-23.6-22.3c-28.2-20.4-81.7-33-94.9-15.7s4.3 52.3 29.2 71.2c.1 0 .1 0 .1.1-14.1-18.4-20.9-40.6-11.3-53.3z" fill="url(#f)" opacity=".6"/><path d="m761.7 1361c-27.8-4.3-35-13.3-33.3-20.3s17.1-7.6 53.4-7.6c-27.6-18-75.4-9.9-78.2 3.2-3.5 16.1 13.2 23.1 40.9 27.4 8.1 1.2 19 1.6 30.2 1.3-5.6-.2-8.7-3.3-13-4z" fill="url(#g)" opacity=".6"/><path d="m937.2 1442.5c-4-1-167.4-.9-237 113-41 67-1.3 92.1 16 96 67.8 15.4 107.6-40.5 198.6-120.5 58.3-51.3 22.4-88.5 22.4-88.5z" fill="url(#h)" opacity=".4"/><path d="m677.5 1452.1c-10-10.2-9.6-26.3 7.2-39.4 7.5-5.9 24.2-15.6 38.8-18.6-20.7 1.8-55.7 5.1-69 13.4-19.2 12.1-28.5 34.3-14.3 52.9 10 13.1 43.3 8 60 3.7-7.4-2.6-15-4.1-22.7-12z" fill="url(#i)" opacity=".6"/><path d="m794.2 1598.1c10.1-14.8 20.6-36.6 17.3-56.6-.5-.5-7.4-2.7-8-2.7-13.3 0-54.7 9.5-72.2 42.9-10.2 19.3-7.8 25.8-9.1 33.1-2.2 12 18.6 16.7 34.6 10 5.3-2.2 24.7-8.2 37.4-26.7z" fill="url(#j)" opacity=".6"/></g><g clip-path="url(#a)"><path d="m954.5 1176.9s72.6 204.4 25.5 228c-15 7.5-109.2-123.5-142.5-164.9-37.5-46.6-89.6-75.2-75.3-61.5 24 23 123 189 133 205 13 20.9-12.6 60.6-5 63 28 9 89.2 1.6 62 97-1 3.3-71.7 26.2-133 106-50 65-134.8 9.7-134 13.1 23 91.9 73 112.9 100 107.9s143.6-65 132-46.1l135.7 78 108.6-448.5-103.2-216z" fill="url(#d)" opacity=".5"/></g><path d="m1059.9 1424.8c-2.1-3.2-4.4-6.5-6.7-9.8l-6.9-9.7c-4.8-6.4-9.6-12.8-14.5-19.1q-14.8-18.9-30.5-37c-20.9-24.3-43-47.6-65.8-70.1s-46.7-44-71.2-64.6-49.8-40.3-75.9-58.9-52.8-36.2-80.6-51.9c-13.9-7.8-28-15.1-42.5-21.6s-29.2-12.1-44.3-15.8a125.4 125.4 0 00-22.5-3.6 64.1 64.1 0 00-21.6 1.8 35.7 35.7 0 00-17 10.3 44 44 0 00-9.6 18.3 95.1 95.1 0 00-3.2 22.1v2.5l.2 2.9c.1 1.9.3 3.9.5 5.8.3 3.9.8 7.9 1.3 11.8a371.3 371.3 0 008.8 46.6 331.9 331.9 0 0014.7 44.9 266 266 0 0021.3 41.9 211.7 211.7 0 0013.6 19 182.9 182.9 0 0015.7 17.3 136.6 136.6 0 0116.6 19.4 66.2 66.2 0 016.4 12.1 39.5 39.5 0 012.5 14.7 33.4 33.4 0 01-4.1 14.4 58.2 58.2 0 01-7.7 11.2c-5.7 6.6-11.6 12.1-16.9 17.8a95.7 95.7 0 00-13.7 17.9 58.7 58.7 0 00-7.1 20.2 73.9 73.9 0 00.3 22c.3 1.8.7 3.7 1.1 5.5s.9 3.7 1.3 5.4a53.9 53.9 0 004 9.9 39.6 39.6 0 0013.8 15.2c5.8 3.9 12.7 6.3 19.9 7.8a105.6 105.6 0 0022.6 1.7 180.3 180.3 0 0023.1-2.1 321.2 321.2 0 0046-11.2c15.1-4.8 30-10.4 44.8-16.6 7.3-3 14.6-6.3 21.9-9.6l5.4-2.5c1.9-.9 3.6-1.8 5.9-2.7l11.6-4.3a339.5 339.5 0 0147.5-12.7 287.2 287.2 0 0149-5.5 190 190 0 0149.3 4.6c16.2 3.7 31.9 9.8 45.7 18.8a2.4 2.4 0 01.7 3.4 2.5 2.5 0 01-3 1 221 221 0 00-45.5-12.5 252.6 252.6 0 00-46.9-2.8 275.1 275.1 0 00-46.9 5.4 342.7 342.7 0 00-45.7 12.4c-3.7 1.4-7.4 2.7-11 4.2l-5.2 2.3-5.5 2.6c-7.4 3.5-14.8 6.8-22.3 9.9-15 6.4-30.2 12.2-45.8 17.2a322.2 322.2 0 01-47.9 11.8 187.4 187.4 0 01-24.9 2.4 110.1 110.1 0 01-25.5-1.9 68.5 68.5 0 01-24.9-9.6 59 59 0 01-10.5-8.9 62.1 62.1 0 01-7.9-11.3 71.3 71.3 0 01-5.1-12.5c-.6-2.2-1.1-4.2-1.5-6.3s-.9-4.2-1.3-6.3a88.4 88.4 0 01-.4-26.2 71.6 71.6 0 018.8-25.1c4.3-7.7 9.9-14.4 15.5-20.5s11.6-11.7 16.4-17.4a46.2 46.2 0 006-8.6 21.2 21.2 0 002.5-8.6c.3-5.7-2.5-12.1-6.6-18.2a123.9 123.9 0 00-14.8-17.2 210.5 210.5 0 01-16.9-18.4 241.3 241.3 0 01-14.5-20.3 273.8 273.8 0 01-22.6-44.1 356.6 356.6 0 01-15.3-46.9 395.2 395.2 0 01-9.1-48.3c-.6-4.1-1-8.2-1.4-12.3-.2-2-.3-4.1-.5-6.2v-3.2c-.1-.1-.1-.6-.1-.6v-2.9a107.7 107.7 0 013.7-25.6c2.4-8.5 6.4-17.1 12.8-24.1a47.2 47.2 0 0111-8.9 55.6 55.6 0 0112.8-5.5 79.4 79.4 0 0126.4-2.4 149.4 149.4 0 0125.1 4.1 274.3 274.3 0 0146.6 16.6c15 6.7 29.5 14.3 43.7 22.3a898.6 898.6 0 0181.9 52.7q39.6 28.2 76.6 59.8c24.7 21 48.7 42.9 71.7 65.7s45.2 46.4 66.3 71.1q15.8 18.5 30.6 37.8c5 6.4 9.9 12.9 14.6 19.5l7.1 10c2.3 3.3 4.5 6.6 6.8 10.2a6.3 6.3 0 11-10.5 6.8z" fill="#31323d"/><path d="m785.2 1475.8c-12.8 6.8-121.7 65.5-102.1 175.3s82.5 125.9 114 115.7 58.6-65.1 89.3-111.4c31.8-47.9 123.8-101.9 172.8-95.9" fill="none" stroke="#31323d" stroke-linecap="round" stroke-linejoin="round" stroke-width="12.5"/><path d="m1054.2 1467.5s-122.8-10.5-174-102c-33.3-59.4-88-219-225-260 0 0-96.3-31.8-113.7 17.3" fill="none" stroke="#31323d" stroke-linecap="round" stroke-linejoin="round" stroke-width="12.5"/><path d="m1072.2 1526.1s-135.8 23.5-192.7 94c-33.3 41.4-45 76.1-96 91.4-33.1 9.9-80.3 3.3-98.1-48.7" fill="none" stroke="#31323d" stroke-linecap="round" stroke-linejoin="round" stroke-width="12.5"/><g fill="#31323d"><path d="m819.9 1628.3c-7.7 14.5-18.7 27.5-33.1 36.2a58.7 58.7 0 01-23.9 8.6 44.9 44.9 0 01-13.2-.6 39.6 39.6 0 01-12.5-4.8 43.1 43.1 0 01-16.9-20 65.3 65.3 0 01-4.8-24.9 87.6 87.6 0 013.7-24.5 76.3 76.3 0 014.2-11.6 72.8 72.8 0 015.7-11.1 67.5 67.5 0 017.6-10 60.9 60.9 0 014.4-4.4l4.7-4.1a99.8 99.8 0 0144.5-19.9c8.1-1.2 16.7-1.5 25.1 1a20.2 20.2 0 013.2 1.1l1.5.6 1.5.8c1 .5 1.9 1.2 2.9 1.8l.7.5.8.7a8 8 0 011.3 1.3 18.8 18.8 0 013.9 6 31.1 31.1 0 012.1 6.3 59.9 59.9 0 011.4 12.5 83.8 83.8 0 01-.6 12.3 129.2 129.2 0 01-5 23.8c-1.2 3.8-2.6 7.6-4.1 11.4a109.7 109.7 0 01-5.1 11zm-8.9-4.6c7-13.4 12.3-27.8 14.5-42.7a83 83 0 00.9-11.1 47.7 47.7 0 00-1-10.8c-.8-3.4-2.1-6.6-4-8.7l-1-1-.5-.3-2.1-1.3-1.1-.6-1.2-.4a17 17 0 00-2.4-.9 36.5 36.5 0 00-10.5-1.4 50.3 50.3 0 00-10.9 1 82.8 82.8 0 00-21.1 6.9 89.4 89.4 0 00-18.7 12.1c-1.5 1.1-2.8 2.4-4.2 3.6s-2.5 2.6-3.7 4a59.7 59.7 0 00-6.5 8.7 74.7 74.7 0 00-4.9 9.8 77.3 77.3 0 00-3.8 10.5 80.3 80.3 0 00-3.2 21.7 54 54 0 003.9 20.9 32 32 0 0012.8 15.4 31 31 0 009.3 3.6 31.6 31.6 0 0010.2.4 49.2 49.2 0 0019.9-7.1 74.9 74.9 0 0016.7-14.1 95.3 95.3 0 0012.6-18.2z"/><path d="m628.5 1250a121.6 121.6 0 01-21.7-21.3 109.1 109.1 0 01-15.7-26.3 72.7 72.7 0 01-4.6-15 46.8 46.8 0 01-.4-16.3 33.8 33.8 0 012.5-8.2 23.8 23.8 0 012-3.9c.4-.7.9-1.3 1.3-1.9l1.5-1.8a26.1 26.1 0 017.2-5.4 35.4 35.4 0 018-3 61.1 61.1 0 0115.7-1.8 96.7 96.7 0 0115.3 1 172.1 172.1 0 0129.4 6.9 185.9 185.9 0 0127.7 11.5 115.1 115.1 0 0113.1 7.7 109.3 109.3 0 0112.1 9.1 164.9 164.9 0 0121.1 21.5 142.6 142.6 0 0116.6 25.2 85.6 85.6 0 015.8 14.3 41.9 41.9 0 012 15.9 26.3 26.3 0 01-2 8.5 21.4 21.4 0 01-2.3 3.8 12.4 12.4 0 01-1.4 1.8l-.8.8a7.5 7.5 0 01-.9.9 14.2 14.2 0 01-4.5 2.4 20.8 20.8 0 01-4.1 1.1 52 52 0 01-7.8 1c-5.1.3-10.1.2-15.1 0s-9.9-.7-14.8-1.3a289.4 289.4 0 01-29.3-5.1 245.9 245.9 0 01-28.7-8.2c-4.7-1.8-9.3-3.7-13.9-5.9a82.3 82.3 0 01-13.3-8zm6-7.9a71 71 0 0011.7 7 114.1 114.1 0 0012.9 5.6 234.4 234.4 0 0027.4 8.4 271.5 271.5 0 0028.3 5.4c4.7.7 9.5 1.2 14.2 1.6a112.4 112.4 0 0014.2.2 47.4 47.4 0 006.7-.7l3-.7a6.5 6.5 0 001.9-1l.9-.9a7.6 7.6 0 00.8-1.1 20.1 20.1 0 001.4-2.5 17.6 17.6 0 001.2-5.8 34.2 34.2 0 00-2-12.8 70.7 70.7 0 00-5.5-12.7 138.9 138.9 0 00-16-23.2 165.1 165.1 0 00-20.1-20 130.8 130.8 0 00-11.2-8.4 133 133 0 00-12.2-7 184.2 184.2 0 00-26.3-10.9 163.4 163.4 0 00-27.5-6.3 93.6 93.6 0 00-13.9-.9 56.2 56.2 0 00-13.2 1.5 33.2 33.2 0 00-5.8 2.2 14.5 14.5 0 00-4.3 3.3l-.9 1a10.5 10.5 0 00-.8 1.1c-.5.9-1 1.7-1.4 2.6a26.9 26.9 0 00-1.7 5.7 36.9 36.9 0 00.3 12.8 68.2 68.2 0 003.9 12.9 99.9 99.9 0 0014.2 23.9 115.3 115.3 0 0019.8 19.7z"/><path d="m740.7 1368.6c-5.8-.9-11.6-2-17.4-3.5a73.9 73.9 0 01-8.8-2.7 50.1 50.1 0 01-8.7-4.3 25.7 25.7 0 01-7.7-7.4 19.4 19.4 0 01-3-11.1c0-.5.1-1 .1-1.4s.1-.9.2-1.4.3-1.7.5-2.7a27.9 27.9 0 012.4-5.3 22.5 22.5 0 018-7.4 38.1 38.1 0 019.2-3.8 57.5 57.5 0 019.2-1.8 100.8 100.8 0 0118.2-.3 117.4 117.4 0 0117.8 2.5c5.9 1.4 11.6 3.1 17.2 5s11 4 16.5 6.3 10.7 4.8 16 7.7c2.6 1.5 5.1 3 7.7 4.8s2.5 1.8 3.8 2.9a19.2 19.2 0 013.6 4.2 8.3 8.3 0 011.3 4.1 7.5 7.5 0 01-.5 2.6 10.5 10.5 0 01-1.2 1.9 12.8 12.8 0 01-2.4 2.3l-2.4 1.3a47.8 47.8 0 01-8.9 3.2 136.5 136.5 0 01-17.6 3.4c-5.8.7-11.7 1.3-17.5 1.6s-11.7.5-17.7.5a136.8 136.8 0 01-17.9-1.2zm1.6-9.9c5.3.8 11 1.3 16.6 1.6s11.3.1 17 0 11.3-.6 16.9-1.2 11.2-1.5 16.5-2.7a42.7 42.7 0 007.4-2.5 6.8 6.8 0 002.2-1.4c.1-.1-.1.1-.1.6s0 .2-.2 0a10.3 10.3 0 00-2.1-2.2c-.9-.8-2-1.5-3.1-2.3a69.4 69.4 0 00-7.1-4.1 202.7 202.7 0 00-31.3-12.6c-10.9-3.2-21.7-5.7-32.8-6.4a80.5 80.5 0 00-16.3.3c-5.3.6-10.5 1.9-14.5 4.2a14.9 14.9 0 00-4.7 4.2 8.5 8.5 0 00-1.1 2.6l-.3 1.5a10 10 0 00-.2 1.6 8.9 8.9 0 001.4 5.4 15.1 15.1 0 004.7 4.3 44.3 44.3 0 006.9 3.4c2.5.9 5.1 1.7 7.7 2.4 5.3 1.4 10.9 2.4 16.5 3.3z"/><path d="m877.5 1501.2c-7.5 3.3-14.9 7-22.4 10.6s-15.1 7.3-23.5 10.1a61.6 61.6 0 01-6.5 1.8 28.7 28.7 0 01-7.3.7 16.5 16.5 0 01-4.3-.6 12.5 12.5 0 01-4.5-2.2 11.4 11.4 0 01-1.9-1.9 11.8 11.8 0 01-1.3-1.8 15 15 0 01-1.8-4.3 16.2 16.2 0 01.4-8.8 26.4 26.4 0 013.6-6.9 53.5 53.5 0 019.8-9.8 100.7 100.7 0 0122.8-12.8c4-1.6 8.1-3 12.2-4.2s8.3-2.2 12.5-3.1a259.1 259.1 0 0150.4-5.4c8.4 0 16.9.3 25.3 1.1s16.8 1.9 25.1 3.4 16.5 3.5 24.6 5.9l3 .9.9.2 1.4.7c.4-.6 2.9 3.7.5 6.1a5.8 5.8 0 01-1.8 1.1h-9.3c-4.1-.1-8.2 0-12.3.1q-12.3.1-24.6 1.5c-8.2.8-16.3 1.9-24.3 3.4a213.1 213.1 0 00-46.7 14.2zm-3.7-8.4a223.1 223.1 0 0148.9-13.9 338.2 338.2 0 0150.2-4.6h19.5a4.9 4.9 0 00-1.7 1.1c-2.3 2.3.1 6.5.5 5.9l.6.3h.2l-.6-.2-2.9-.8c-7.9-2.2-15.9-4.1-23.9-5.5a249.8 249.8 0 00-48.8-3.9 239.9 239.9 0 00-48.5 5.8c-4 .9-7.9 1.9-11.7 3.1a117.5 117.5 0 00-11.3 4.1 86.1 86.1 0 00-20.5 11.6 37.9 37.9 0 00-7.7 7.8 15 15 0 00-2.2 4.1 6.8 6.8 0 00-.2 3.4 4.7 4.7 0 00.6 1.5l.5.7.3.3a5.4 5.4 0 003 .8 23.4 23.4 0 005-.6 40.4 40.4 0 005.5-1.4c7.4-2.4 14.9-5.9 22.4-9.3s15-7 22.8-10.3z"/><path d="m827.7 1416.7a78.1 78.1 0 01-10.8.5 58.8 58.8 0 01-11-1.2 30.6 30.6 0 01-11.1-4.5 12.2 12.2 0 01-2.7-2.4 11.2 11.2 0 01-2.3-3.5 11.6 11.6 0 01-.1-8.6 14.7 14.7 0 014.6-5.9 21.8 21.8 0 015.4-3.3 40 40 0 0111-3 67.6 67.6 0 0111-.6c3.6.1 7.1.4 10.6.8a159.4 159.4 0 0120.6 4 80.6 80.6 0 0110.2 3.3 26.6 26.6 0 015.3 2.7 7.9 7.9 0 011.5 1.2l.5.5.2.3.3.4.5.8a4.9 4.9 0 01.3 1.4 1.9 1.9 0 01.1.8c0 .3-.1.6-.1.8a4.3 4.3 0 01-.1.5c-.1.2-.1.4-.2.5a5.3 5.3 0 01-.8 1.5 8 8 0 01-1.6 1.6 12.6 12.6 0 01-2.7 1.8l-2.6 1.3c-1.8.8-3.5 1.4-5.2 2-3.3 1.1-6.7 2-10.1 2.8a182.5 182.5 0 01-20.7 3.5zm-.8-8a26.3 26.3 0 004.9-.5l5-.7c3.2-.6 6.5-1.2 9.7-2s6.4-1.7 9.5-2.7l4.4-1.7a9.3 9.3 0 002-1l1.5-.9.2-.2a.4.4 0 00-.1.3v.2a.4.4 0 01-.1.3v.9a4.5 4.5 0 00.2.8l.2.3a.1.1 0 01.1.1l-.4-.3a22.4 22.4 0 00-3.8-1.9 84.5 84.5 0 00-9.3-3.1 116.7 116.7 0 00-19.4-3.8c-3.3-.3-6.6-.6-9.8-.6a48.3 48.3 0 00-9.4 1 31.5 31.5 0 00-8.5 2.9 15.4 15.4 0 00-3.1 2.2 4.9 4.9 0 00-1.5 2.3 2.3 2.3 0 00-.2 1.3 4.4 4.4 0 00.5.9l1 1a22.2 22.2 0 007.6 3.4 59.3 59.3 0 0018.8 1.5z"/><path d="m913.2 1545.4c-3.8 2.1-7.6 4.2-11.7 6.1a46.2 46.2 0 01-13.6 4.4 20.3 20.3 0 01-8.4-.6 15.8 15.8 0 01-7.5-5.3 19.4 19.4 0 01-3.7-7.8 21.6 21.6 0 010-8.4 28.1 28.1 0 017.5-13.5l2.7-2.5 3-2.2 3-1.9 3.1-1.6a92.7 92.7 0 0112.6-4.8q6.4-2 12.9-3.3c4.4-.9 8.7-1.5 13.2-2a99 99 0 0113.4-.4 57.1 57.1 0 0113.5 1.9l3.4 1 1.7.6.8.4.5.2.8.4a6 6 0 01.8.8 3.1 3.1 0 01.8 1.1 5.6 5.6 0 01.4 1.2v2a6.3 6.3 0 01-.9 2 9.5 9.5 0 01-1.5 1.8 20.5 20.5 0 01-2.7 2.5c-3.6 2.9-7.2 5.3-10.8 7.7s-7.3 4.7-11 7q-11 6.8-22.3 13.2zm-4.4-7.9c7.5-4.1 15-8.2 22.3-12.5 3.7-2.1 7.3-4.3 10.9-6.6a106.9 106.9 0 0010.1-7.1 12 12 0 002-1.8l.6-.6s-.1 0-.2.5v.3a1.7 1.7 0 00.1.7 2.4 2.4 0 00.2.9l.6.8.5.5.4.2h-.3l-.7-.2-1.3-.5-2.8-.8a51.5 51.5 0 00-11.8-1.5 84.5 84.5 0 00-12.3.6c-4.1.5-8.1 1.2-12.2 2.1a123.4 123.4 0 00-11.9 3.3 86.2 86.2 0 00-11.3 4.6l-2.5 1.4-2.4 1.6-2.1 1.7-2 1.8a18.1 18.1 0 00-4.7 8.8 10.8 10.8 0 00.1 4.4 10.4 10.4 0 001.7 3.7 5.6 5.6 0 002.8 2.1 10.9 10.9 0 004.2.4 40.9 40.9 0 0010.9-3.3c3.7-1.6 7.4-3.6 11.1-5.5z"/><path d="m595.3 1196.9c.4 1.5 1 3.3 1.6 4.9s1.3 3.3 2 4.9a83.1 83.1 0 004.8 9.4 123.2 123.2 0 0012 17.5 144 144 0 0031.7 28.1 175.7 175.7 0 0018.5 10.4c6.4 3 12.9 5.7 19.6 8.1a233.8 233.8 0 0041.4 10.1q10.6 1.7 21.3 2.4l5.3.4 5.4.3c3.7.2 7.4.4 11.1.8a170.5 170.5 0 0143.5 10.4 135.2 135.2 0 0120.4 9.5 164.4 164.4 0 0118.9 12.2c2.9 2.3 5.9 4.7 8.7 7.2s5.5 5.2 8 8a87.2 87.2 0 0113.6 18.6 5.1 5.1 0 01-2.2 6.8 5 5 0 01-6.6-2.1h-.1a81.6 81.6 0 00-12.2-16.3 128.3 128.3 0 00-15.6-13.8 151 151 0 00-36.6-20.4 159.9 159.9 0 00-40.9-10c-3.5-.5-6.9-.7-10.5-1l-5.5-.3-5.5-.5c-7.4-.7-14.7-1.7-22-2.9a245.4 245.4 0 01-42.8-11.3 180 180 0 01-39.5-20.3 146.2 146.2 0 01-32.4-30.4 127.1 127.1 0 01-12.1-18.7c-1.7-3.3-3.3-6.6-4.7-10.1-.7-1.7-1.3-3.5-1.9-5.3a44.1 44.1 0 01-1.6-5.5 2.5 2.5 0 011.9-3 2.4 2.4 0 012.9 1.8z"/><path d="m629.7 1146.3c3.6.3 7.1.9 10.6 1.5s6.9 1.3 10.3 2.1a205.1 205.1 0 0120.4 5.6 260.4 260.4 0 0138.9 16.4c6.2 3.2 12.4 6.7 18.3 10.5 3.1 1.8 6 3.8 8.9 5.7l8.6 6.2a262.7 262.7 0 0131.8 27.8c2.5 2.5 4.9 5.2 7.3 7.7l7 7.9 6.8 7.9 3.4 4 3.4 4.1c8.9 10.7 17.6 21.7 26.1 32.7 17 22.2 33.4 44.7 49.3 67.8a4.9 4.9 0 01-1.3 6.9 5 5 0 01-6.9-1.2h-.1q-23.1-34.6-48-68.1c-8.3-11.1-16.7-22.1-25.4-32.9l-3.3-4.1-3.3-4-6.6-7.9-6.8-7.9-6.9-7.6a266.7 266.7 0 00-30.6-27.6l-4.1-3-4.2-3.1c-2.9-1.9-5.7-3.9-8.6-5.7-5.7-3.8-11.7-7.2-17.7-10.5a259.5 259.5 0 00-37.8-16.6c-6.5-2.2-13.1-4.1-19.8-5.8l-10-2.2c-3.4-.6-6.8-1.2-10.1-1.5h-.1a2.5 2.5 0 01.5-5z"/><path d="m1067 1491.8c-15.9-1.9-31.7-3.9-47.5-6.1s-31.5-4.4-47.3-6.9a4 4 0 011.2-8c15.7 2.1 31.5 4.1 47.3 5.9s31.5 3.5 47.3 5a5 5 0 014.5 5.5 4.9 4.9 0 01-5.4 4.5z"/><path d="m1069.1 1491.6c-9.5 2.9-18.9 5.5-28.3 7.9s-19.1 4.6-28.7 6.5-19.3 3.4-29.1 4.5a209.6 209.6 0 01-29.7 1.3 3.9 3.9 0 01-3.8-4.1 4.1 4.1 0 014.1-3.9 209.1 209.1 0 0028.4-1.7c9.5-1.2 18.9-3 28.3-5s18.8-4.3 28-6.8 18.6-5.2 27.6-8.2h.1a5.1 5.1 0 016.3 3.2 4.9 4.9 0 01-3.2 6.3z"/><path d="m977.3 1452.6-27.9-13.4c-9.3-4.4-18.6-8.8-28-13s-18.7-8.5-28.2-12.6-18.9-8-28.5-11.7a4 4 0 012.9-7.5c9.7 3.6 19.3 7.4 28.9 11.4s19.1 8 28.6 12.2 18.9 8.3 28.3 12.6l28.2 13a4.9 4.9 0 012.4 6.6 5 5 0 01-6.7 2.4z"/><path d="m658.2 1411.8a44.5 44.5 0 00-13.6 13c-3.4 5.1-5.5 11.1-5.3 16.9a26.7 26.7 0 006.3 16.2 23.7 23.7 0 0014.9 8.4 51.7 51.7 0 0019.1-.9 112.8 112.8 0 0019.3-5.9l4.7-1.9c1.6-.6 3.1-1.4 4.6-2.1 3-1.5 6.1-3.1 9-4.8s6-3.4 8.9-5.3 5.8-3.6 8.6-5.6a153.2 153.2 0 0016.2-12.3 66.1 66.1 0 007-7 28.6 28.6 0 004.7-7.6 7.6 7.6 0 00.5-3.5 5.2 5.2 0 00-1.1-2.9c-.1-.2-.4-.4-.6-.6s-.5-.5-.7-.8l-1.7-1.4a42.5 42.5 0 00-3.9-2.5c-5.6-3-12.2-4.5-18.8-5.3a104.7 104.7 0 00-20.2-.3 138 138 0 00-20.2 2.7 176.1 176.1 0 00-19.6 5.2 90.4 90.4 0 00-18.1 8.3zm-5.3-8.5a98.7 98.7 0 0120.1-9.3 128.1 128.1 0 0121.1-5.4c14.2-2.5 28.8-3.3 43.4-1.2a104.6 104.6 0 0110.8 2.4 53.6 53.6 0 0110.6 4.3 31.7 31.7 0 014.9 3.2l2.3 2 1.1 1 1.2 1.4a12.7 12.7 0 012.7 6.8 17.3 17.3 0 01-.7 6.9 37.9 37.9 0 01-5.8 10.5 84.2 84.2 0 01-7.4 8.3 144.7 144.7 0 01-16.8 13.8 192 192 0 01-18.2 11.5c-3.1 1.8-6.3 3.4-9.6 5l-5 2.3-5 2.1a124.2 124.2 0 01-21 6.3c-7.2 1.5-14.9 2.3-22.8.9a36.7 36.7 0 01-11.4-3.9 31.5 31.5 0 01-5.2-3.5 44.7 44.7 0 01-4.3-4.4 33.9 33.9 0 01-6.1-10.4 24.7 24.7 0 01-1-2.9 26.3 26.3 0 01-.8-3 40.7 40.7 0 01-.7-6.1 37.6 37.6 0 011.8-12 40.2 40.2 0 015.2-10.6 53.9 53.9 0 0116.6-16z"/></g><path d="m1800.7 1559.5c49-6 141 48 172.7 95.9 30.7 46.3 57.9 101.2 89.4 111.4s94.4-5.9 114-115.7-89.4-168.5-102.1-175.3l10.5 5c56.8 23.5 162.3 57.2 180.1-12.6 23.4-92.4-96.2-84.3-23-155.7s77.7-194.7 77.7-194.7c-2-142.3-206.3-8.9-311.3 76.7-145.5 118.6-214 227-214 227s-57.4 58.4-54.4 88.4 32.7 49.4 46.5 49.5z" fill="#f7bc56"/><g clip-path="url(#k)"><path d="m2228.2 1246c30.1-22.8 51.2-65 35.3-85.9s-80.5-5.7-114.6 18.9-65.8 73.6-46.9 91.7c11.2 10.7 96.1-1.8 126.2-24.7z" fill="#385877"/><g fill="#f4e65d"><path d="m2118.2 1363.7c27.7-4.3 44.4-11.3 40.9-27.4s-31.3-18.8-56.9-13.8-65.9 22.7-65.3 30.8c.8 9.6 55.6 14.4 81.3 10.4z"/><path d="m1948.7 1541.4c14.5 8 27.4 13.9 34.4 6.3s4.4-21.1-9.7-29.6-51.7-17.6-71.6-8.8c-5.3 2.4 31.3 23.5 46.9 32.1z"/><path d="m2204.2 1407.5c19.2 12.1 28.5 34.3 14.3 52.9s-42.6 10.9-63.5 2.2-75.8-43.2-59.5-59.7c20.2-20.4 81.3-12.6 108.7 4.6z"/></g><path d="m2044.2 1626c17.6 33.4 50.7 50.6 74 38.4s27.8-49.2 10.2-82.7-70.4-51.3-91.4-35.5c-12.3 9.2-10.3 46.3 7.2 79.8z" fill="#385877"/><path d="m1984 1497c24.2 10.4 56.5 29.9 64.8 19.5 10.4-12.9-15-33.7-48.5-42.3-26.2-6.7-76.3-13.7-133.8 3.7-6.4 1.9 60.5-5.4 117.5 19.1z" fill="#f4e65d"/><path d="m2032.4 1412.7c17.7 1.7 32.7-3.1 33.4-10.6s-10.7-14.2-28.5-13.9c-19.6.4-45.9 8.3-45.4 12.2s22.8 10.7 40.5 12.3z" fill="#385877"/></g><g clip-path="url(#k)"><path d="m1870.2 1452.2c80.6-28 171.5 9.4 179.3 12.6s192.2 97.6 216.2 3.4c23.4-92.4-96.2-84.3-23-155.7s77.7-194.6 77.7-194.6c-.6-38.8-16.1-57.1-40.6-61.5l1.1.4c37 20.4-73.8 57.7-73.8 57.7-137 41-193.8 191.6-227 251-26.8 47.9-73.3 73.6-111.4 87.2" fill="url(#l)" opacity=".7"/><path d="m1885.7 1311.9s17.4 29.1 64.5-25.5c103.5-120 288-221.5 324.3-189.9 4 3.4-38 1.4-34 4.2 94 66 4.3 183.1-20 208.8s-21.4 59.5 19 82c0 0 82.7-123.1 87.2-130.6s24-220.5 24-220.5-172.5-16.5-181.5-16.5-154.5 129-154.5 129z" fill="url(#n)" opacity=".6"/><path d="m2241.2 1181.6c-13.2-17.3-66.7-4.7-94.9 15.7-1.9 1.3-3.8 2.8-5.6 4.3a127 127 0 0123.6-22.3c28.2-20.4 81.7-33 94.9-15.7s-4.3 52.3-29.2 71.2c-.1 0-.1 0-.1.1 14.1-18.4 20.9-40.6 11.3-53.3z" fill="url(#o)" opacity=".6"/><path d="m2098 1361c27.8-4.3 35-13.3 33.3-20.3s-17.1-7.6-53.4-7.6c27.6-18 75.4-9.9 78.2 3.2 3.5 16.1-13.2 23.1-40.9 27.4-8.1 1.2-19 1.6-30.2 1.3 5.6-.2 8.7-3.3 13-4z" fill="url(#p)" opacity=".6"/><path d="m1922.5 1442.5c4-1 167.4-.9 237 113 41 67 1.3 92.1-16 96-67.8 15.4-107.6-40.5-198.6-120.5-58.3-51.3-22.4-88.5-22.4-88.5z" fill="url(#q)" opacity=".4"/><path d="m2182.2 1452.1c10-10.2 9.6-26.3-7.2-39.4-7.5-5.9-24.2-15.6-38.8-18.6 20.7 1.8 55.7 5.1 69 13.4 19.2 12.1 28.5 34.3 14.3 52.9-10 13.1-43.3 8-60 3.7 7.4-2.6 15-4.1 22.7-12z" fill="url(#r)" opacity=".6"/><path d="m2065.5 1598.1c-10.1-14.8-20.6-36.6-17.3-56.6.5-.5 7.4-2.7 8-2.7 13.3 0 54.7 9.5 72.2 42.9 10.2 19.3 7.8 25.8 9.1 33.1 2.2 12-18.6 16.7-34.6 10-5.3-2.2-24.7-8.2-37.4-26.7z" fill="url(#s)" opacity=".6"/></g><g clip-path="url(#k)"><path d="m1905.2 1176.9s-72.6 204.4-25.5 228c15 7.5 109.2-123.5 142.5-164.9 37.5-46.6 89.6-75.2 75.3-61.5-24 23-123 189-133 205-13 20.9 12.6 60.6 5 63-28 9-89.2 1.6-62 97 1 3.3 71.7 26.2 133 106 50 65 134.8 9.7 134 13.1-23 91.9-73 112.9-100 107.9s-143.6-65-132-46.1l-135.7 78-108.6-448.5 103.2-216z" fill="url(#m)" opacity=".5"/></g><path d="m1789.3 1418.1c2.3-3.6 4.5-6.9 6.8-10.2l7.1-10c4.7-6.6 9.6-13.1 14.6-19.5q14.9-19.4 30.6-37.8c21.1-24.7 43.3-48.4 66.3-71.1s47-44.7 71.7-65.7 50.2-41 76.6-59.8a898.6 898.6 0 0181.9-52.7c14.2-8 28.7-15.6 43.7-22.3a274.3 274.3 0 0146.6-16.6 149.4 149.4 0 0125.1-4.1 79.4 79.4 0 0126.4 2.4 55.6 55.6 0 0112.8 5.5 47.2 47.2 0 0111 8.9c6.4 7 10.4 15.6 12.8 24.1a107.7 107.7 0 013.7 25.6v2.9s0 .5-.1.6v3.2c-.2 2.1-.3 4.2-.5 6.2-.4 4.1-.8 8.2-1.3 12.3a415.5 415.5 0 01-9.2 48.3 356.6 356.6 0 01-15.3 46.9 273.8 273.8 0 01-22.6 44.1 241.3 241.3 0 01-14.5 20.3 210.5 210.5 0 01-16.9 18.4 123.9 123.9 0 00-14.8 17.2c-4.1 6.1-6.9 12.5-6.6 18.2a21.2 21.2 0 002.5 8.6 46.2 46.2 0 006 8.6c4.8 5.7 10.7 11.3 16.4 17.4s11.2 12.8 15.5 20.5a71.6 71.6 0 018.8 25.1 88.4 88.4 0 01-.4 26.2c-.4 2.1-.8 4.2-1.3 6.3s-.9 4.1-1.5 6.3a71.3 71.3 0 01-5.1 12.5 62.1 62.1 0 01-7.9 11.3 59 59 0 01-10.5 8.9 68.5 68.5 0 01-24.9 9.6 110.1 110.1 0 01-25.5 1.9 187.4 187.4 0 01-24.9-2.4 322.2 322.2 0 01-47.9-11.8c-15.6-5-30.8-10.8-45.8-17.2-7.5-3.1-14.9-6.4-22.3-9.9l-5.5-2.6-5.2-2.3c-3.6-1.5-7.3-2.8-11-4.2a342.7 342.7 0 00-45.7-12.4 275.1 275.1 0 00-46.9-5.4 252.6 252.6 0 00-46.9 2.8 221 221 0 00-45.5 12.5 2.5 2.5 0 01-2.3-4.4c13.8-9 29.5-15.1 45.7-18.8a190 190 0 0149.3-4.6 287.2 287.2 0 0149 5.5 339.5 339.5 0 0147.5 12.7l11.6 4.3c2.3.9 4 1.8 5.9 2.7l5.4 2.5c7.3 3.3 14.6 6.6 21.9 9.6 14.8 6.2 29.7 11.8 44.8 16.6a321.2 321.2 0 0046 11.2 180.3 180.3 0 0023.1 2.1 105.6 105.6 0 0022.6-1.7c7.2-1.5 14.1-3.9 19.9-7.8a39.6 39.6 0 0013.8-15.2 53.9 53.9 0 004-9.9c.4-1.7.9-3.5 1.3-5.4s.8-3.7 1.1-5.5a70.7 70.7 0 00.3-22 58.7 58.7 0 00-7.1-20.2 95.7 95.7 0 00-13.7-17.9c-5.3-5.7-11.2-11.2-16.8-17.8a58.5 58.5 0 01-7.8-11.2 33.4 33.4 0 01-4.1-14.4 39.5 39.5 0 012.5-14.7 66.2 66.2 0 016.4-12.1 131 131 0 0116.7-19.4 196.4 196.4 0 0015.6-17.3 211.7 211.7 0 0013.6-19 266 266 0 0021.3-41.9 331.9 331.9 0 0014.7-44.9 390.6 390.6 0 008.9-46.6c.4-3.9.9-7.9 1.2-11.8.2-1.9.4-3.9.5-5.8l.2-2.9v-2.5a95.1 95.1 0 00-3.2-22.1 44 44 0 00-9.6-18.3 35.7 35.7 0 00-17-10.3 64.1 64.1 0 00-21.6-1.8 125.4 125.4 0 00-22.5 3.6c-15.1 3.7-29.9 9.4-44.3 15.8s-28.6 13.8-42.5 21.6c-27.8 15.7-54.5 33.3-80.6 51.9s-51.4 38.2-75.9 58.9-48.3 42.2-71.2 64.6-44.8 45.8-65.8 70.1q-15.6 18.1-30.5 37c-4.9 6.3-9.7 12.7-14.5 19.1l-6.9 9.7c-2.3 3.3-4.6 6.6-6.7 9.8a6.3 6.3 0 01-8.7 1.8 6.1 6.1 0 01-1.9-8.5z" fill="#31323d"/><path d="m2074.5 1475.8c12.8 6.8 121.7 65.5 102.1 175.3s-82.5 125.9-114 115.7-58.6-65.1-89.3-111.4c-31.8-47.9-123.8-101.9-172.8-95.9" fill="none" stroke="#31323d" stroke-linecap="round" stroke-linejoin="round" stroke-width="12.5"/><path d="m1805.5 1467.5s122.8-10.5 174-102c33.3-59.4 88-219 225-260 0 0 96.3-31.8 113.7 17.3" fill="none" stroke="#31323d" stroke-linecap="round" stroke-linejoin="round" stroke-width="12.5"/><path d="m1787.5 1526.1s135.8 23.5 192.7 94c33.3 41.4 45 76.1 96 91.4 33.1 9.9 80.3 3.3 98.1-48.7" fill="none" stroke="#31323d" stroke-linecap="round" stroke-linejoin="round" stroke-width="12.5"/><path d="m2048.7 1623.7a95.3 95.3 0 0012.6 18.2 74.9 74.9 0 0016.7 14.1 49.2 49.2 0 0019.9 7.1 31.6 31.6 0 0010.2-.4 31 31 0 009.3-3.6 32 32 0 0012.8-15.4 54 54 0 003.9-20.9 80.3 80.3 0 00-3.2-21.7 77.3 77.3 0 00-3.8-10.5 74.7 74.7 0 00-4.9-9.8 59.7 59.7 0 00-6.5-8.7c-1.2-1.4-2.5-2.7-3.7-4s-2.7-2.5-4.2-3.6a89.4 89.4 0 00-18.7-12.1 82.8 82.8 0 00-21.1-6.9 50.3 50.3 0 00-10.9-1 36.5 36.5 0 00-10.5 1.4l-2.4.9-1.2.4-1.1.6-2.1 1.3-.5.3-1 1c-1.9 2.1-3.2 5.3-4 8.7a47.7 47.7 0 00-1 10.8 83 83 0 00.9 11.1c2.2 14.9 7.5 29.3 14.5 42.7zm-8.9 4.6a109.7 109.7 0 01-5.1-11c-1.5-3.8-2.9-7.6-4.1-11.4a129.2 129.2 0 01-5-23.8 83.8 83.8 0 01-.6-12.3 59.9 59.9 0 011.4-12.5 31.1 31.1 0 012.1-6.3 18.8 18.8 0 013.9-6 8 8 0 011.3-1.3l.8-.7.7-.5c1-.6 1.9-1.3 2.9-1.8l1.5-.8 1.5-.6a20.2 20.2 0 013.2-1.1c8.4-2.5 17-2.2 25.1-1a99.8 99.8 0 0144.5 19.9l4.7 4.1a60.9 60.9 0 014.4 4.4 67.5 67.5 0 017.6 10 72.8 72.8 0 015.7 11.1 76.3 76.3 0 014.2 11.6 87.6 87.6 0 013.7 24.5 65.3 65.3 0 01-4.8 24.9 43.1 43.1 0 01-16.9 20 39.9 39.9 0 01-12.4 4.8 45.7 45.7 0 01-13.3.6 58.7 58.7 0 01-23.9-8.6c-14.4-8.7-25.4-21.7-33.1-36.2z" fill="#31323d"/><path d="m2225.2 1242.1a115.3 115.3 0 0019.8-19.7 99.9 99.9 0 0014.2-23.9 68.2 68.2 0 003.9-12.9 36.9 36.9 0 00.3-12.8 26.9 26.9 0 00-1.7-5.7c-.4-.9-.9-1.7-1.4-2.6a10.5 10.5 0 00-.8-1.1l-.9-1a14.5 14.5 0 00-4.3-3.3 33.2 33.2 0 00-5.8-2.2 56.2 56.2 0 00-13.2-1.5 93.6 93.6 0 00-13.9.9 163.4 163.4 0 00-27.5 6.3 184.2 184.2 0 00-26.3 10.9 133 133 0 00-12.2 7 130.8 130.8 0 00-11.2 8.4 165.1 165.1 0 00-20.1 20 138.9 138.9 0 00-16 23.2 70.7 70.7 0 00-5.5 12.7 34.2 34.2 0 00-2 12.8 17.6 17.6 0 001.2 5.8 20.1 20.1 0 001.4 2.5 7.6 7.6 0 00.8 1.1l.9.9a6.5 6.5 0 001.9 1l3 .7a47.4 47.4 0 006.7.7 112.4 112.4 0 0014.2-.2c4.7-.4 9.5-.9 14.2-1.6a271.5 271.5 0 0028.3-5.4 234.4 234.4 0 0027.4-8.4 114.1 114.1 0 0012.9-5.6 71 71 0 0011.7-7zm6 7.9a82.3 82.3 0 01-13.3 8c-4.6 2.2-9.2 4.1-13.9 5.9a245.9 245.9 0 01-28.7 8.2 289.4 289.4 0 01-29.3 5.1c-4.9.6-9.8 1-14.8 1.3s-10 .3-15.1 0a52 52 0 01-7.8-1 20.8 20.8 0 01-4.1-1.1 14.2 14.2 0 01-4.5-2.4 7.5 7.5 0 01-.9-.9 6 6 0 01-.8-.8 12.4 12.4 0 01-1.4-1.8 21.4 21.4 0 01-2.3-3.8 26.3 26.3 0 01-2-8.5 41.9 41.9 0 012-15.9 85.6 85.6 0 015.8-14.3 142.6 142.6 0 0116.6-25.2 164.9 164.9 0 0121.1-21.5 109.3 109.3 0 0112.1-9.1 115.1 115.1 0 0113.1-7.7 185.9 185.9 0 0127.7-11.5 172.1 172.1 0 0129.4-6.9 96.7 96.7 0 0115.3-1 61.1 61.1 0 0115.7 1.8 35.4 35.4 0 018 3 26.1 26.1 0 017.2 5.4l1.5 1.8c.4.6.9 1.2 1.3 1.9a23.8 23.8 0 012 3.9 33.8 33.8 0 012.5 8.2 46.8 46.8 0 01-.4 16.3 72.7 72.7 0 01-4.6 15 109.1 109.1 0 01-15.7 26.3 121.6 121.6 0 01-21.7 21.3z" fill="#31323d"/><path d="m2117.4 1358.7c5.6-.9 11.2-1.9 16.5-3.3 2.6-.7 5.2-1.5 7.7-2.4a44.3 44.3 0 006.9-3.4 15.1 15.1 0 004.7-4.3 8.9 8.9 0 001.4-5.4 10 10 0 00-.2-1.6l-.3-1.5a8.5 8.5 0 00-1.1-2.6 14.9 14.9 0 00-4.7-4.2c-4-2.3-9.2-3.6-14.5-4.2a80.5 80.5 0 00-16.3-.3c-11.1.7-21.9 3.2-32.8 6.4a202.7 202.7 0 00-31.3 12.6 69.4 69.4 0 00-7.1 4.1c-1.1.8-2.2 1.5-3.1 2.3a10.3 10.3 0 00-2.1 2.2c-.2.2-.2.4-.2 0s-.2-.7-.1-.6a6.8 6.8 0 002.2 1.4 42.7 42.7 0 007.4 2.5c5.3 1.2 10.9 2 16.5 2.7s11.3.9 16.9 1.2 11.4.2 17 0 11.3-.8 16.6-1.6zm1.6 9.9a136.8 136.8 0 01-17.9 1.2c-6 0-11.8-.1-17.7-.5s-11.7-.9-17.5-1.6a136.5 136.5 0 01-17.6-3.4 47.8 47.8 0 01-8.9-3.2l-2.4-1.3a12.8 12.8 0 01-2.4-2.3 10.5 10.5 0 01-1.2-1.9 7.5 7.5 0 01-.5-2.6 8.3 8.3 0 011.3-4.1 19.2 19.2 0 013.6-4.2c1.3-1.1 2.5-2 3.8-2.9a90.9 90.9 0 017.8-4.8 166 166 0 0115.9-7.7q8.3-3.5 16.5-6.3c5.6-1.9 11.3-3.6 17.2-5a117.4 117.4 0 0117.8-2.5 100.8 100.8 0 0118.2.3 57.5 57.5 0 019.2 1.8 38.1 38.1 0 019.2 3.8 22.5 22.5 0 018 7.4 27.9 27.9 0 012.4 5.3c.2 1 .4 1.8.5 2.7s.1.9.2 1.4.1.9.1 1.4a19.4 19.4 0 01-3 11.1 25.7 25.7 0 01-7.7 7.4 50.1 50.1 0 01-8.7 4.3 73.9 73.9 0 01-8.8 2.7c-5.8 1.5-11.6 2.6-17.4 3.5z" fill="#31323d"/><path d="m1985.9 1492.8c7.8 3.3 15.3 6.9 22.8 10.4s15 6.9 22.4 9.3a40.4 40.4 0 005.5 1.4 23.4 23.4 0 005 .6 5.4 5.4 0 003-.8l.3-.3.5-.7a4.7 4.7 0 00.6-1.5 6.8 6.8 0 00-.2-3.4 15 15 0 00-2.2-4.1 37.9 37.9 0 00-7.7-7.8 86.1 86.1 0 00-20.5-11.6 117.5 117.5 0 00-11.3-4.1c-3.8-1.2-7.7-2.2-11.7-3.1a239.9 239.9 0 00-48.5-5.8 249.8 249.8 0 00-48.8 3.9c-8 1.4-16 3.3-23.9 5.5l-2.9.8-.6.2h.2l.6-.3c.4.6 2.8-3.6.5-5.9a4.9 4.9 0 00-1.7-1.1h19.5a338.2 338.2 0 0150.2 4.6 221.5 221.5 0 0148.9 13.8zm-3.7 8.4a213.1 213.1 0 00-46.7-13.9c-8-1.5-16.1-2.6-24.3-3.4s-16.4-1.4-24.6-1.5c-4.1-.1-8.2-.2-12.3-.1h-9.3a5.8 5.8 0 01-1.8-1.1c-2.4-2.4.1-6.7.5-6.1l1.4-.7.9-.2 3-.9c8.1-2.4 16.3-4.3 24.6-5.9s16.7-2.7 25.1-3.4 16.9-1.1 25.3-1.1a259.1 259.1 0 0150.4 5.4c4.2.9 8.3 1.8 12.5 3.1s8.2 2.6 12.2 4.2a100.7 100.7 0 0122.8 12.8 53.5 53.5 0 019.8 9.8 26.4 26.4 0 013.6 6.9 16.2 16.2 0 01.4 8.8 15 15 0 01-1.8 4.3 11.8 11.8 0 01-1.3 1.8 11.4 11.4 0 01-1.9 1.9 12.5 12.5 0 01-4.5 2.2 16.5 16.5 0 01-4.3.6 28.7 28.7 0 01-7.3-.7 61.6 61.6 0 01-6.5-1.8c-8.4-2.8-16-6.5-23.5-10.1s-14.9-7.6-22.4-10.9z" fill="#31323d"/><path d="m2032.8 1408.7a59.3 59.3 0 0018.9-1.5 22.2 22.2 0 007.6-3.4l1-1a4.4 4.4 0 00.5-.9 2.3 2.3 0 00-.2-1.3 4.9 4.9 0 00-1.5-2.3 15.4 15.4 0 00-3.1-2.2 31.5 31.5 0 00-8.5-2.9 48.3 48.3 0 00-9.4-1c-3.2 0-6.5.3-9.8.6a116.7 116.7 0 00-19.4 3.8 92.1 92.1 0 00-9.3 3.1 22.4 22.4 0 00-3.8 1.9l-.4.3a.1.1 0 01.1-.1l.2-.3a4.5 4.5 0 00.2-.8v-.9a.4.4 0 01-.1-.3v-.2a.4.4 0 00-.1-.3l.2.2 1.5.9a9.3 9.3 0 002 1l4.4 1.7c3.1 1 6.3 1.9 9.5 2.7s6.5 1.4 9.7 2l5 .7a26.3 26.3 0 004.8.5zm-.8 8a182.5 182.5 0 01-20.7-3.5c-3.4-.8-6.8-1.7-10.1-2.8-1.7-.6-3.4-1.2-5.2-2l-2.6-1.3a12.6 12.6 0 01-2.7-1.8 8 8 0 01-1.6-1.6 5.3 5.3 0 01-.8-1.5c-.1-.1-.1-.3-.2-.5a4.3 4.3 0 01-.1-.5c0-.2-.1-.5-.1-.8a1.9 1.9 0 01.1-.8 2.9 2.9 0 01.4-1.4 5.9 5.9 0 01.4-.8l.3-.4.2-.3.5-.5a7.9 7.9 0 011.5-1.2 26.6 26.6 0 015.3-2.7 80.6 80.6 0 0110.2-3.3 159.4 159.4 0 0120.6-4c3.5-.4 7.1-.7 10.7-.8a67 67 0 0110.9.6 40 40 0 0111 3 21.8 21.8 0 015.4 3.3 14.7 14.7 0 014.6 5.9 11.6 11.6 0 01-.1 8.6 11.2 11.2 0 01-2.3 3.5 12.2 12.2 0 01-2.7 2.4 30.6 30.6 0 01-11.1 4.5 58.8 58.8 0 01-11 1.2 78.1 78.1 0 01-10.8-.5z" fill="#31323d"/><path d="m1950.9 1537.5c3.7 1.9 7.4 3.9 11.1 5.5a40.9 40.9 0 0010.9 3.3 10.9 10.9 0 004.2-.4 5.6 5.6 0 002.8-2.1 10.4 10.4 0 001.7-3.7 10.8 10.8 0 00.1-4.4 18.1 18.1 0 00-4.7-8.8l-2-1.8-2.1-1.7-2.4-1.6-2.5-1.4a86.2 86.2 0 00-11.3-4.6 123.4 123.4 0 00-11.9-3.3c-4.1-.9-8.1-1.6-12.2-2.1a84.5 84.5 0 00-12.3-.6 51.5 51.5 0 00-11.8 1.5l-2.8.8-1.3.5-.7.2h-.2l.4-.2.5-.5.6-.8a2.4 2.4 0 00.2-.9 1.7 1.7 0 00.1-.7v-.3c-.1-.5-.2-.5-.2-.5l.6.6a12 12 0 002 1.8 106.9 106.9 0 0010.1 7.1c3.6 2.3 7.2 4.5 10.9 6.6 7.2 4.3 14.7 8.4 22.2 12.5zm-4.4 7.9q-11.2-6.5-22.2-13.2c-3.7-2.3-7.4-4.6-11-7s-7.2-4.8-10.8-7.7a20.5 20.5 0 01-2.7-2.5 9.5 9.5 0 01-1.5-1.8 6.3 6.3 0 01-.9-2v-2a5.6 5.6 0 01.4-1.2 3.1 3.1 0 01.8-1.1 6 6 0 01.8-.8l.8-.4.5-.2.8-.4 1.7-.6 3.4-1a57.1 57.1 0 0113.5-1.9 99 99 0 0113.4.4c4.5.5 8.8 1.1 13.2 2s8.6 2 12.9 3.3a92.7 92.7 0 0112.6 4.8l3.1 1.6 3 1.9 3 2.2 2.7 2.5a28.1 28.1 0 017.5 13.5 21.6 21.6 0 010 8.4 19.4 19.4 0 01-3.7 7.8 15.8 15.8 0 01-7.5 5.3 20.3 20.3 0 01-8.4.6 46.2 46.2 0 01-13.6-4.4c-4.2-1.9-8-4-11.8-6.1z" fill="#31323d"/><path d="m2269.3 1198a44.1 44.1 0 01-1.6 5.5c-.6 1.8-1.2 3.6-1.9 5.3-1.4 3.5-3 6.8-4.7 10.1a127.1 127.1 0 01-12.1 18.7 146.2 146.2 0 01-32.4 30.4 177.8 177.8 0 01-39.5 20.3 245.4 245.4 0 01-42.8 11.3c-7.3 1.2-14.6 2.2-22 2.9l-5.5.5-5.5.3c-3.6.3-7 .5-10.5 1a159.9 159.9 0 00-40.9 10 151 151 0 00-36.6 20.4 128.3 128.3 0 00-15.6 13.8 81.6 81.6 0 00-12.2 16.3 4.9 4.9 0 01-6.8 2 5.1 5.1 0 01-2.1-6.7 87.2 87.2 0 0113.6-18.6c2.5-2.8 5.3-5.4 8-8s5.8-4.9 8.7-7.2a164.4 164.4 0 0118.9-12.2 139.9 139.9 0 0120.4-9.5 170.5 170.5 0 0143.5-10.4c3.7-.4 7.5-.6 11.1-.8l5.4-.3 5.3-.4q10.6-.7 21.3-2.4a233.8 233.8 0 0041.4-10.1c6.7-2.4 13.2-5.1 19.6-8.1a175.7 175.7 0 0018.5-10.4 144 144 0 0031.7-28.1 123.2 123.2 0 0012-17.5 83.1 83.1 0 004.8-9.4c.7-1.6 1.4-3.3 2-4.9s1.2-3.4 1.6-4.9h.1a2.4 2.4 0 013-1.7 2.4 2.4 0 011.8 2.8z" fill="#31323d"/><path d="m2230.4 1151.3c-3.3.3-6.7.9-10.1 1.5l-10 2.2c-6.7 1.7-13.3 3.6-19.8 5.8a259.5 259.5 0 00-37.8 16.6c-6 3.3-12 6.7-17.7 10.5-2.9 1.8-5.7 3.8-8.6 5.7l-4.2 3.1-4.1 3a266.7 266.7 0 00-30.6 27.6l-6.9 7.6-6.8 7.9-6.6 7.9-3.3 4-3.3 4.1c-8.7 10.8-17.1 21.8-25.4 32.9q-24.9 33.5-48 68.1a5.1 5.1 0 01-7 1.4 4.9 4.9 0 01-1.3-6.9c15.9-23.1 32.3-45.6 49.3-67.8 8.5-11 17.2-22 26.1-32.7l3.4-4.1 3.4-4 6.8-7.9 7-7.9c2.4-2.5 4.8-5.2 7.3-7.7a262.7 262.7 0 0131.8-27.8l8.6-6.2c2.9-1.9 5.8-3.9 8.9-5.7 5.9-3.8 12.1-7.3 18.3-10.5a260.4 260.4 0 0138.9-16.4 205.1 205.1 0 0120.4-5.6c3.4-.8 6.8-1.5 10.3-2.1s7-1.2 10.6-1.5a2.5 2.5 0 012.7 2.3 2.5 2.5 0 01-2.2 2.7z" fill="#31323d"/><path d="m1791.7 1481.8c15.8-1.5 31.6-3.2 47.3-5s31.6-3.8 47.3-5.9a3.9 3.9 0 014.5 3.4 4.1 4.1 0 01-3.3 4.5c-15.8 2.5-31.5 4.8-47.3 6.9s-31.6 4.2-47.5 6.1a5 5 0 01-5.5-4.4 5.1 5.1 0 014.4-5.6z" fill="#31323d"/><path d="m1793.8 1482.1c9 3 18.3 5.7 27.6 8.2s18.6 4.9 28 6.8 18.8 3.8 28.3 5a209.1 209.1 0 0028.4 1.7 4 4 0 01.3 8 209.6 209.6 0 01-29.7-1.3c-9.8-1.1-19.5-2.7-29.1-4.5s-19.2-4.1-28.7-6.5-18.8-5-28.3-7.9a5 5 0 01-3.2-6.3 4.9 4.9 0 016.2-3.3h.2z" fill="#31323d"/><path d="m1878.1 1443.6 28.2-13c9.4-4.3 18.8-8.5 28.3-12.6s19-8.3 28.6-12.2 19.2-7.8 28.9-11.4a4 4 0 015.2 2.4 4.1 4.1 0 01-2.3 5.1c-9.6 3.7-19.1 7.7-28.5 11.7s-18.8 8.3-28.2 12.6-18.7 8.6-28 13l-27.8 13.4h-.1a5 5 0 01-4.4-9z" fill="#31323d"/><path d="m2206.8 1403.3a53.9 53.9 0 0116.6 16 40.2 40.2 0 015.2 10.6 37.6 37.6 0 011.8 12 40.7 40.7 0 01-.7 6.1 26.3 26.3 0 01-.8 3 24.7 24.7 0 01-1 2.9 33.9 33.9 0 01-6.1 10.4 44.7 44.7 0 01-4.3 4.4 31.5 31.5 0 01-5.2 3.5 36.7 36.7 0 01-11.4 3.9c-7.9 1.4-15.6.6-22.8-.9a124.2 124.2 0 01-21-6.3l-5-2.1-5-2.3c-3.3-1.6-6.4-3.2-9.6-5a192 192 0 01-18.2-11.5 144.7 144.7 0 01-16.8-13.8 84.2 84.2 0 01-7.4-8.3 37.9 37.9 0 01-5.8-10.5 17.3 17.3 0 01-.7-6.9 12.7 12.7 0 012.7-6.8l1.2-1.4 1.1-1 2.3-2a31.7 31.7 0 014.9-3.2 53.6 53.6 0 0110.6-4.3 104.6 104.6 0 0110.8-2.4c14.6-2.1 29.2-1.3 43.4 1.2a128.1 128.1 0 0121.1 5.4 98.7 98.7 0 0120.1 9.3zm-5.3 8.5a90.4 90.4 0 00-18.1-8.3 176.1 176.1 0 00-19.6-5.2 138 138 0 00-20.2-2.7 104.7 104.7 0 00-20.2.3c-6.6.8-13.2 2.3-18.8 5.3a42.5 42.5 0 00-3.9 2.5l-1.7 1.4c-.2.3-.6.5-.7.8l-.6.6a5.2 5.2 0 00-1.1 2.9 7.6 7.6 0 00.5 3.5 28.6 28.6 0 004.7 7.6 66.1 66.1 0 007 7 153.2 153.2 0 0016.2 12.3c2.8 2 5.7 3.8 8.6 5.6s5.9 3.6 8.9 5.3 6 3.3 9 4.8 3 1.5 4.6 2.1l4.7 1.9a112.8 112.8 0 0019.3 5.9 51.7 51.7 0 0019.1.9 23.7 23.7 0 0014.9-8.4 26.7 26.7 0 006.3-16.2c.2-5.8-1.9-11.8-5.3-16.9a44.5 44.5 0 00-13.6-13z" fill="#31323d"/><g clip-path="url(#t)"><path d="m724.1 562.8h1509.4v1824.1h-1509.4z" fill="#f7bc56"/><path d="m1781.2 799.5s-38-26-102.1 41.4l-33.7 40.5 56.1 46.5z" fill="url(#v)" opacity=".4"/><path d="m1041.2 839.5s27.5-19 71.6-.8a122.2 122.2 0 0147.5 35.1l14.8 17.9-37.7 54.9z" fill="url(#w)" opacity=".4"/><path d="m1181.5 2294.7c-5.6-14.6 3.2-56.8 20.7-141.2 10.4-50.5 18.8-83.5 24-105 38.7-162 16.1-179.6 50-276 23.1-65.9 47.1-131.2 111-162 7.6-3.7 65.8-30.8 125-7 57.6 23.1 81.2 80.6 105.3 141.9 29.1 74.1 19.9 99.7 53 285.3 6.9 38.6 13.7 77.2 20.7 115.8 4 22.6 7.9 45.3 12 68 9.4 53.2 9.6 54.1 9.3 56.2-9.7 78.5-486.6 140.6-531 24z" fill="#f4e65d"/><g fill="#385877"><path d="m1961.8 1478.2s-63.6 117.3-161.6 129.3c-55.2 6.7-53.6 31.2-41.8 51.3a75.5 75.5 0 0048.6 34.9c44.6 10.1 143.1 22.8 177.2-38.2 45.2-81.1-22.4-177.3-22.4-177.3zm-1027.6 182.6c33.1-10.3 66.7-38.4 66.7-38.4 21.3 16.6 46.2 29.4 76.2 32.5 47.6 4.8 85.2-17.2 96 0 9.7 15.7-12.3 49.2-34 68-33.1 28.4-73.6 29.7-90 30-25.7.4-54.8-4.5-82.7-14.4-54.8-19.6-59.1-69.3-32.2-77.7zm934.3 97.2c7.8-14.8 34.3-9.4 137.3-4 42.6 2.3 55.3 2.2 57.4 8.9 4.1 13.1-35.3 41.2-75.9 51.6-9.3 2.4-79.9 19.5-109.2-19.7-1.6-2.2-17-22.8-9.6-36.8zm-596.7-920.4a33.6 33.6 0 0113.7 11.7c-1.1 21.7-.1 47.8 13.5 73.3 4.8 9.1 15.9 27.1 9.2 36.9-4.5 6.5-14.8 6.5-17 6.5-26.1 0-45.6-32.3-52.5-43.7a149.1 149.1 0 01-20.2-58.2c.3-6 22-18.6 22-18.6s26.4-10.9 31.3-7.9zm576.8 1009.2c2-10.9-13.9-18.9-69.3-58.1-22.9-16.2-29.5-21.4-33.3-18.8-7.4 5.1 1.5 35.7 18.2 57.6 3.8 5 33.2 42.6 64.4 34.3 1.7-.4 18.1-4.8 20-15zm-691.1 47.9c-10-9.4.9-26.8 10.7-81.9 5.9-33.7 5.1-45.5 10.6-46.7 9.4-1.9 26.5 29.1 30.9 59.6 2 13.4 7.6 51.8-15.5 67.1-10.6 7-28.3 10-36.7 1.9zm615.4-466.7c-2.7 13.4-23.1 13.5-74.9 34.8-31.7 13-41.2 20-45.1 16-6.7-6.9 10.4-37.9 33.7-58 10.3-8.9 39.7-34.2 65-22.8 11.6 5.2 23.6 18.6 21.3 30zm-218.7-604.2c-13.4 6.2-9.9 15.2-20.5 78.8-4.7 27.6-6.8 34-2.2 38.2 11.6 10.5 37.3-6.8 56.7-37.3 10.6-16.8 20.5-46.8 6.6-67.4-7.1-10.5-18.5-15.7-22-17.3-6.4-2.9-7.1-.2-18.6 5zm342.2 1385.3c10.8 2 18.9-13.9 58.1-69.2 16.2-22.9 21.4-29.5 18.8-33.3-5.1-7.4-35.7 1.4-57.6 18.1-5 3.9-42.7 33.3-34.4 64.4.5 1.8 4.9 18.2 15.1 20zm-745.2-731.4c8.7-32.8-51.8-84.8-114-100a197.2 197.2 0 00-64.2-4.5c-55.9 9.6-63 15.4-63.8 26.5-1 13.3 37.9 13.2 92 54 40.4 30.5 45.3 50.7 74 56 30.7 5.6 70-9.5 76-32zm-32.4 355.4c-15.5-12.2-45.8 35.4-114 48-78.3 14.5-128-31.7-146-10-15.7 18.9 5.7 73.8 44 98 36 22.7 77 12.1 108 4 19.9-5.2 49.1-12.8 74-38 33.9-34.3 49.1-90.1 34-102zm897.4 56.4c-8.5-7.6-10.5-23.5-20.4-21.5a255.5 255.5 0 01-107.6 37.5c-74.6 8.5-124.5-24.2-137-4-9.9 15.8 12.7 49.5 34.3 67.4 32.6 27.1 72.3 25.6 98.7 24.6 23.8-.9 71.3-3.2 112-38a158 158 0 0020.7-21.8c6.3-15.2 11.5-33.2-.7-44.2zm-890-326c1.1-23.9 35.5-39.7 62-38 5.1.3 27.4 1.7 32 14 7.5 20.1-32.9 69-66 60-15.3-4.2-28.8-20.5-28-36zm-251.2-255.6c12.2-20.5 50-18.3 72.5-4.4 4.5 2.7 23.4 14.4 21.7 27.4-2.8 21.4-61.4 45.5-86.5 21.9-11.5-10.8-15.7-31.6-7.7-44.9zm177.8 288.1c-20.2 12.8-52.9-6.4-66.7-29-2.7-4.5-19.2-38.6-6.8-34.3 37.4 13.2 50.9 13.2 75.7 4.4a36.1 36.1 0 0111.3 15.3c5.3 14.9-.4 35.3-13.5 43.6zm844.4-135.7c-20.2 12.8-52.8-6.4-66.6-29-2.7-4.5-14.3-23.5-6.9-34.3 12.2-17.7 75.4-12.6 87 19.7 5.3 14.9-.3 35.3-13.5 43.6zm-553-639.5c8.1 27.9-24.2 47.1-20.7 95.3 1 13.8 4.4 23.4 8.7 35.4 6.2 17.4 26.7 75.1 59.3 79.3 34.2 4.5 68.6-51.7 82.7-87.3s6.5-48 16-105.4c14.2-86.4 37.4-93.8 32.6-131.3-8.2-65.5-91.9-147.8-166.6-124-77.9 24.8-99.9 149.8-64.7 194.7 17.8 22.7 45.6 19 52.7 43.3zm488.5 697.1a36.7 36.7 0 01-36.7 36.7c-20.2 0-55.5-25.4-55.5-45.6s35.3-27.7 55.5-27.7a36.6 36.6 0 0136.7 36.6zm-130.8 60.3a15.2 15.2 0 01-15.2 15.2c-8.4 0-24.2-10.8-24.2-19.2s15.8-11.2 24.2-11.2a15.2 15.2 0 0115.2 15.2zm-586.7 215.2a15.2 15.2 0 01-15.2 15.2c-8.4 0-24.2-10.8-24.2-19.2s15.8-11.2 24.2-11.2a15.2 15.2 0 0115.2 15.2zm210.8-772.8a15.2 15.2 0 01-30.4 0c0-8.4-.6-21.4 7.8-21.4s22.6 13 22.6 21.4z"/><circle cx="1714.9" cy="1704.5" r="27"/><path d="m1228.7 1444.4a16.3 16.3 0 11-32.6 0c0-9 13.3-21.9 22.3-21.9s10.3 12.9 10.3 21.9zm-195.5 366.1c0 25.2-40.4 44.8-65.7 44.8a45.8 45.8 0 110-91.5c25.3 0 65.7 21.4 65.7 46.7zm112.2 212.5a25.3 25.3 0 01-25.3 25.3c-13.9 0-38.9-25.9-38.9-39.8s25-10.7 38.9-10.7a25.2 25.2 0 0125.3 25.2zm443.5-1051.6c0 12.7-3.4 31.7-16.1 31.7s-29.8-19-29.8-31.7a23 23 0 1145.9 0zm266.4-112.2c0 74.1-109.7 176.7-183.8 176.7s-65.4-88.2-59.3-162.1 34.8-148.8 108.9-148.8a134.2 134.2 0 01134.2 134.2zm-649 16.7c20.2 119.6-63 174.2-140.7 174.2s-140.6-78-140.6-174.2 62.9-174.1 140.6-174.1 124.7 79.3 140.7 174.1z"/><path d="m1147.2 1164.5c0 95.3 55.9 165-39.4 165s-184.3-78-184.3-173.3-13.7-156.7 81.7-156.7 142 69.6 142 165zm880.3 812s-61.3-1-44.3 71-20.6 109.9-9.3 124.4l11.3 14.6a667.1 667.1 0 0037-78c13-16 72.2 11.7 77.3-43 2.4-25.6-64.9-61.5-72-89zm-1110.4 46.5s46.7-39.5 70.4 23.5 20.9 96.9 57.3 129.9l5.6 77.1s-84-32.4-118.7-139.4c-4.1-12.6-48.7 1.3-51.2-13.4s37-59.7 36.6-77.7zm1028.3-882.5c87.6 13.7 167.2 76.5 195.3 160.5 8.9 26.5 12.4 57.2-2.3 81-11.2 18-31.3 29.1-52.1 33.3s-42.3 2.2-63.3-1c-52.2-8-102.9-23.6-153.4-39.1s-102.4-46-154.1-61.9c-16.2-4.9-33.7-10.9-42.7-25.2-26.9-43.1 26.3-78.4 54.2-100.5 39-30.8 84.4-38 133.5-46.3a262.9 262.9 0 0184.9-.8zm-342.1-290.1 50.9 36.4 49.3 52.7 49.3 76.6 38.9 63.3c5.2-8.1 1193.7-742.5 1192.5-747.9-2-8.7 0-319.9 0-319.9h-1024.4z"/><path d="m1222.2 859.5-404.2-847.9h-799.8v903.2l1046 176.5 38.8-90 28.2-56.9 24.8-29.6 38.3-35.3z"/></g></g><g clip-path="url(#x)"><path d="m1213.2 2110.7c-22.2 91.8 60.8 117.5 83.2 119.2 41.2 3.1 203.6 5.6 287.7-7.9 43.8-7 109.2-65.4 87.3-196.3l43 256.8h-533.5z" fill="url(#y)" opacity=".2"/><path d="m1098.7 1480.3c-23.8 16.2-43.5 24.2-45.2 84-21.5 150.6-39.4 290.9-48.3 362.6a910.2 910.2 0 00-6.8 98.4v3.4c23.5 26 47.6 88.8 52.6 176.8l1.3 49s-31.3-.8-81-.8c-62 0-110.8-111.7-79.2-278.2 28.4-149.5 110.2-538.7 110.2-538.7s29.9 15.3 96.4 43.5z" fill="url(#A)" opacity=".2"/><path d="m1854.3 2157.4s29.9-91.4 66.3-124.9c-39.4 75 14.1 92.7 28.1 87.7 53.7-19.2 75-66.7 79.2-150l65.3 116.3s-55 256-204 214l-38.7-18.1z" fill="url(#B)" opacity=".2"/><path d="m1654.6 883.3s43.5-74.5 97.3-68.5 71.6 67.3 57.7 100.5-55.5 99.5-55.5 99.5l-20.3-37-36.3-54.5z" fill="url(#z)" opacity=".4"/><path d="m1173.5 887s-56.9-64.9-108.5-48.8-57.5 79.7-37.6 109.6 60.1 78.7 60.1 78.7l20.6-35.1 30.7-57.1z" fill="url(#C)" opacity=".4"/><path d="m999.2 1267.4a4.1 4.1 0 015.1 5.8c-2.1 3.7-4.1 7.3-5.2 8.7a172.9 172.9 0 01-16.6 18.3 175.7 175.7 0 01-40.2 28.7c-3.7 1.9-30.4 11.3-34.4 9.6-6.1-2.6 14.1-12.3 16.3-15.1a184.5 184.5 0 0136.9-34.9 189.5 189.5 0 0138.1-21.1z" fill="url(#D)" opacity=".2"/><path d="m998.7 1365.8a43.5 43.5 0 01-8.7 5.6c-11 5.9-28.2 18.7-41.2 18.2-15.9-.5-1.8-20.1 2.6-26.7 22-32.6 56-54.8 91.7-72a4.1 4.1 0 015.1 6.1l-22.9 32.4-1.9 3.5a197.2 197.2 0 0076.6 131.7l.2.2c6.3 4.7 2.1 14.7-5.6 13.3a116.7 116.7 0 01-97.1-116.8" fill="url(#E)" opacity=".2"/><path d="m1293.2 863.8s-156.7 71.4-225.3 237.5c0 0 58.5-222.8 206.4-263.3z" fill="url(#F)" opacity=".2"/><path d="m1268.4 724.3c46.4 12 85 49.2 100 94.6a4.6 4.6 0 01-7.3 5.1c-18.8-15.4-44-24.3-57.9-44.3" fill="url(#G)" opacity=".2"/><path d="m1367.3 735.9a334.9 334.9 0 0012.9 42.2 4.6 4.6 0 008.9-.8c3.7-17.5 11.3-34.3 20.6-49.7 7-11.6 15.6-23.1 27.3-29.4a4.7 4.7 0 00.8-7.7c-12.2-10.1-30.9-12.2-44.8-4.2" fill="url(#H)" opacity=".2"/><path d="m1626.4 736.6c-36.9-9.1-76.1-11.9-112.8-2-31.9 8.6-61.8 27.7-80 55a4.6 4.6 0 01-8.5-2.5 166.7 166.7 0 015.1-45.6l86.7-78.7 102.7 42" fill="url(#I)" opacity=".2"/><path d="m1536.1 776.4c-14.1 12.5-22.7 29.5-29.3 47.4a4.6 4.6 0 007.5 5c23.4-21.7 54.9-34.5 86.5-41 .8-.2 1.9-.6 1.9-1.4s-1.8-.5-1.2.1" fill="url(#J)" opacity=".2"/><path d="m1219.1 804.8c18.1-6.4 45.1-3.2 60.1 8.3 18.3 14 21 39.2 12.2 51.7-7.1-17.6-12.6-34.5-30.8-39.7" fill="url(#K)" opacity=".2"/></g><g clip-path="url(#L)" opacity=".3"><path d="m1787.7 1470.2c35 4.6 45.1 40.9 48.7 51.8 65.8 196.2 106.1 326.5 133.6 448.3 46.1 204.7-81.2 286-81.2 286l61.1-35.5s63-74.8 72.5-107.6c20.8-71.9 139-33 117.2-147.7-17.4-91.4-84.4-388.2-141.3-637.4" fill="url(#M)"/><path d="m1818.5 1109.9c-48.5-68.6-116.8-160.1-135.8-194-20.7-36.8-78.6-66.4-129.5-81.7l-9 14.9s62.6 21 84.6 52.3c0 0 93.9 112.8 157.7 229.1a387.2 387.2 0 0058.4 79.8c20.9 22.1 48.5 50 79.3 77.7 67 60.3 78.8 60.8 78.8 60.8z" fill="url(#N)"/><path d="m1050.7 1460.5-42.6-25.7s-147.3 576.6-82 676c0 0 42.1 98.3 110.7 134.9-66.7-90.9-116.7-144.9-96.7-256.9s110.6-528.3 110.6-528.3z" fill="url(#O)"/><path d="m1999.2 2162.4s113.2 21.1 98.4 83.6l92.6 3 43.3-6.5-4.3-68.5-206.8-60.7z" fill="url(#P)"/><path d="m951.2 2166.5s-113.2 21.1-98.4 83.6l-92.6 3-43.3-6.5 4.3-68.5 206.8-60.7z" fill="url(#Q)" opacity=".7"/><path d="m1712.5 781.2s44.3-4.7 75.3 21c33.6 27.8 34.3 52.4 32 93.4-1.9 33.1-31.3 72.3-65.7 119.3l37.3 32 119.3-198s8-98.7-8.7-100.7-129.3-5.3-129.3-5.3z" fill="url(#R)"/><path d="m1129.5 807.1c-39.3-1.3-82.2 0-110.3 46-30.3 49.7 12.3 109 12.3 109l56 73-27.4 36.3s-94-78.7-94-82-12-135.3-10.7-138.7 37.3-56 40-58 92-32 92-32z" fill="url(#S)"/><path d="m1917.3 1308.2a301.8 301.8 0 00-76.5-40.1 3 3 0 00-2.8 5.2c17.3 13.2 34.3 26.9 49.5 42.5 19.2 19.9 35.5 43.2 43.6 69.6 1.7 5.7 4.3 12.6 10.2 13.4a143.5 143.5 0 00-2.7-54.7c-.4-1.8-1-3.7-2.4-4.9s-4-1-4.7.7" fill="url(#T)"/><path d="m1887.1 1370.5a358.8 358.8 0 00-60.8-52.6 3 3 0 00-4.6 3.1c5.6 28.1 1 57.5-5.2 85.6-5.5 25.2-14.3 52.9-37 65.3 39.2-13.1 77.8-34.2 100.4-68.8" fill="url(#U)"/><path d="m1999.2 2162.4s113.2 21.1 98.4 83.6l92.6 3 43.3-6.5-4.3-68.5-206.8-60.7z" fill="url(#P)"/><path d="m951.2 2166.5s-113.2 21.1-98.4 83.6l-92.6 3-43.3-6.5 4.3-68.5 206.8-60.7z" fill="url(#Q)" opacity=".7"/></g><path d="m1206.4 868c-10.2-22.6-28.8-40.8-50.7-52.5s-46.7-17-71.5-17.6c-19.9-.5-40.6 2.3-57.7 12.7-26.3 16.1-39.6 48.4-38.9 79.2s13.5 60.1 29.8 86.3a336.3 336.3 0 0063.3 74.9v.2c-12.7 30.6-22.4 57.9-27.8 73.8a172.1 172.1 0 01-9.7 21.8 302 302 0 01-50.9 70.6 408.2 408.2 0 00-28.3 32.7c-24.8 32-46.5 66.1-63.3 103.3 21.2-15 43.8-22.6 64.2-36.7-14.1 25.9-20.2 55.2-26.1 84a465.4 465.4 0 0165.1-44.9c-8.4 27.2.5 57.8 18.6 79.8l2.4 2.8v5.5l-28.6 150.3-17 89.8-60 315.5a248.9 248.9 0 0012.6 117.5l-.6.3c-38.1 9.1-130.4 43.4-184.5 78.3-26.5 17.1-10.1 55.9 23.2 55.3l266.9-5.2q6.8 4.1 13.8 7.9l.2 3.4c.4 23.3-6.7 42.4-29.9 43.6-15.6.8-28.2 9.9-30.6 21.1-4.7 21.5 5.8 38.9 27.2 40.4l84.3 5c26.4 1.6 51.9-11.3 65.3-34.1a71.4 71.4 0 008.8-23.9l5-26.6h533.6l3.5 20.7a71.6 71.6 0 0043.1 54.3 53.5 53.5 0 0022.3 4l91.8-3c22-2.2 30.1-15.7 27.9-36.9-.7-6.9-6.2-24.5-24.5-25.5-15.8-.9-25.2-8.6-28.1-21.9a246.8 246.8 0 0065.4-28.1l261.5 5.1c33.3.6 49.2-37.5 23.2-55.3-43-29.4-132.4-61.7-179.8-75.5l-.8-.3a248.1 248.1 0 006.4-155.8l-88.4-287.5-29.7-96.5-50.6-164.7v-2.5c12.8-22.4 17.1-50.1 7.6-73.9a465.4 465.4 0 0168.5 39.5c-8.2-28.3-16.7-57-32.8-81.6 21.5 12.4 52.2 18.7 71.9 29.9-21.3-32.8-45.2-70.4-76.3-96.4-37-30.9-54.3-55-82.3-109-12-23.1-30.4-57.3-52-93.3l.4-.2a336.4 336.4 0 0060-86.4c13.4-27.7 23-58.3 20.5-88.9s-19.2-61.5-47-74.6c-18-8.5-38.9-9.1-58.7-6.5-24.6 3.2-48.7 11.1-69.2 25.1s-37.1 34-44.9 57.5l-3.1 7.7-6.3-4.1a240.6 240.6 0 00-54.9-21.5l-10.1-3-2.2-1.4c15.3-25.7 49.9-40.7 49.9-40.7-26.7-27.5-75 2-75 2 18.3-46.5 101.9-59.5 101.9-59.5-104.8-85-197.2 24-197.2 24-9-24 15.3-59 15.3-59-62.7 3-61.3 57-70 57-46.7-44-107.4-29-107.4-29 31.9 8 64.2 78 64.2 78-77.9-36-110.3 4.3-110.3 4.3 28.7 2.8 47 15.2 58.4 27.5l-2.1 1.7a240.5 240.5 0 00-67.8 31.7v-2z" fill="none"/><path d="m1850.5 2273.9c130.6-34.8 214.8-171.9 175.8-309.9l-168.7-548.7m-676.7 867.1h533.6m-689.6-838.4-105.7 555.6c-14.2 107.9 42.3 207 131.5 254.1" fill="none" stroke="#31323d" stroke-linecap="round" stroke-miterlimit="10" stroke-width="12.5"/><path d="m1228.6 2040.8c-1.7 15.3-3.8 30.4-6 45.6l-3.5 22.7-3.8 22.6c-2.6 15.1-5.4 30.1-8.1 45.2l-8.3 45.1-16.6 90.3a76.3 76.3 0 01-3.5 12.1 77.5 77.5 0 01-5.4 11.4 75.5 75.5 0 01-16 19.4 78.7 78.7 0 01-45.9 18.8l-6.3.2h-6.1l-11.5-.7-22.9-1.3-45.8-2.8h-4.7l-1.8-.3a44.1 44.1 0 01-6.7-1.7 35.7 35.7 0 01-12.3-7.3 34.7 34.7 0 01-8.3-11.7 40.4 40.4 0 01-3.1-13.5 50.7 50.7 0 011-13.2l.2-.8v-1.7l.3-1.1a26.9 26.9 0 011.5-3.6 30.2 30.2 0 014.1-6.2 37.9 37.9 0 0111-8.8 45.9 45.9 0 0112.7-4.5 49 49 0 016.6-.9l2.7-.2 2.1-.3a22 22 0 004.3-1.2 18.5 18.5 0 003.8-1.9c4.6-3 7.7-8.4 9.4-14.8a70.5 70.5 0 001.8-20.8l-.9-22.9-1.9-45.9c-.6-15.3-1.3-30.6-1.8-45.9v.5c-.6-5-1.3-9.9-2-14.9-.4-2.5-.8-4.9-1.2-7.4s-.9-4.9-1.4-7.3-1-4.9-1.6-7.3-1.2-4.8-1.8-7.2q-1.9-7.2-4.4-14.2c-.8-2.3-1.7-4.6-2.6-6.9s-1.8-4.6-2.9-6.8l-1.5-3.4-1.6-3.3-1.7-3.3-1.8-3.3-1.8-3.2-1.9-3.2-4-6.3c-1.4-2.1-2.8-4.1-4.3-6.2l-2.2-3-2.3-3a2.2 2.2 0 013.4-2.9l5.4 5.6q2.6 2.9 5.1 5.9c1.7 2 3.3 4 4.8 6.1l2.3 3.2 2.2 3.2c1.5 2.2 2.9 4.3 4.2 6.6l2 3.4 1.9 3.4q1.9 3.4 3.5 7c1.1 2.4 2.2 4.7 3.2 7.2q3 7.2 5.4 14.7c1.6 5 3 10 4.2 15q.9 3.8 1.7 7.6c.5 2.5 1.1 5.1 1.5 7.6.9 5.1 1.7 10.2 2.4 15.3v.5c.9 15.3 1.6 30.6 2.4 45.8l2.3 45.8 1.1 22.9a94.4 94.4 0 01-.1 12.3 71.8 71.8 0 01-1.9 12.5 54.5 54.5 0 01-2 6.3 42.8 42.8 0 01-3.1 6.2 33.3 33.3 0 01-9.8 10.4 35.1 35.1 0 01-13.2 5.3l-3.5.5-3 .2a35 35 0 00-4.7.6 31.9 31.9 0 00-8.8 3.2 23.9 23.9 0 00-6.9 5.5 16.1 16.1 0 00-2.2 3.3 13 13 0 00-1.2 3.7 36.6 36.6 0 00-.7 9.6 26.2 26.2 0 002 8.7 20.4 20.4 0 004.9 6.9 21.4 21.4 0 007.3 4.3 30.1 30.1 0 004.4 1.1l1 .2h3.9l45.8 2.7 22.9 1.4 11.5.7h10.5a64.5 64.5 0 0037.6-15.2 61.4 61.4 0 0013.1-15.7 65 65 0 007.4-19.2l17.4-90.1 8.7-45.1c2.9-15 5.8-30 8.8-45l4.7-22.5 5-22.4c3.4-14.9 7-29.8 11-44.6a2.2 2.2 0 014.9.6z" fill="#31323d"/><path d="m1095.2 2319.6h-.5l-1.7.2a18.6 18.6 0 00-5.8 2 22.5 22.5 0 00-6.7 5.5 30.2 30.2 0 00-2.9 4 38.9 38.9 0 00-2.4 4.6l-1.5 3.6-.4 1.3c-.5 1.7-.9 3.4-1.3 5l-.5 2.4c-.2.8-.3 1.6-.4 2.4s-.4 3-.6 4.4-.2 2.6-.3 3.7-.1 2.1-.2 2.9v2.7a6.3 6.3 0 11-12.5-.6 6.9 6.9 0 01.1-.8l.5-2.7c.2-.9.3-1.9.6-3.1s.5-2.6.9-4.1.8-3.1 1.3-4.8l.8-2.6.9-2.7c.7-1.8 1.4-3.7 2.3-5.5l.6-1.4 1.4-2.8.8-1.4a46.9 46.9 0 013.6-5.2 37.5 37.5 0 014.2-4.5 28.8 28.8 0 019.4-5.8 23.9 23.9 0 017.7-1.5h3.1a2.2 2.2 0 11-.5 4.8zm-42.5-4.7h-.6l-1.6.4-2.5.9-.7.3-.8.4-1.6.9-1.7 1.1-1.7 1.3-.9.7-.8.8-1.6 1.7-1.5 2-.7 1-.6 1.1-1.3 2.2-1.1 2.4c-.3.8-.7 1.6-1 2.4l-.8 2.5-.8 2.4-.6 2.5a42.3 42.3 0 00-1 4.7l-.6 4.3a35.4 35.4 0 00-.3 3.7l-.2 2.8-.2 2.5v.4a6.3 6.3 0 11-12.5-.8 6.9 6.9 0 01.1-.8l.5-2.7.6-3.1c.3-1.2.4-2.5.9-4l1.3-4.7a51.3 51.3 0 011.8-5.2l1-2.7 2.6-5.4c.5-.9 1.1-1.8 1.6-2.7l1.7-2.6 1.9-2.4.9-1.2 3.2-3.2 3.3-2.7 1.2-.7 2.2-1.4 2.2-1.1 2.1-.8 1-.4 1-.3a26.5 26.5 0 013.2-.7l2.2-.2h.8a2.2 2.2 0 11.4 4.4zm621-289.7 2.2 9.4c1.4 6.1 3.4 15.1 5.8 26.6 1.2 5.7 2.5 12.1 3.9 19l4.4 22.5 4.8 25.6 5 28.4 23.3 135.3c1.1 6.1 2 12.8 3.6 17.8a63.3 63.3 0 007.2 15.7 65.1 65.1 0 0025.9 23.4l4.1 1.9 1.1.4 1 .4 2 .7a45.4 45.4 0 008.4 1.7l4.3.3h4.6l10-.3 40.1-1.4 39.4-1.2 2.5-.3 1.2-.2.9-.2 1.9-.4 1.9-.6a21.7 21.7 0 006.5-3.5 17 17 0 004.3-5.4c.2-.6.6-1.1.7-1.7l.6-1.8a30.4 30.4 0 00.8-3.9 37.8 37.8 0 00.4-4.1v-2.1s0-1.4-.1-2.2l-.2-2.2v-.3a.3.3 0 110-.1v-1.6l-.2-.8-.2-.9c-.1-.6-.4-1.3-.6-1.9-1.7-5-4.7-9.3-8.4-11.7a17.3 17.3 0 00-6.4-2.3l-1.8-.2-2.6-.2h-1.2l-1.5-.2-2.9-.5a39.5 39.5 0 01-10.9-4.2 30.1 30.1 0 01-9.1-8 34 34 0 01-5.3-10.4 47.2 47.2 0 01-1.9-10.7c-.1-.9-.1-1.7-.1-2.6s0-1.8 0-2.6v-4.6l.2-9.1.8-35.4.2-8.6v-3.7-.6-.3l.6-8.4c.1-1.4.2-2.7.4-4.2l1-8.4a250.4 250.4 0 016.4-31.5 277 277 0 019.1-28l2.7-6.4c.9-2.1 1.7-4.2 2.7-6.2l2.8-5.9c.9-1.9 1.8-3.9 2.8-5.7l2.9-5.4 1.4-2.6 1.5-2.5 2.9-4.9c.9-1.6 1.8-3.2 2.8-4.7l5.6-8.7 5.4-7.7 2.6-3.5 2.5-3.2c1.6-2.1 3.1-4.1 4.6-5.8l4.1-4.9 3.5-4 6.6-7.1a2.2 2.2 0 013.4 2.8l-5.6 7.8c-3.6 5.1-8.8 12.6-14.9 22.5l-4.7 7.8-4.8 8.8c-.9 1.5-1.7 3.1-2.5 4.7l-2.5 4.9-1.3 2.5-1.2 2.6-2.5 5.4a290.9 290.9 0 00-17.7 50.6l-.9 3.6-.8 3.6-1.5 7.4-.4 1.9-.9 5.7-.6 3.9-.3 1.9-.2 1.9-.9 7.8c-.2 1.3-.2 2.7-.3 4.1l-.6 8.4v.3-.1 12.3l-.5 35.4v15.8s0 1.4.1 2a33.7 33.7 0 001.4 7.5 20.3 20.3 0 003.2 6.2c2.7 3.6 6.9 5.8 12 6.9l1.8.3.9.2h1.2l2.2.2 3 .3a31.3 31.3 0 0111.7 4.2 31.8 31.8 0 019 8.5 40.3 40.3 0 015.4 10.5c.3.9.6 1.8.8 2.8l.4 1.4.3 1.6v2.9l.2 2.7c.1.9.1 1.8.1 2.8s.1 1.8 0 2.8a52 52 0 01-.5 5.7 44.4 44.4 0 01-1.2 5.8l-1 2.9c-.3 1-.8 1.9-1.3 2.9a31.3 31.3 0 01-7.9 10.1 35.8 35.8 0 01-10.9 6l-2.8.9-3 .7-1.5.3-1.3.2-2.5.3h-5.7l-15 .6-20.1.7-40.1 1.3-10 .3h-5.4l-5.6-.4a59.7 59.7 0 01-11-2.3l-2.7-.9-1.4-.5-1.2-.5-4.9-2.3a79.2 79.2 0 01-31.4-28.6 77.2 77.2 0 01-8.7-19.2l-.7-2.6-.3-1.3c-.1-.4-.2-.9-.3-1.3l-.5-2.3-.2-1.2v-1.4l-1.5-9.3-22-135.6-4.5-28.5-3.8-25.7-3.2-22.7c-1-7-1.8-13.4-2.5-19.3-1.5-11.6-2.5-20.8-3.2-27.1l-1-9.6a2.2 2.2 0 013.8-.6z" fill="#31323d"/><path d="m1783.2 2307.4h3.2a34.8 34.8 0 018 1.7 33.5 33.5 0 015.1 2.1 34.2 34.2 0 015.3 3.3 37.9 37.9 0 015 4.5c.7.9 1.5 1.7 2.2 2.7l1 1.4 1 1.5a46.8 46.8 0 013.3 6.1 56.5 56.5 0 012.4 6.2c.4 1 .6 2 .9 3s.5 2 .7 2.9l.6 2.8.4 2.6c.3 1.7.4 3.2.6 4.6s.3 2.5.3 3.5l.2 3.1a6.3 6.3 0 01-12.5.8 6.4 6.4 0 010-.7v-.3l.2-2.7c.1-.9.1-1.9.1-3.1s.1-2.6 0-4v-2.3l-.2-2.4c-.1-.8-.2-1.7-.3-2.5s-.2-1.8-.4-2.6a47.1 47.1 0 00-1.3-5.3 38.1 38.1 0 00-2.1-5.2l-.6-1.3-.7-1.2c-.4-.8-1-1.6-1.5-2.3a30.5 30.5 0 00-3.5-4.1 29.3 29.3 0 00-8-5.5 29.5 29.5 0 00-6.6-2.2l-1.9-.3h-.7a2.2 2.2 0 01-.2-4.8zm50.6-3.2h3.2a34.8 34.8 0 018 1.7 33.5 33.5 0 015.1 2.1 34.2 34.2 0 015.3 3.3 37.9 37.9 0 015 4.5c.7.9 1.5 1.7 2.2 2.7l1 1.4 1 1.5a46.8 46.8 0 013.3 6.1 56.6 56.6 0 012.4 6.2c.4 1 .6 2 .9 3s.5 2 .7 2.9l.6 2.8.4 2.6c.3 1.7.4 3.2.6 4.6s.3 2.5.3 3.5l.2 3.1a6.3 6.3 0 11-12.5.1v-.3l.2-2.7c.1-.9.1-1.9.1-3.1s.1-2.6 0-4v-2.3l-.2-2.4c-.1-.8-.2-1.7-.3-2.5s-.2-1.8-.4-2.6a47.1 47.1 0 00-1.3-5.3 38 38 0 00-2.1-5.2l-.6-1.3-.7-1.2c-.4-.8-1-1.6-1.5-2.3a30.5 30.5 0 00-3.5-4.1 29.3 29.3 0 00-8-5.5 29.5 29.5 0 00-6.6-2.2l-1.9-.3h-.7a2.2 2.2 0 01-.2-4.8z" fill="#31323d"/><path d="m931.3 2117.4c-38.1 9.1-130.4 43.4-184.5 78.3-26.5 17.1-10.1 55.9 23.2 55.3l280.4-5.5" fill="none" stroke="#31323d" stroke-linecap="round" stroke-miterlimit="10" stroke-width="12.5"/><path d="m840.5 2200.1-.7.2-2 .6-3.1 1-4 1.5-4.5 2.1a49.4 49.4 0 00-4.7 2.8 36 36 0 00-4.4 3.5 26.3 26.3 0 00-3.7 4.2l-.8 1.1-.7 1.2a21.4 21.4 0 00-1.1 2.4c-.2.4-.3.8-.4 1.2a8.9 8.9 0 00-.3 1.2 18.1 18.1 0 00-.4 2.4v3.6c0 .4.1.8.1 1.2a15.6 15.6 0 00.3 2.2c.2.7.3 1.4.5 2.1a36.6 36.6 0 001.2 3.6 29.8 29.8 0 001.2 2.8l1.2 2.4.2.3a6.3 6.3 0 01-11.3 5.5l-.3-.7-1.1-3.1c-.4-1-.7-2.2-1.1-3.7a48 48 0 01-1-4.9c-.1-.9-.2-1.9-.3-2.9a24.9 24.9 0 01-.1-3.2v-1.7l.2-1.7c.1-.6.1-1.2.2-1.7l.4-1.8a27.7 27.7 0 011-3.5 16.1 16.1 0 01.7-1.7l.8-1.7a30.5 30.5 0 012-3.2l1.1-1.5 1.2-1.4a34.5 34.5 0 015.4-4.9 43.4 43.4 0 015.8-3.6 56.1 56.1 0 015.7-2.6l5.2-1.8 4.4-1.2 3.5-.7 2.3-.3h.8a2.2 2.2 0 01.8 4.4h-.1zm-47.5 2h-.6l-1.7.5a38.1 38.1 0 00-5.9 2.5 32.6 32.6 0 00-3.6 2.2 29.2 29.2 0 00-3.5 2.9 23.5 23.5 0 00-2.9 3.7 18.7 18.7 0 00-2 4.2 21.2 21.2 0 00-.6 2.2c-.1.8-.3 1.5-.3 2.3a24.7 24.7 0 00.1 4.6 34.5 34.5 0 00.8 4.3c.4 1.4.7 2.7 1.2 3.9l.6 1.7.7 1.5.6 1.3.6 1.1 1.1 2.1v.2a6.3 6.3 0 01-11.2 5.6l-.3-.8-.9-2.7-.5-1.4-.5-1.7-.5-1.9c-.2-.7-.3-1.4-.5-2.2s-.6-3.3-.8-5.1a44.7 44.7 0 01-.2-5.9 34.2 34.2 0 01.8-6.3c.2-1.1.6-2.1.9-3.2a29.7 29.7 0 011.3-3.1 26.9 26.9 0 013.6-5.6 31 31 0 014.5-4.3 35.8 35.8 0 014.8-3 38.6 38.6 0 014.6-2 43.3 43.3 0 017.1-2l2-.3h.8a2.2 2.2 0 01.8 4.4h-.4z" fill="#31323d"/><path d="m2020.7 2120.2c47.5 13.8 136.8 46.1 179.8 75.5 26.1 17.8 10.1 55.9-23.2 55.3l-261.6-5.1" fill="none" stroke="#31323d" stroke-linecap="round" stroke-miterlimit="10" stroke-width="12.5"/><path d="m2107.6 2193.7h.8l2.3.4 3.5.8 4.5 1.4 5.2 2a58.4 58.4 0 015.6 2.8 45.8 45.8 0 015.7 3.8 36.7 36.7 0 015.3 5.1l1.2 1.5 1.1 1.6a31 31 0 011.9 3.3c.3.6.5 1.2.8 1.7s.5 1.2.7 1.8l.9 2.7.2.9a26.4 26.4 0 01.6 3.5 25.1 25.1 0 01.2 3.4 42.1 42.1 0 01-.4 6.2 50.3 50.3 0 01-1 5c-.4 1.5-.7 2.8-1.1 3.7l-1.1 3.2a6.3 6.3 0 01-11.8-4.1l.3-.7.2-.3 1.2-2.4c.4-.8.7-1.7 1.2-2.8s.8-2.3 1.2-3.7a31.5 31.5 0 00.8-4.4 15.7 15.7 0 00.1-2.4 16.7 16.7 0 00-.1-2.5v-1.2l-.2-1.3c-.1-.4-.2-.8-.4-1.3a12.8 12.8 0 00-.4-1.3 21.8 21.8 0 00-1.1-2.5l-.7-1.2-.8-1.2a28.5 28.5 0 00-3.7-4.4 38.4 38.4 0 00-4.4-3.8 51.5 51.5 0 00-4.7-3l-4.5-2.3a66.6 66.6 0 00-7.1-2.9l-2-.6-.7-.2h-.1a2.2 2.2 0 01.8-4.3zm47.5 2h.8l2.1.4a44.7 44.7 0 017.1 2.4 40.4 40.4 0 014.5 2.3 38.2 38.2 0 014.7 3.3 33.1 33.1 0 014.4 4.5 30 30 0 014.8 8.8c.4 1.1.6 2.2.9 3.2s.4 2.2.6 3.3.3 2.2.2 3.2.1 2.1 0 3.1l-.2 2.9c-.3 1.8-.5 3.6-.8 5.2l-.5 2.3-.6 2-.5 1.8-.5 1.4-.9 2.7a6.3 6.3 0 01-11.8-4.1l.3-.7v-.3l1.7-3.4.6-1.4.7-1.6.6-1.7c.5-1.2.8-2.6 1.2-4l.4-2.2c.2-.7.2-1.5.3-2.3s.1-1.5.1-2.3-.1-1.6-.1-2.4-.2-1.6-.3-2.4a20.2 20.2 0 00-.6-2.3 20.6 20.6 0 00-2-4.4 25.7 25.7 0 00-2.9-3.9 31.5 31.5 0 00-3.5-3.2 34.4 34.4 0 00-3.6-2.4 39.4 39.4 0 00-5.9-2.9l-1.7-.6-.6-.2h-.1a2.2 2.2 0 011.1-4.1z" fill="#31323d"/><path d="m1623.3 854c7.8-23.5 24.4-43.6 44.9-57.5s44.7-21.9 69.2-25.1c19.8-2.6 40.6-2 58.7 6.5 27.8 13.2 44.5 44 47 74.6s-7.1 61.2-20.5 88.9a336.4 336.4 0 01-60 86.4m-556.2-159.8c-10.2-22.6-28.8-40.8-50.7-52.5s-46.7-17-71.5-17.6c-19.9-.5-40.6 2.3-57.7 12.7-26.3 16.1-39.6 48.4-38.9 79.2s13.5 60.1 29.8 86.3a336.3 336.3 0 0063.3 74.9" fill="none" stroke="#31323d" stroke-linecap="round" stroke-miterlimit="10" stroke-width="12.5"/><path d="m1093.1 1482.7-5.2-1.3-5.3-1.5-5.2-1.7-5.1-1.8-5.1-2-5-2.2-5-2.4-4.9-2.6-4.8-2.7-4.7-3-4.6-3.1-4.5-3.3-4.3-3.6-4.1-3.8-4-4-3.8-4.2-3.5-4.3-3.4-4.7-3.1-4.8-2.8-5-2.5-5.1-2.2-5.3-1.9-5.4c-.6-1.8-1-3.7-1.6-5.5s-.8-3.7-1.2-5.6-.6-3.8-.9-5.7-.3-3.8-.5-5.7-.1-3.9-.1-5.8.2-3.9.3-5.8.5-3.8.7-5.8l1.2-5.7 1.7-5.6 9.1 7.3-8.4 4.9-8.3 5.1-8.2 5.3-8.1 5.5-8 5.6-7.9 5.8-7.7 6-7.6 6.1a6.2 6.2 0 01-10.1-6.1l2.3-10.8q1.1-5.4 2.4-10.9l2.6-10.8 1.4-5.4 1.5-5.4 1.6-5.4 1.7-5.4 1.8-5.4 2-5.3 2.1-5.3 2.3-5.2 2.5-5.2 2.7-5.1 9 8.1-4 2.7-4.1 2.5-4.1 2.4-4.1 2.3-8.3 4.4-8.3 4.2-8.2 4.2-8 4.3-3.9 2.3-3.8 2.3-3.7 2.4-3.7 2.5h-.1a6.2 6.2 0 01-9.2-7.8c5.7-12.6 12-24.9 18.8-36.9s14.1-23.7 21.8-35.2 15.8-22.6 24.3-33.4a413.6 413.6 0 0127.1-31.4c4.7-4.9 9.1-9.8 13.5-14.9s8.5-10.3 12.5-15.7a282.4 282.4 0 0021.6-33.7c3.2-5.8 6.2-11.8 8.9-17.8 1.3-3 2.5-6 3.6-9l3.4-9.7q6.8-19.4 14.2-38.5t15.5-38.1c5.4-12.6 11-25.1 17-37.5s12.3-24.6 19-36.6a395.3 395.3 0 0122.2-35.1c4.1-5.6 8.3-11.2 13-16.5l1.7-2 5.4-5.7 7.1-7.3 3.8-3.9 3.7-3.5 3.9-3.5 4-3.5q8-6.8 16.5-12.9a248.5 248.5 0 0175.2-36.4 6.2 6.2 0 013.5 12h-.1a236 236 0 00-71.3 34.5q-8.1 5.8-15.7 12.3l-3.7 3.2-3.7 3.3-3.7 3.5-3.3 3.5-7.1 7.3-5.1 5.4-1.6 1.9c-4.3 4.9-8.3 10.3-12.3 15.6a383 383 0 00-21.4 34c-6.6 11.7-12.8 23.7-18.7 35.9s-11.4 24.5-16.8 37-10.4 25-15.3 37.7-9.6 25.4-14.1 38.2l-3.3 9.6c-1.2 3.4-2.5 6.8-4 10-2.9 6.5-6 12.6-9.3 18.8a294.9 294.9 0 01-22.5 35.1q-6.2 8.4-13 16.3c-4.5 5.3-9.2 10.5-14 15.4a401.1 401.1 0 00-26.3 30.5c-8.3 10.6-16.2 21.6-23.8 32.7s-14.6 22.6-21.3 34.3-12.7 23.7-18.3 35.9l-9.3-7.7 4-2.7 4-2.6 4.1-2.5 4.1-2.4 8.3-4.5 8.3-4.3 8.2-4.2 8-4.3 3.9-2.2 3.9-2.3 3.8-2.4 3.7-2.5a6.3 6.3 0 019.1 8.1l-2.4 4.7-2.3 4.8-2.1 4.9-2 5-1.9 5-1.7 5.1-1.6 5.1-1.5 5.2-1.4 5.2-1.4 5.3-1.3 5.3-1.2 5.3q-1.2 5.3-2.3 10.7l-2.4 11.3-10.1-6.1 7.8-6.3 7.9-6.1 8.1-6 8.2-5.8 8.3-5.6 8.4-5.4 8.5-5.2 8.7-5.1a6.2 6.2 0 019.2 6.8v.5l-1.1 4.7-.8 4.8-.5 4.8v4.9l.2 4.9.5 4.9.8 4.8c.4 1.6.7 3.2 1.1 4.8l1.3 4.8 1.6 4.7 1.8 4.6 2.1 4.5 2.3 4.4 2.5 4.3 2.7 4 3.1 4.1 3.2 3.9 3.4 3.8 3.6 3.6 3.7 3.5 3.9 3.3 4 3.2 4.1 3 4.2 2.9 4.4 2.8 4.5 2.7 4.5 2.5 4.6 2.4 4.7 2.3 4.8 2.2 4.8 2.1 4.9 2a2.5 2.5 0 01-1.8 4.8zm691.6-14.8 4.8-2.4 4.6-2.5 4.6-2.6 4.5-2.7 4.4-2.8 4.3-2.9 4.2-3 4.1-3.1 4-3.3 3.9-3.4 3.7-3.5 3.6-3.6 3.4-3.8 3.3-3.9 3.1-4 2.9-4.1 2.7-4.4 2.3-4.2 2.2-4.5 1.9-4.6 1.7-4.7 1.5-4.7 1.2-4.8 1-4.8c.2-1.6.4-3.3.7-4.9l.4-4.9v-4.9l-.2-4.9-.5-4.8-.8-4.8-1.2-4.7-1.5-4.6v-.5a6.2 6.2 0 018.6-7.5l9 4.4 8.9 4.5 8.8 4.7 8.7 4.9 8.6 5.1 8.5 5.3 8.4 5.5 8.3 5.6-9.6 6.9-3.1-10.6-3.2-10.5-3.4-10.4-3.6-10.2-1.9-5-2-5-2.1-4.9-2.3-4.9-2.4-4.8-2.5-4.7-2.7-4.6-2.8-4.5a6.3 6.3 0 018.3-8.9l4 2.2 4.2 2 4.3 1.9 4.4 1.8 4.4 1.7 4.5 1.7 9.1 3.3 9.2 3.3 4.6 1.7 4.6 1.8 4.7 1.9 4.6 2 4.6 2.2 4.6 2.5-8.3 8.8c-6.8-10.4-13.5-20.8-20.5-31s-14.1-20.1-21.8-29.7a255.3 255.3 0 00-24.5-26.9l-3.3-3.1-3.4-3-7.1-6.1-7.1-6.3-6.9-6.5a250.7 250.7 0 01-25.4-28.6 319.5 319.5 0 01-20.9-31.8c-6.4-10.9-12.3-21.9-18-33s-11.5-21.9-17.5-32.8-11.9-21.7-18.1-32.4-12.4-21.4-18.8-32c-3.2-5.3-6.5-10.5-9.7-15.8l-9.9-15.7-10.2-15.5c-3.5-5.1-6.9-10.2-10.5-15.3-7.1-10.1-14.4-20-22-29.7l-5.7-7.2-5.9-7-3-3.5-1.5-1.7-1.6-1.7-6.2-6.6a238.9 238.9 0 00-27.2-24c-4.8-3.7-9.8-7.1-14.9-10.4l-15.7-10.1.4.3-7.5-3.9-7.7-3.6-7.8-3.4-3.9-1.6-4-1.5-8-2.8-8.1-2.5-4.1-1.1-2.1-.5-.7-.2-.5-.2-1-.3-8.4-2.5a6.2 6.2 0 113.5-12l8.4 2.5 1.9.5 2.2.6 4.3 1.2 8.5 2.6 8.4 2.9 8.4 3.2 8.2 3.5 8.1 3.8 7.9 4.1.4.2 15.7 10.1c5.3 3.4 10.6 7.1 15.6 10.9a251.4 251.4 0 0128.6 25.3l3.3 3.5 3.2 3.5 1.6 1.7 1.6 1.8 3.1 3.6 6.1 7.2 5.9 7.4c7.8 9.8 15.2 20 22.4 30.2 3.6 5.1 7.1 10.3 10.6 15.5l10.3 15.7 10 15.8c3.3 5.3 6.6 10.6 9.8 16q9.7 16 19 32.3c6.2 10.8 12.3 21.7 18.3 32.7s11.8 22 17.6 33 11.5 21.9 17.7 32.4a307.2 307.2 0 0020.1 30.5 238 238 0 0024.1 27.1l6.7 6.2 6.8 6 7.1 6.1 3.6 3.2 3.5 3.3a267.7 267.7 0 0125.7 28.2c15.8 19.7 29.4 40.9 43 61.7a6.2 6.2 0 01-8.1 8.9h-.2l-4-2.1-4.2-2-4.3-1.9-4.4-1.8-4.5-1.7-4.5-1.6-9.1-3.2-9.2-3.3-4.6-1.7-4.6-1.8-4.6-1.9-4.6-2.1-4.6-2.3-4.5-2.5 8.4-8.8 3.1 4.9 2.9 5 2.7 5 2.5 5.1 2.4 5.2 2.3 5.2 2.1 5.2 2 5.3 1.9 5.3 3.6 10.6 1.7 5.3 3.2 10.6 3.1 10.6a6.2 6.2 0 01-9.5 6.9l-8.1-5.5-8.2-5.3-8.3-5.1-8.4-5-8.5-4.8-8.6-4.6-8.7-4.4-8.8-4.2 8.5-8 2.1 5.4 1.6 5.6q.6 2.8 1.2 5.7c.3 1.9.5 3.8.8 5.7s.3 3.8.3 5.8 0 3.8 0 5.8-.2 3.8-.4 5.7-.5 3.8-.8 5.7-.7 3.7-1.1 5.6-1 3.7-1.5 5.5l-1.8 5.4-2.1 5.3-2.4 5.2-2.7 5-3 5-3.1 4.6-3.4 4.5-3.6 4.3-3.8 4.1-4 3.9-4.2 3.7-4.3 3.5-4.4 3.3-4.6 3.1-4.7 2.9-4.7 2.8-4.8 2.6-4.9 2.4-5 2.2-5 2.1-5.1 1.9-5.1 1.7a2.5 2.5 0 01-2.1-4.2z" fill="#31323d"/><path d="m1290.8 864.6a52.2 52.2 0 00-2.3-5.3c-.9-1.8-1.8-3.5-2.9-5.2s-2.1-3.3-3.3-5-2.3-3.2-3.6-4.7l-1.9-2.2-2-2.2c-1.4-1.4-2.8-2.8-4.2-4.1l-2.2-1.9-2.3-1.8c-1.6-1.2-3.1-2.3-4.8-3.4s-3.3-2.1-5-3-3.4-1.8-5.2-2.6-3.6-1.5-5.3-2.3l-2.7-1-2.8-.9-2.8-.8-2.8-.7c-1.9-.5-3.8-.8-5.7-1.2l-5.8-.8-5.8-.5a6.2 6.2 0 01-4.3-10.1h.1l.5-.6 2.7-2.7 3.2-2.7a61.7 61.7 0 016.7-4.6 68.3 68.3 0 017.2-3.7l1.8-.8 5.7-2.1a77.2 77.2 0 017.7-2.1l3.9-.8 3.9-.6 3.9-.4 3.9-.3h7.8l3.9.2 3.9.3c2.6.3 5.1.6 7.7 1s5.1.9 7.6 1.5l3.7.9 3.7 1 7.3 2.2 7.2 2.5 7.1 2.8 6.9 3.1-8.3 8.3-2.7-5.6-2.9-5.6q-3-5.6-6.1-11.1l-3.2-5.4-3.3-5.4-3.5-5.3-3.6-5.2-3.7-5-3.9-4.8c-1.3-1.6-2.7-3.1-4-4.7l-2.1-2.2-2.1-2.1-2.2-2.1-2.2-1.9c-1.5-1.3-3.1-2.4-4.6-3.5l-2.4-1.5-2.4-1.3-2.4-1-2.4-.8h-.4a6.2 6.2 0 01.4-12l2-.4 1.9-.4 3.8-.6 7.5-.8 7.5-.4h7.6l3.8.2 3.8.3 7.5.8 3.7.6 3.7.7 7.4 1.6c2.4.7 4.9 1.3 7.3 2.1s4.8 1.7 7.2 2.5 4.7 1.9 7 3 4.6 2.2 6.8 3.4l3.3 1.9 3.3 2 3.2 2.1 3.1 2.2c2.1 1.5 4 3.1 6 4.7l2.9 2.5 2.8 2.5-4.3-1.7h-.8l-.7.2-.9.5-.3.2a10.8 10.8 0 00.9-1.6c.7-1.5 1.4-3.3 2.2-5.2 1.5-3.8 3.1-7.7 5-11.6a81.3 81.3 0 016.7-11.3 65.7 65.7 0 018.9-10 59.2 59.2 0 015.2-4.3 62.3 62.3 0 015.6-3.7 66.4 66.4 0 015.9-3.1c2-.9 4.1-1.8 6.2-2.5s4.2-1.3 6.3-1.9l6.4-1.4 6.4-.9 3.2-.3 3.2-.2a6.2 6.2 0 015.5 9.7h-.1l-1.9 3-1.9 3.2q-1.9 3.2-3.5 6.6a102.2 102.2 0 00-5.7 13.7c-.4 1.2-.7 2.3-1.1 3.5s-.6 2.3-.9 3.5-.5 2.3-.7 3.5-.3 2.3-.4 3.4-.1 2.3-.1 3.4v1.7c0 .5.1 1.1.1 1.6s.1 1.1.2 1.6a12.3 12.3 0 00.3 1.6 27.9 27.9 0 00.9 3l-10.6-1.8 2.5-2.8 2.5-2.6 5.1-5c3.5-3.3 7.1-6.4 10.7-9.4a200.7 200.7 0 0123.4-16.5 169.1 169.1 0 0125.8-12.8 138.8 138.8 0 0127.9-7.8 120.3 120.3 0 0114.5-1.6 125.3 125.3 0 0114.6.2 132.2 132.2 0 0114.5 1.9 128.1 128.1 0 0127.7 8.8l3.3 1.5 3.3 1.6 6.4 3.4 3.1 1.8 3.1 1.9c2.1 1.2 4 2.6 6 4s3.9 2.8 5.8 4.2l5.7 4.4a6.2 6.2 0 01-2.8 11h-.2l-7.2 1.4-7.3 1.7q-7.2 1.8-14.4 4l-3.5 1.1-3.5 1.2-7 2.6-6.8 2.8-3.4 1.5-3.3 1.6-3.3 1.7-6.4 3.6-3.1 1.9-3 2-2.9 2.1c-1.9 1.5-3.8 2.9-5.6 4.5s-3.5 3.2-5.1 4.9l-2.3 2.6-2.2 2.7a32.1 32.1 0 00-2 2.8l-1 1.4-1.6 3a11.5 11.5 0 00-.8 1.5l-1.4 3.1-9.1-7.6 2.4-1.4 2.4-1.3 4.8-2.3q4.8-2.2 9.8-4l5.1-1.7 5.2-1.4 2.6-.6 5.4-1 2.7-.4 5.5-.5h5.6l2.8.2 2.8.4 2.8.5 2.8.7 2.8.9 2.7 1a46.3 46.3 0 015.3 2.6 45.4 45.4 0 014.8 3.4 49.6 49.6 0 014.4 3.9l.2.2a6.1 6.1 0 01-.1 8.6 6.2 6.2 0 01-2.1 1.3l-2.4 1-2.5 1.1-5 2.4c-3.3 1.7-6.6 3.5-9.7 5.5l-4.7 3-4.6 3.2-4.4 3.4-4.2 3.6c-1.4 1.2-2.7 2.5-4 3.8s-2.5 2.7-3.6 4.1l-1.7 2.1-1.6 2.2-1.5 2.3-1.4 2.3c-.5.8-.8 1.6-1.3 2.4a24.6 24.6 0 00-1.1 2.5c-.3.8-.7 1.7-1 2.5l-.8 2.6c-.3.9-.4 1.8-.6 2.6a21 21 0 00-.5 2.7 45.6 45.6 0 00-.4 5.4v.3a2.5 2.5 0 01-5-.1 50.8 50.8 0 010-6.1 25.4 25.4 0 01.3-3.1c.2-1 .3-2 .5-3.1l.7-3c.2-1 .6-2 .9-3a29.7 29.7 0 011-2.9c.4-1 .7-1.9 1.2-2.8l1.3-2.8 1.5-2.7 1.6-2.6 1.7-2.5c1.1-1.7 2.4-3.3 3.7-4.9s2.6-3.1 4-4.6l2.1-2.2 2.1-2.1 2.2-2.1 2.3-2 4.6-3.8 4.8-3.6q4.8-3.5 10-6.7l5.2-3.1 2.7-1.5 2.8-1.4-2 10.1a37.4 37.4 0 00-3.1-2.8 33 33 0 00-3.4-2.4 33.9 33.9 0 00-3.8-1.8l-2-.8-2-.6-2.1-.5-2.1-.4-2.2-.3-2.2-.2h-4.5l-4.5.4-2.3.3-2.3.4-4.6 1-4.5 1.3-4.5 1.5c-3 1.1-5.9 2.3-8.8 3.6l-4.3 2.1-2.1 1.1-1.9 1.1-.3.2a6.2 6.2 0 01-8.8-7.8l1.7-3.9a17.2 17.2 0 011-1.9l1-1.9 1.1-1.8 1.2-1.8c.8-1.2 1.5-2.4 2.4-3.4l2.6-3.3 2.8-3.1c1.9-2 3.9-3.9 6-5.7s4.2-3.5 6.4-5.1l3.3-2.3 3.4-2.2 3.4-2.1 3.5-2 3.5-1.9 3.6-1.8 3.6-1.7 3.6-1.6 7.3-3 7.4-2.7 3.7-1.3 3.7-1.2q7.5-2.4 15.1-4.2l7.7-1.8 7.9-1.5-3 11-5.3-4.1c-1.8-1.3-3.6-2.7-5.4-3.9l-5.6-3.7-2.8-1.8-2.9-1.7-2.9-1.6-2.9-1.5-6-2.8a115.7 115.7 0 00-25-8 119.9 119.9 0 00-13-1.7 112.9 112.9 0 00-13.1-.1 107.9 107.9 0 00-13.1 1.4 126.4 126.4 0 00-25.4 7.1 156.7 156.7 0 00-23.9 11.8 188.2 188.2 0 00-21.9 15.5c-3.5 2.8-6.8 5.8-10.1 8.9l-4.8 4.7-2.3 2.4-2.1 2.3-.2.2a6.1 6.1 0 01-8.7.6 6.2 6.2 0 01-1.8-2.7 40 40 0 01-1.3-4.6 21.9 21.9 0 01-.5-2.3c-.1-.8-.3-1.5-.3-2.3s-.2-1.5-.2-2.3v-2.5c0-1.5 0-3 .2-4.5s.3-2.9.5-4.4.5-2.9.8-4.2.7-2.8 1-4.2.8-2.7 1.2-4a114.5 114.5 0 016.4-15.4q1.8-3.7 3.9-7.3l2.1-3.6 2.3-3.6 5.4 9.8-2.8.2-2.8.3-5.6.8-5.5 1.2-5.3 1.6a52.4 52.4 0 00-18.6 10.9 59.3 59.3 0 00-12.9 17.7c-1.7 3.4-3.1 6.9-4.6 10.7-.8 1.9-1.5 3.8-2.5 6a22.2 22.2 0 01-2.1 3.7 11.2 11.2 0 01-2.3 2.4 9.1 9.1 0 01-2.2 1.2l-1.4.4h-1.5a5.8 5.8 0 01-4-1.5l-.2-.2-2.5-2.3-2.6-2.2c-1.8-1.4-3.5-2.9-5.4-4.2l-2.8-2-2.9-1.9-2.9-1.8-3-1.7c-2-1.1-4-2.1-6.1-3.1s-4.2-1.8-6.3-2.7-4.3-1.6-6.4-2.3-4.4-1.3-6.6-1.9l-6.7-1.5-3.4-.6-3.4-.5-6.8-.8-3.4-.2h-10.3l-6.9.4-6.8.7-3.3.5-1.6.3-1.5.3v-12.1l3.7 1.2 3.5 1.5 3.3 1.7 3.1 1.9c2 1.4 3.9 2.8 5.7 4.3l2.6 2.3 2.5 2.4 2.4 2.4 2.3 2.5c1.5 1.7 3 3.4 4.4 5.1s2.8 3.5 4.2 5.2l4 5.4 3.8 5.4 3.6 5.5 3.5 5.6 3.4 5.7q3.3 5.7 6.4 11.5l3 5.9 2.9 6a6.2 6.2 0 01-8.1 8.4h-.2l-6.5-2.9-6.6-2.6-6.7-2.4-6.8-2-3.4-.9-3.4-.8c-2.3-.5-4.6-1-6.9-1.3s-4.6-.7-6.9-.9l-3.5-.3-3.5-.2h-6.9l-3.4.2-3.4.4-3.4.5-3.3.7a64.7 64.7 0 00-6.5 1.8l-3.2 1.1-1.6.6-1.5.7a55.8 55.8 0 00-5.9 3.1 49.1 49.1 0 00-5.4 3.7l-2.4 2.1-1.6 1.6-.3.4-4.3-10.1 6.4 1.1 6.4 1.4c2.1.6 4.2 1.1 6.3 1.8l3.1 1 3.1 1.1 3 1.2 3 1.3c1.9 1 3.9 1.9 5.8 3s3.7 2.2 5.6 3.4 3.6 2.4 5.3 3.8 3.4 2.7 5 4.1l2.4 2.2 2.3 2.3c1.5 1.6 2.9 3.2 4.3 4.8l2 2.5 1.9 2.6c1.2 1.7 2.4 3.5 3.5 5.4s2.1 3.7 3.1 5.6 1.8 3.8 2.7 5.8a56.6 56.6 0 012.2 6.1 2.5 2.5 0 01-4.8 1.5z" fill="#31323d"/><circle transform="matrix(.13053 -.99144 .99144 .13053 381.9 2638.3)" cx="1696" cy="1101.3" r="129.7" fill="#fff"/><g clip-path="url(#V)"><circle transform="matrix(.99144 -.13053 .13053 .99144 -134.2 226.5)" cx="1653.5" cy="1132.4" r="87.6" fill="#7c40ff"/><circle transform="matrix(.99144 -.13053 .13053 .99144 -134.3 227)" cx="1657.1" cy="1133.7" r="64.7" fill="#31323d"/><circle transform="matrix(.99144 -.13053 .13053 .99144 -126.9 229.4)" cx="1679.1" cy="1078.3" r="35.2" fill="#fff"/></g><circle transform="matrix(.13053 -.99144 .99144 .13053 381.9 2638.3)" cx="1696" cy="1101.3" r="129.7" fill="none" stroke="#31323d" stroke-linecap="round" stroke-miterlimit="10" stroke-width="10"/><path d="m1828.1 1011.3c-65.3 5.4-115.7-35.5-151.7-66.9" fill="none" stroke="#31323d" stroke-linecap="round" stroke-miterlimit="10" stroke-width="30"/><circle transform="matrix(.99144 -.13053 .13053 .99144 -137.7 163)" cx="1168.9" cy="1127" r="129.7" fill="#fff"/><g clip-path="url(#W)"><circle transform="matrix(.99144 -.13053 .13053 .99144 -141.4 168.8)" cx="1211.4" cy="1158.2" r="87.6" fill="#7c40ff"/><circle transform="matrix(.99144 -.13053 .13053 .99144 -141.5 169.3)" cx="1215" cy="1159.4" r="64.7" fill="#31323d"/><circle transform="matrix(.99144 -.13053 .13053 .99144 -134 171.7)" cx="1237.1" cy="1104" r="35.2" fill="#fff"/></g><circle transform="matrix(.99144 -.13053 .13053 .99144 -137.7 163)" cx="1168.9" cy="1127" r="129.7" fill="none" stroke="#31323d" stroke-linecap="round" stroke-miterlimit="10" stroke-width="10"/><path d="m1036.8 1037c65.3 5.4 115.7-35.5 151.7-66.9" fill="none" stroke="#31323d" stroke-linecap="round" stroke-miterlimit="10" stroke-width="30"/><path d="m1353.5 1311.9s24.8 61 78.8 61 74-61.4 74-61.4-44.9-7.8-68.8-85.4c0 0-24 89.7-84 85.8z" fill="#31323d"/><g clip-path="url(#X)"><path d="m1506.3 1348.8s-48.8-13.2-69.9-12.3c0 0-44.6-1.9-63.4 18.9 0 0 12.2 33.6 61.9 33.6s65.4.8 71.4-40.2z" fill="#f29cb1"/><g clip-path="url(#Y)"><path d="m1432.8 1287.3c4.8 11.9 3.9 37.2 3.3 62.1" fill="none" stroke="#db829b" stroke-linecap="round" stroke-miterlimit="10" stroke-width="22"/></g></g><path d="m1353.5 1311.9s24.8 61 78.8 61 74-61.4 74-61.4-44.9-7.8-68.8-85.4c0 0-24 89.7-84 85.8z" fill="none" stroke="#31323d" stroke-linecap="round" stroke-linejoin="round" stroke-width="7"/><path d="m1372.1 1412s7.8 72.2 68.5 66.3c58.7-5.6 61.4-73.8 61.4-73.8s-19.5 31.4-57.5 34-72.4-26.5-72.4-26.5z" fill="#595959" opacity=".2"/><path d="m1372.6 1195.8a15.2 15.2 0 014-15.9c9.2-8.5 28.7-20.9 64.3-20.3s52.2 13.5 60 22.4a15 15 0 012.1 16.2 20.8 20.8 0 01-18.5 11.9c-10.1 0-24.1 2.7-33.1 15a12.9 12.9 0 01-1.9 2.1l-.4.3a17.6 17.6 0 01-25.2-2s-7-12.7-33.8-15.4a21.1 21.1 0 01-17.4-14z" fill="#31323d"/><path d="m1504.5 1401.2a32.5 32.5 0 01-1.2 5.2 49.1 49.1 0 01-1.7 5 67.2 67.2 0 01-5 9.6 71.1 71.1 0 01-6.9 8.5 63 63 0 01-8.2 7.3 74.2 74.2 0 01-41.1 13.8h-5.5l-5.4-.4a78.5 78.5 0 01-10.8-1.8 91.2 91.2 0 01-20.2-7.6c-12.6-6.8-23.4-17.1-29.9-29.4a2.4 2.4 0 011-3.4 2.4 2.4 0 013 .4 90.6 90.6 0 0031.3 20.9 93.8 93.8 0 0017.7 5.1 86.2 86.2 0 0018.2 1.2 75.9 75.9 0 0034.5-9.8 90.2 90.2 0 007.5-5.1 55.9 55.9 0 006.8-6.1 69.1 69.1 0 006.1-7.1 37.7 37.7 0 002.6-3.9c.9-1.3 1.7-2.7 2.5-4.1v-.2a2.5 2.5 0 014.6 1.8z" fill="#31323d"/><path d="m1527.4 1237.2c15-3.1 30-5.4 45.1-7.1s30.3-2.9 45.5-3.4a460.3 460.3 0 0190.8 5.5 319.8 319.8 0 0144.3 10.3 270.4 270.4 0 0142.3 16.9 215.3 215.3 0 0138.2 24.4 197.1 197.1 0 0131.9 32 204.2 204.2 0 00-32.6-31.1 229.2 229.2 0 00-38.6-23.1 266.9 266.9 0 00-42.2-15.5 350.2 350.2 0 00-44-9c-29.8-4.1-59.9-4.7-89.8-2.9q-22.3 1.3-44.7 4.5c-14.8 2.1-29.5 4.8-44 8.3a5 5 0 01-6-3.7 4.9 4.9 0 013.7-6z" fill="#31323d"/><path d="m1697 1191.2c-12.9.5-25.8 1.3-38.6 2.7s-25.5 3.2-38.1 5.5-25.2 5.1-37.6 8.3-24.6 7-36.7 11.2h-.1a5 5 0 01-6.3-3.1 5 5 0 013.1-6.4h.3c12.6-3.4 25.3-6.4 38-8.9s25.6-4.5 38.5-6 25.8-2.5 38.8-3 25.8-.7 38.7-.3z" fill="#31323d"/><path d="m1541.7 1259 5.9-.9 2.9-.4 2.9-.2 3-.3h11.8l3 .2 2.9.2 8.7 1.2 5.8 1.1a154.7 154.7 0 0122.2 7 180.6 180.6 0 0120.7 10.2 219.1 219.1 0 0136.7 27.4c5.6 5.2 10.9 10.6 16 16.2a200.8 200.8 0 0114.5 17.5 220.7 220.7 0 00-15.4-16.7c-5.3-5.3-11-10.3-16.8-15.1a211.6 211.6 0 00-37.4-24.9 175.7 175.7 0 00-20.5-8.8 134.1 134.1 0 00-21.4-5.4l-5.5-.8-5.4-.4-2.8-.2h-8.2l-5.4.3-2.7.3-5.4.8-2.7.5-5.3 1.1h-.3a5 5 0 01-5.9-3.9 4.9 4.9 0 013.8-5.9z" fill="#31323d"/><path d="m1349 1253.5c-15.1-2.9-29.9-5.9-44.9-8.5s-30-4.9-45.1-6.7c-30.1-3.5-60.5-5.1-90.7-3.1a325.7 325.7 0 00-45.1 6 233.4 233.4 0 00-43.3 13.4 182 182 0 00-39.5 22.6 166.5 166.5 0 00-32.2 32.2 168 168 0 0131.5-33.2 184.4 184.4 0 0139.2-23.9 237 237 0 0143.5-14.7 319.5 319.5 0 0145.5-7.4c30.6-2.8 61.4-2.1 91.9.6 15.3 1.4 30.5 3.3 45.7 5.5s30.2 4.9 45.2 7.4a5 5 0 014.2 5.7 5.1 5.1 0 01-5.8 4.2z" fill="#31323d"/><path d="m1177.8 1198.7a271.2 271.2 0 01119 5.4 286.1 286.1 0 0138 13.5 5 5 0 01-4 9.2l-.3-.2a276.5 276.5 0 00-35.9-15.3 262.3 262.3 0 00-38-10 270.1 270.1 0 00-78.8-2.6z" fill="#31323d"/><path d="m1336.5 1278.8a96.5 96.5 0 00-21.4-3.4 101.3 101.3 0 00-21.8 2.1c-14.4 3-28.3 9-41.1 16.8a180.9 180.9 0 00-18.7 12.7 220.1 220.1 0 00-17.3 14.7c-5.6 5.1-11 10.5-16.1 16.1s-10.1 11.4-14.7 17.5c4.2-6.3 8.9-12.4 13.7-18.3s10-11.6 15.3-17.1 10.9-10.8 16.7-15.8a207.4 207.4 0 0118.4-14 139.3 139.3 0 0142.1-19.9 108.4 108.4 0 0123.5-3.5 107.1 107.1 0 0123.9 2.4 5 5 0 013.8 6 4.9 4.9 0 01-5.9 3.8h-.4z" fill="#31323d"/><path d="m1330.9 1307.7c.6 1.6 9.8 46.4 18.9 53.8 0 0 8.4-7.4 14.3-46.2" fill="#fff" stroke="#31323d" stroke-linecap="round" stroke-linejoin="round" stroke-width="7"/><path d="m1443.6 1227.9c-.3 1.1-.6 2-.9 2.9l-.9 2.8c-.7 1.8-1.3 3.6-2 5.3-1.4 3.6-2.9 7.1-4.4 10.5a185.3 185.3 0 01-10.7 20.2 135.5 135.5 0 01-13.5 18.6 91.6 91.6 0 01-17.2 15.6 63.4 63.4 0 01-21.3 9.7 58.6 58.6 0 01-23.2.9 70.3 70.3 0 01-11.2-2.7l-2.7-.9-2.7-1-5.1-2.3a124.6 124.6 0 01-19.2-11.7 1.6 1.6 0 01-.3-2.4 1.7 1.7 0 012.3-.5 109.5 109.5 0 0019.2 10 42.9 42.9 0 005 1.9l2.5.8 2.6.7a74.1 74.1 0 0010.3 1.8 53.6 53.6 0 0020.4-2.1 57.1 57.1 0 0018-9.7 81.5 81.5 0 0014.4-14.9 124.3 124.3 0 0011.2-17.8 160.9 160.9 0 008.6-19.4c1.3-3.3 2.5-6.6 3.5-10a49.1 49.1 0 001.5-5.1l.7-2.5c.2-.8.5-1.7.6-2.4a7.5 7.5 0 0114.7 3.2.9.9 0 00-.1.5z" fill="#31323d"/><path d="m1527 1311.5c-.5 1.6-8.8 42.6-18 50 0 0-8.3-7.4-14.2-46.2" fill="#fff" stroke="#31323d" stroke-linecap="round" stroke-linejoin="round" stroke-width="7"/><path d="m1443.7 1223.7c.5 1.4 1 3.1 1.6 4.7s1.1 3.2 1.7 4.8l3.8 9.5c2.7 6.2 5.7 12.4 9 18.4 6.6 11.9 14.4 23.3 24.2 32.3a61.6 61.6 0 0016.3 11 42.4 42.4 0 0018.9 3.8 46.3 46.3 0 009.8-1.4 64 64 0 009.6-3.3 90.5 90.5 0 0017.4-10.9 1.9 1.9 0 012.5.3 1.7 1.7 0 01-.2 2.4 89.3 89.3 0 01-17.6 12.6 60.1 60.1 0 01-10.1 4.3 45 45 0 01-10.9 2.3 47.4 47.4 0 01-11.3-.1 50.7 50.7 0 01-11-2.8 68.9 68.9 0 01-19.4-11.1c-11.6-9.4-20.8-21-28.6-33.2q-5.9-9.1-10.8-18.9c-1.7-3.2-3.3-6.4-4.8-9.7-.7-1.7-1.5-3.4-2.2-5s-1.4-3.3-2.1-5.2a7.5 7.5 0 014.4-9.7 7.4 7.4 0 019.6 4.3l.2.5z" fill="#31323d"/></svg>
